<?xml version="1.0" standalone="no"?>
<!DOCTYPE svg PUBLIC "-//W3C//DTD SVG 1.1//EN" "http://www.w3.org/Graphics/SVG/1.1/DTD/svg11.dtd" >
<svg xmlns="http://www.w3.org/2000/svg" xmlns:xlink="http://www.w3.org/1999/xlink" version="1.1">
<metadata></metadata>
<defs>
<font id="credit_blockregular" horiz-adv-x="331" >
<font-face units-per-em="2048" ascent="1536" descent="-512" />
<missing-glyph horiz-adv-x="500" />
<glyph horiz-adv-x="0" />
<glyph unicode="&#xd;" horiz-adv-x="1024" />
<glyph unicode=" " />
<glyph unicode="!" horiz-adv-x="147" d="M31 39q0 25 13 35t30 10q18 0 31.5 -10t13.5 -35q0 -29 -13.5 -36t-31.5 -7q-16 0 -29.5 7t-13.5 36zM41 1583h65l-6 -1315h-53z" />
<glyph unicode="&#x22;" horiz-adv-x="210" d="M14 1337l33 246h45l-14 -246h-64zM117 1337l33 246h45l-15 -246h-63z" />
<glyph unicode="#" horiz-adv-x="391" d="M-2 649l4 51h78l14 285h-78l2 51h78l29 547h53l-28 -547h81l29 547h53l-28 -547h102l-2 -51h-102l-15 -285h103l-4 -51h-101l-33 -649h-53l33 649h-82l-33 -649h-53l33 649h-80zM133 700h82l14 285h-82z" />
<glyph unicode="$" horiz-adv-x="327" d="M43 219v365h61v-387q0 -23 13.5 -37.5t44.5 -14.5t44 14.5t13 37.5v387q0 37 -25.5 89t-54.5 105q-35 63 -65.5 127t-30.5 123v354q0 59 24.5 88t67.5 35v78h62v-78q41 -4 64.5 -29.5t23.5 -93.5v-352h-62v367q0 16 -6 28q-4 10 -16.5 19.5t-34.5 9.5q-33 0 -45 -17.5 t-12 -39.5v-369q0 -45 27.5 -102.5t60.5 -116.5q35 -61 61.5 -118.5t26.5 -106.5v-365q0 -61 -23.5 -90t-64.5 -35v-94h-62v94q-45 4 -68.5 30t-23.5 95z" />
<glyph unicode="%" horiz-adv-x="489" d="M25 887v602q0 57 23.5 78.5t68.5 21.5t68.5 -21.5t23.5 -78.5v-602q0 -59 -22.5 -81t-69.5 -22t-69.5 21.5t-22.5 81.5zM78 868q0 -16 8 -28.5t31 -12.5t31 12.5t8 28.5v633q0 10 -4.5 27.5t-34.5 17.5q-27 0 -33 -14t-6 -31v-633zM106 0l232 1583h47l-231 -1583h-48z M281 94v602q0 57 23.5 79t68.5 22t68.5 -21.5t23.5 -79.5v-602q0 -59 -22.5 -80.5t-69.5 -21.5t-69.5 21.5t-22.5 80.5zM334 76q0 -16 8 -28.5t31 -12.5t31 12t8 29v633q0 10 -4.5 27.5t-34.5 17.5q-27 0 -33 -14.5t-6 -30.5v-633z" />
<glyph unicode="&#x26;" horiz-adv-x="354" d="M43 123v594q0 37 15.5 59.5t39.5 32.5q-23 12 -39 35.5t-16 58.5v563q0 72 34 98.5t89 26.5t89 -26.5t34 -98.5v-387h-68v402q0 23 -11 40t-44 17q-23 0 -35 -9t-16 -20q-6 -12 -4 -28v-592q0 -25 16 -37t33 -12h184v-58h-55v-659q0 -74 -33 -100.5t-90 -26.5t-90 26.5 t-33 100.5zM111 100q0 -23 12 -37t43 -14t43 14.5t12 36.5v615l2 67h-65q-20 0 -33.5 -15t-13.5 -38v-629z" />
<glyph unicode="'" horiz-adv-x="116" d="M16 1337l33 246h45l-14 -246h-64z" />
<glyph unicode="(" horiz-adv-x="176" d="M37 55v1479q0 72 31.5 98.5t87.5 26.5h4v-41h-4q-39 0 -48.5 -17.5t-9.5 -39.5v-1541q0 -23 10.5 -37t47.5 -14h4v-41h-4q-57 0 -88 27t-31 100z" />
<glyph unicode=")" horiz-adv-x="184" d="M10 -31h4q37 0 47.5 14.5t10.5 36.5v1541q0 23 -9.5 40t-48.5 17h-4v41h4q55 0 87 -26.5t32 -98.5v-1479q0 -74 -30.5 -100.5t-88.5 -26.5h-4v41z" />
<glyph unicode="*" horiz-adv-x="264" d="M8 1415l78 41l-78 41l21 39l80 -45v92h45l-2 -92l79 45l23 -39l-80 -41l80 -41l-23 -39l-79 45l2 -92h-45v92l-80 -45z" />
<glyph unicode="+" horiz-adv-x="421" d="M29 776v58h153v200h58v-200h153v-58h-153v-201h-58v201h-153z" />
<glyph unicode="," horiz-adv-x="124" d="M16 -123l17 223h69l-41 -223h-45z" />
<glyph unicode="-" horiz-adv-x="360" d="M35 770v57h282v-57h-282z" />
<glyph unicode="." horiz-adv-x="229" d="M68 43q0 47 45 47q47 0 47 -47q0 -29 -12.5 -39t-34.5 -10q-20 0 -32.5 10t-12.5 39z" />
<glyph unicode="/" horiz-adv-x="225" d="M25 0l120 1583h54l-121 -1583h-53z" />
<glyph unicode="0" horiz-adv-x="342" d="M47 123v1343q0 72 34 98.5t89 26.5t89 -26.5t34 -98.5v-1343q0 -74 -33 -100.5t-90 -26.5t-90 26.5t-33 100.5zM115 100q0 -23 12 -37t43 -14t43 14.5t12 36.5v1381q2 16 -4 28q-4 10 -16 19.5t-35 9.5q-33 0 -44 -17.5t-11 -39.5v-1381z" />
<glyph unicode="1" horiz-adv-x="206" d="M16 1526v57h138v-1583h-66v1526h-72z" />
<glyph unicode="2" horiz-adv-x="319" d="M47 0v541q0 59 31 121.5t65 128.5q29 53 54.5 105t25.5 89v500q0 23 -13 38t-44 15t-44 -15.5t-13 -37.5v-502h-62v481q0 78 31 102.5t88 24.5t90 -26.5t33 -100.5v-479q0 -49 -26.5 -106.5t-61.5 -120.5q-33 -59 -60.5 -115.5t-27.5 -101.5v-482h174v-59h-174h-41h-25z " />
<glyph unicode="3" horiz-adv-x="327" d="M39 123v409h67v-432q0 -23 12.5 -37t43.5 -14t43 14.5t12 36.5v629q0 23 -13.5 38t-33.5 15h-125v58h123q16 0 32.5 12t16.5 37v592q2 16 -4 28q-4 10 -16.5 19.5t-34.5 9.5q-33 0 -44.5 -17.5t-11.5 -39.5v-402h-67v387q0 72 34 98.5t89 26.5t89 -26.5t34 -98.5v-563 q0 -35 -16.5 -58.5t-39.5 -35.5q25 -10 40.5 -32.5t15.5 -59.5v-594q0 -74 -33 -100.5t-90 -26.5t-90 26.5t-33 100.5z" />
<glyph unicode="4" horiz-adv-x="327" d="M12 461q4 164 30 317.5t62 319.5q23 104 48.5 222t48.5 263h63v-1059h47v-63h-47v-461h-65v461h-185h-2zM80 522l119 2v559l8 199v2q-10 -51 -19.5 -104.5t-19.5 -96.5q-35 -154 -58.5 -285.5t-29.5 -275.5z" />
<glyph unicode="5" horiz-adv-x="327" d="M45 123v459h68v-482q0 -23 12 -37t43 -14t43 14.5t12 36.5v643q2 16 -4 29q-4 10 -16.5 19.5t-34.5 9.5h-121v782h223v-61h-157v-668h55q55 0 89 -26.5t34 -98.5v-606q0 -74 -33 -100.5t-90 -26.5t-90 26.5t-33 100.5z" />
<glyph unicode="6" horiz-adv-x="327" d="M41 123v1343q0 72 34 98.5t89 26.5t89 -26.5t34 -98.5v-399h-68v414q2 16 -4 28q-4 10 -16.5 19.5t-34.5 9.5q-33 0 -44 -17.5t-11 -39.5v-506l-3 -129q27 16 58 16q55 0 89 -26.5t34 -98.5v-614q0 -74 -33 -100.5t-90 -26.5t-90 26.5t-33 100.5zM109 100q0 -23 12 -37 t43 -14t43 14.5t12 36.5v652q2 16 -4 28q-4 10 -16.5 19.5t-34.5 9.5q-33 0 -44 -17.5t-11 -39.5v-652z" />
<glyph unicode="7" horiz-adv-x="264" d="M14 1522v61h236q-6 -111 -21.5 -235.5t-33.5 -266.5q-29 -211 -61 -474t-52 -607h-66q20 346 52 612.5t61 477.5q16 123 29.5 228t21.5 204h-166z" />
<glyph unicode="8" horiz-adv-x="350" d="M49 123v602q0 45 13.5 68.5t37.5 33.5q-25 10 -38 34t-13 71v534q0 72 34 98.5t89 26.5t89 -26.5t34 -98.5v-534q0 -47 -13.5 -70.5t-37.5 -34.5q25 -10 38 -33.5t13 -68.5v-602q0 -74 -33 -100.5t-90 -26.5t-90 26.5t-33 100.5zM117 100q0 -23 12 -37t43 -14t43 14.5 t12 36.5v639q2 16 -4 29q-4 10 -16 19.5t-35 9.5q-33 0 -44 -17.5t-11 -40.5v-639zM117 909q0 -23 12 -37t43 -14t43 14.5t12 36.5v572q2 16 -4 28q-4 10 -16 19.5t-35 9.5q-33 0 -44 -17.5t-11 -39.5v-572z" />
<glyph unicode="9" horiz-adv-x="337" d="M41 121v422h68v-439q-2 -16 4 -28q4 -10 16 -18.5t35 -8.5q33 0 44 16.5t11 38.5v508l2 144q-27 -16 -57 -17q-55 0 -89 27t-34 98v600q0 74 32.5 100.5t90.5 26.5q57 0 90 -24.5t33 -87.5v-1344q0 -82 -34 -110.5t-89 -28.5t-89 26.5t-34 98.5zM109 848q-2 -16 4 -29 q4 -10 16 -18t35 -8q33 0 44 16t11 39v637q0 23 -12 38t-43 15t-43 -15.5t-12 -37.5v-637z" />
<glyph unicode=":" horiz-adv-x="180" d="M45 489q0 25 13.5 35.5t29.5 10.5q18 0 31.5 -10.5t13.5 -35.5q0 -29 -13.5 -38t-31.5 -9q-16 0 -29.5 9.5t-13.5 37.5zM45 1079q0 25 13.5 35t29.5 10q18 0 31.5 -10t13.5 -35q0 -29 -13.5 -38t-31.5 -9q-16 0 -29.5 9.5t-13.5 37.5z" />
<glyph unicode=";" horiz-adv-x="192" d="M55 1079q0 25 13.5 35t29.5 10q18 0 31.5 -10t13.5 -35q0 -29 -13 -38t-32 -9q-16 0 -29.5 9.5t-13.5 37.5zM61 360h45l41 224h-69z" />
<glyph unicode="&#x3c;" horiz-adv-x="327" d="M29 795l204 479h62l-203 -479l205 -480h-61z" />
<glyph unicode="=" horiz-adv-x="376" d="M57 713v57h265v-57h-265zM57 838v57h265v-57h-265z" />
<glyph unicode="&#x3e;" horiz-adv-x="327" d="M27 315l206 480l-204 479h63l203 -479l-205 -480h-63z" />
<glyph unicode="?" horiz-adv-x="309" d="M33 1008v456q0 78 30.5 102.5t88.5 24.5q57 0 89.5 -26.5t32.5 -100.5v-479q0 -59 -14 -104t-49 -107q-27 -45 -38 -108.5t-11 -124.5v-260h-60l-2 260q0 72 10.5 142.5t43.5 121.5q33 53 44 91t11 89v500q0 23 -13.5 38t-43.5 15q-31 0 -44.5 -15.5t-13.5 -37.5v-477 h-61zM86 37q0 25 13.5 35t29.5 10q18 0 31.5 -10t13.5 -35q0 -29 -13.5 -36t-31.5 -7q-16 0 -29.5 7t-13.5 36z" />
<glyph unicode="@" horiz-adv-x="516" d="M51 338v977q0 129 62 207q61 72 145 71q84 0 145 -73q63 -80 64 -211v-903q0 -35 -8 -56.5t-19 -34.5q-29 -35 -69 -34q-25 0 -46.5 14t-31.5 47q-2 4 -3 12t-3 19q-16 -12 -37 -13q-29 0 -49 27q-16 23 -17 62v311q0 63 31 92q14 14 28.5 18t28.5 7h11v258q0 55 -25 55 q-8 0 -16.5 -12.5t-8.5 -40.5v-209h-49v209q0 53 22.5 77.5t51.5 24.5t53 -31q20 -27 21 -73v-744q0 -37 12 -49q4 -6 14.5 -9t16.5 -3q16 0 29.5 17.5t13.5 58.5v903q0 115 -53 180q-45 55 -107 55q-29 0 -56.5 -13t-50 -42t-37 -72t-14.5 -102v-977q0 -72 13.5 -125 t33 -89t45 -55.5t50.5 -25.5q49 -12 100 15.5t86 93.5l39 -19q-37 -70 -89 -106.5t-108 -36.5q-10 0 -19 1t-20 3q-39 10 -72.5 37.5t-56.5 70.5q-51 96 -51 236zM233 449q0 -39 23 -39q16 0 21.5 11t5.5 50v195l4 161q-10 0 -20.5 -1t-16.5 -9q-16 -16 -17 -57v-311z" />
<glyph unicode="A" horiz-adv-x="376" d="M14 0l129 1583h90l125 -1583h-65l-47 575h-119l-47 -575h-66zM131 639h113l-47 569l-9 146l-10 -146z" />
<glyph unicode="B" d="M41 0v1583h6h57h82q41 0 69 -12t28 -68v-600q0 -68 -52 -94q51 -18 52 -92v-617q0 -41 -19.5 -70.5t-81.5 -29.5h-78h-51h-12zM104 59h78q14 0 24.5 10.5t10.5 24.5v635q0 23 -10 38t-31 15h-6h-66v-723zM104 838h46q10 0 22 2h2q16 0 29.5 12t13.5 37v604q0 23 -10 29 t-25 6h-57h-21v-690z" />
<glyph unicode="C" horiz-adv-x="346" d="M53 123v1343q0 72 34 98.5t89 26.5t87 -22.5t32 -102.5v-354h-62v369q0 16 -6 28q-4 10 -16 19.5t-35 9.5q-33 0 -45 -17.5t-12 -39.5v-1381q0 -23 13 -37t44 -14t44 14.5t13 36.5v385h62v-362q0 -78 -31 -102.5t-88 -24.5t-90 26.5t-33 100.5z" />
<glyph unicode="D" horiz-adv-x="323" d="M41 0v1583h6h57h82q41 0 69 -12t28 -68v-786v-129v-488q0 -41 -19.5 -70.5t-81.5 -29.5h-78h-51h-12zM104 57h78q14 0 24.5 10.5t10.5 24.5v1401q0 23 -10 29t-25 6h-57h-21v-1471z" />
<glyph unicode="E" horiz-adv-x="270" d="M41 0v1583h2h205v-53h-144v-699h142v-55h-142v-723h144v-53h-207z" />
<glyph unicode="F" horiz-adv-x="274" d="M41 0v1583h2h203v-55h-142v-697h138v-55h-138v-776h-63z" />
<glyph unicode="G" d="M53 123v1343q0 72 34 98.5t89 26.5t87 -22.5t32 -102.5v-354h-62v369q0 16 -6 28q-4 10 -16 19.5t-35 9.5q-33 0 -45 -17.5t-12 -39.5v-1381q0 -23 13 -37t44 -14t44 14.5t13 36.5v459l-57 2v60h119v-498q0 -78 -31 -102.5t-88 -24.5t-90 26.5t-33 100.5z" />
<glyph unicode="H" horiz-adv-x="350" d="M51 0v1583h66v-756h123v756h65v-1583h-65v766h-123v-766h-66z" />
<glyph unicode="I" horiz-adv-x="165" d="M51 0v1583h66v-1583h-66z" />
<glyph unicode="J" d="M41 123v491h65v-514q0 -23 13.5 -37t42.5 -14q31 0 44 14.5t13 36.5v1483h66v-1460q0 -74 -33 -100.5t-90 -26.5q-55 0 -88 24.5t-33 102.5z" />
<glyph unicode="K" horiz-adv-x="368" d="M49 0v1583h66v-921l10 90l133 831h66l-125 -786l32 -144l111 -653h-66l-108 637l-12 -86l-41 -221v-330h-66z" />
<glyph unicode="L" horiz-adv-x="274" d="M61 0v1583h74v-1522h121v-61h-195z" />
<glyph unicode="M" horiz-adv-x="477" d="M53 0v1583h105l73 -1051q2 -20 2 -38.5v-40.5h5v41t2 38l73 1051h105v-1583h-66l2 1255v115l-10 -115l-88 -1255h-20h-21l-88 1253l-10 117v-117l2 -1253h-66z" />
<glyph unicode="N" horiz-adv-x="395" d="M59 0v1583h11h55h2l51 -364l98 -779l-10 1143h66v-1583h-53l-43 315l-121 840l10 -1155h-66z" />
<glyph unicode="O" horiz-adv-x="360" d="M53 123v1343q0 72 34 98.5t89 26.5t89 -26.5t34 -98.5v-1343q0 -74 -33 -100.5t-90 -26.5t-90 26.5t-33 100.5zM121 100q0 -23 12 -37t43 -14t43 14.5t12 36.5v1381q2 16 -4 28q-4 10 -16 19.5t-35 9.5q-33 0 -44 -17.5t-11 -39.5v-1381z" />
<glyph unicode="P" horiz-adv-x="319" d="M43 0v1583h6h137q41 0 69 -12t28 -68v-745q0 -41 -19.5 -71t-81.5 -30h-76v-657h-63zM106 717h76q16 0 25.5 10t9.5 25v741q0 23 -9 29t-26 6h-57h-19v-811z" />
<glyph unicode="Q" horiz-adv-x="364" d="M59 123v1343q0 72 34 98.5t89 26.5t89 -26.5t34 -98.5v-1343q0 -88 -51 -113l33 -80l-56 -24l-32 90h-17q-57 0 -90 26.5t-33 100.5zM127 100q0 -20 12.5 -35.5t40.5 -15.5l-24 72l45 18l28 -69q8 10 9 30v1381q2 16 -5 28q-4 10 -16 19.5t-35 9.5q-33 0 -44 -17.5 t-11 -39.5v-1381z" />
<glyph unicode="R" horiz-adv-x="323" d="M41 0v1583h6h139q41 0 69 -12t28 -68v-717q0 -68 -52 -94q51 -18 52 -92v-600h-66v612q0 23 -10 38.5t-31 15.5h-16h-56v-666h-63zM104 721h43q10 0 19 2h8q16 0 29.5 12.5t13.5 36.5v721q0 23 -10 29t-25 6h-57h-21v-807z" />
<glyph unicode="S" horiz-adv-x="346" d="M53 123v461h62v-484q0 -23 13 -37t44 -14t44 14.5t13 36.5v455q0 37 -25.5 89t-53.5 106q-35 63 -66 126.5t-31 122.5v467q0 72 34 98.5t89 26.5t87 -22.5t32 -102.5v-467h-62v482q0 16 -6 28q-4 10 -16 19.5t-35 9.5q-33 0 -45 -17.5t-12 -39.5v-482q0 -45 27.5 -102 t60.5 -117q35 -61 61.5 -118.5t26.5 -106.5v-432q0 -74 -33 -100.5t-90 -26.5t-88 24.5t-31 102.5z" />
<glyph unicode="T" horiz-adv-x="296" d="M27 1524v59h239v-59h-88v-1524h-63v1524h-88z" />
<glyph unicode="U" horiz-adv-x="360" d="M53 123v1460h68v-1483q0 -23 12 -37t43 -14t43 14.5t12 36.5v1483h68v-1460q0 -74 -33 -100.5t-90 -26.5t-90 26.5t-33 100.5z" />
<glyph unicode="V" horiz-adv-x="327" d="M27 1583h65l72 -1223l69 1223h66l-106 -1583h-23h-8h-27z" />
<glyph unicode="W" horiz-adv-x="432" d="M18 1583h66l53 -1112l58 1112h38l64 -1112l51 1112h66l-86 -1583h-21h-10h-27l-53 985l-53 -985h-23h-10h-27z" />
<glyph unicode="X" horiz-adv-x="337" d="M27 0l106 819l-100 764h67l58 -475l8 -80l8 80l59 475h66l-100 -764l106 -819h-65l-60 489l-14 119l-12 -119l-62 -489h-65z" />
<glyph unicode="Y" horiz-adv-x="296" d="M14 1583h70l57 -723l4 -80l7 80l55 723h72l-101 -1012v-571h-65v571z" />
<glyph unicode="Z" horiz-adv-x="315" d="M27 0q0 55 10 160.5t26.5 243t37 292t40.5 308.5q20 162 39 301t27 217h-156v61h225q0 -23 -5 -75t-15 -128.5t-23.5 -175t-27.5 -211.5q-16 -127 -33.5 -262t-33 -261t-28 -232.5t-16.5 -176.5h185v-61h-252z" />
<glyph unicode="[" horiz-adv-x="198" d="M47 -72v1731h129v-51h-67v-1631h67v-49h-129z" />
<glyph unicode="\" horiz-adv-x="274" d="M14 1583h54l186 -1583h-53z" />
<glyph unicode="]" horiz-adv-x="192" d="M14 -23h68v1631h-68v51h129v-1731h-129v49z" />
<glyph unicode="^" horiz-adv-x="454" d="M20 1352v67l205 174l205 -172v-67l-205 172z" />
<glyph unicode="_" horiz-adv-x="432" d="M33 0v57h364v-57h-364z" />
<glyph unicode="`" horiz-adv-x="161" d="M29 1583h63l37 -246h-49z" />
<glyph unicode="a" horiz-adv-x="376" d="M14 0l129 1583h90l125 -1583h-65l-47 575h-119l-47 -575h-66zM131 639h113l-47 569l-9 146l-10 -146z" />
<glyph unicode="b" d="M41 0v1583h6h57h82q41 0 69 -12t28 -68v-600q0 -68 -52 -94q51 -18 52 -92v-617q0 -41 -19.5 -70.5t-81.5 -29.5h-78h-51h-12zM104 59h78q14 0 24.5 10.5t10.5 24.5v635q0 23 -10 38t-31 15h-6h-66v-723zM104 838h46q10 0 22 2h2q16 0 29.5 12t13.5 37v604q0 23 -10 29 t-25 6h-57h-21v-690z" />
<glyph unicode="c" horiz-adv-x="346" d="M53 123v1343q0 72 34 98.5t89 26.5t87 -22.5t32 -102.5v-354h-62v369q0 16 -6 28q-4 10 -16 19.5t-35 9.5q-33 0 -45 -17.5t-12 -39.5v-1381q0 -23 13 -37t44 -14t44 14.5t13 36.5v385h62v-362q0 -78 -31 -102.5t-88 -24.5t-90 26.5t-33 100.5z" />
<glyph unicode="d" horiz-adv-x="323" d="M41 0v1583h6h57h82q41 0 69 -12t28 -68v-786v-129v-488q0 -41 -19.5 -70.5t-81.5 -29.5h-78h-51h-12zM104 57h78q14 0 24.5 10.5t10.5 24.5v1401q0 23 -10 29t-25 6h-57h-21v-1471z" />
<glyph unicode="e" horiz-adv-x="270" d="M41 0v1583h2h205v-53h-144v-699h142v-55h-142v-723h144v-53h-207z" />
<glyph unicode="f" horiz-adv-x="274" d="M41 0v1583h2h203v-55h-142v-697h138v-55h-138v-776h-63z" />
<glyph unicode="g" d="M53 123v1343q0 72 34 98.5t89 26.5t87 -22.5t32 -102.5v-354h-62v369q0 16 -6 28q-4 10 -16 19.5t-35 9.5q-33 0 -45 -17.5t-12 -39.5v-1381q0 -23 13 -37t44 -14t44 14.5t13 36.5v459l-57 2v60h119v-498q0 -78 -31 -102.5t-88 -24.5t-90 26.5t-33 100.5z" />
<glyph unicode="h" horiz-adv-x="350" d="M51 0v1583h66v-756h123v756h65v-1583h-65v766h-123v-766h-66z" />
<glyph unicode="i" horiz-adv-x="165" d="M51 0v1583h66v-1583h-66z" />
<glyph unicode="j" d="M41 123v491h65v-514q0 -23 13.5 -37t42.5 -14q31 0 44 14.5t13 36.5v1483h66v-1460q0 -74 -33 -100.5t-90 -26.5q-55 0 -88 24.5t-33 102.5z" />
<glyph unicode="k" horiz-adv-x="368" d="M49 0v1583h66v-921l10 90l133 831h66l-125 -786l32 -144l111 -653h-66l-108 637l-12 -86l-41 -221v-330h-66z" />
<glyph unicode="l" horiz-adv-x="274" d="M61 0v1583h74v-1522h121v-61h-195z" />
<glyph unicode="m" horiz-adv-x="477" d="M53 0v1583h105l73 -1051q2 -20 2 -38.5v-40.5h5v41t2 38l73 1051h105v-1583h-66l2 1255v115l-10 -115l-88 -1255h-20h-21l-88 1253l-10 117v-117l2 -1253h-66z" />
<glyph unicode="n" horiz-adv-x="395" d="M59 0v1583h11h55h2l51 -364l98 -779l-10 1143h66v-1583h-53l-43 315l-121 840l10 -1155h-66z" />
<glyph unicode="o" horiz-adv-x="360" d="M53 123v1343q0 72 34 98.5t89 26.5t89 -26.5t34 -98.5v-1343q0 -74 -33 -100.5t-90 -26.5t-90 26.5t-33 100.5zM121 100q0 -23 12 -37t43 -14t43 14.5t12 36.5v1381q2 16 -4 28q-4 10 -16 19.5t-35 9.5q-33 0 -44 -17.5t-11 -39.5v-1381z" />
<glyph unicode="p" horiz-adv-x="319" d="M43 0v1583h6h137q41 0 69 -12t28 -68v-745q0 -41 -19.5 -71t-81.5 -30h-76v-657h-63zM106 717h76q16 0 25.5 10t9.5 25v741q0 23 -9 29t-26 6h-57h-19v-811z" />
<glyph unicode="q" horiz-adv-x="364" d="M59 123v1343q0 72 34 98.5t89 26.5t89 -26.5t34 -98.5v-1343q0 -88 -51 -113l33 -80l-56 -24l-32 90h-17q-57 0 -90 26.5t-33 100.5zM127 100q0 -20 12.5 -35.5t40.5 -15.5l-24 72l45 18l28 -69q8 10 9 30v1381q2 16 -5 28q-4 10 -16 19.5t-35 9.5q-33 0 -44 -17.5 t-11 -39.5v-1381z" />
<glyph unicode="r" horiz-adv-x="323" d="M41 0v1583h6h139q41 0 69 -12t28 -68v-717q0 -68 -52 -94q51 -18 52 -92v-600h-66v612q0 23 -10 38.5t-31 15.5h-16h-56v-666h-63zM104 721h43q10 0 19 2h8q16 0 29.5 12.5t13.5 36.5v721q0 23 -10 29t-25 6h-57h-21v-807z" />
<glyph unicode="s" horiz-adv-x="346" d="M53 123v461h62v-484q0 -23 13 -37t44 -14t44 14.5t13 36.5v455q0 37 -25.5 89t-53.5 106q-35 63 -66 126.5t-31 122.5v467q0 72 34 98.5t89 26.5t87 -22.5t32 -102.5v-467h-62v482q0 16 -6 28q-4 10 -16 19.5t-35 9.5q-33 0 -45 -17.5t-12 -39.5v-482q0 -45 27.5 -102 t60.5 -117q35 -61 61.5 -118.5t26.5 -106.5v-432q0 -74 -33 -100.5t-90 -26.5t-88 24.5t-31 102.5z" />
<glyph unicode="t" horiz-adv-x="296" d="M27 1524v59h239v-59h-88v-1524h-63v1524h-88z" />
<glyph unicode="u" horiz-adv-x="360" d="M53 123v1460h68v-1483q0 -23 12 -37t43 -14t43 14.5t12 36.5v1483h68v-1460q0 -74 -33 -100.5t-90 -26.5t-90 26.5t-33 100.5z" />
<glyph unicode="v" horiz-adv-x="327" d="M27 1583h65l72 -1223l69 1223h66l-106 -1583h-23h-8h-27z" />
<glyph unicode="w" horiz-adv-x="432" d="M18 1583h66l53 -1112l58 1112h38l64 -1112l51 1112h66l-86 -1583h-21h-10h-27l-53 985l-53 -985h-23h-10h-27z" />
<glyph unicode="x" horiz-adv-x="337" d="M27 0l106 819l-100 764h67l58 -475l8 -80l8 80l59 475h66l-100 -764l106 -819h-65l-60 489l-14 119l-12 -119l-62 -489h-65z" />
<glyph unicode="y" horiz-adv-x="296" d="M14 1583h70l57 -723l4 -80l7 80l55 723h72l-101 -1012v-571h-65v571z" />
<glyph unicode="z" horiz-adv-x="315" d="M27 0q0 55 10 160.5t26.5 243t37 292t40.5 308.5q20 162 39 301t27 217h-156v61h225q0 -23 -5 -75t-15 -128.5t-23.5 -175t-27.5 -211.5q-16 -127 -33.5 -262t-33 -261t-28 -232.5t-16.5 -176.5h185v-61h-252z" />
<glyph unicode="{" horiz-adv-x="210" d="M8 795q16 4 38 38.5t22 106.5v594q0 72 31.5 98.5t86.5 26.5h4v-41h-4q-39 0 -51 -17.5t-12 -39.5v-580q0 -66 -12.5 -116t-44.5 -70q-2 0 -5 -2q4 0 5 -2q33 -18 45 -68.5t12 -116.5v-579q0 -23 12 -39.5t51 -16.5h4v-41h-4q-55 0 -86.5 27t-31.5 98v592q0 72 -21.5 108 t-38.5 40z" />
<glyph unicode="|" horiz-adv-x="165" d="M57 -45v1673h49v-1673h-49z" />
<glyph unicode="}" horiz-adv-x="229" d="M16 -29h4q39 0 51.5 16.5t12.5 39.5v579q0 66 11 116t46 69q0 2 4 2q-2 2 -4 2q-35 20 -46 70t-11 116v580q0 23 -12.5 40t-51.5 17h-4v41h4q55 0 87 -26.5t32 -98.5v-594q0 -72 21.5 -106.5t38.5 -38.5q-16 -4 -38 -40t-22 -108v-592q0 -72 -31.5 -98.5t-87.5 -26.5h-4 v41z" />
<glyph unicode="&#xa0;" />
<glyph unicode="&#xa9;" horiz-adv-x="571" d="M63 45v1485q0 20 14.5 34.5t37.5 14.5h352q20 0 34.5 -14.5t14.5 -34.5v-1485q0 -23 -14.5 -37t-34.5 -14h-352q-23 0 -37.5 14.5t-14.5 36.5zM94 45q0 -20 21 -20h352q18 0 18 20v1485q0 18 -18 18h-352q-20 0 -21 -18v-1485zM203 350q0 -92 90 -92q39 0 62.5 17.5 t23.5 74.5v248h-57v-262q0 -10 -5.5 -18.5t-23.5 -8.5t-24.5 8.5t-6.5 18.5v913q0 10 6 19.5t25 9.5q10 0 22 -8q2 -4 4.5 -7t2.5 -8v-6v-254h57v244q0 51 -25 74q-12 10 -28.5 13t-32.5 3q-45 0 -66 -20q-25 -23 -24 -70v-889z" />
<glyph unicode="&#xad;" horiz-adv-x="360" d="M35 770v57h282v-57h-282z" />
<glyph unicode="&#xae;" horiz-adv-x="552" d="M49 586v944q0 20 14.5 34.5t36.5 14.5h353q20 0 34.5 -14.5t14.5 -34.5v-944q0 -23 -14.5 -37t-34.5 -14h-353q-23 0 -37 14t-14 37zM80 586q0 -20 20 -21h353q18 0 18 21v944q0 18 -18 18h-353q-20 0 -20 -18v-944zM219 692h39v314h23h6q16 0 16 -21v-293h39v287 q0 33 -18 43q18 14 18 45v336q0 31 -14.5 37t-34.5 6h-74v-754zM258 1040v371h6h27q12 0 12 -12v-340q0 -18 -16 -19h-4h-25z" />
<glyph unicode="&#x2000;" horiz-adv-x="829" />
<glyph unicode="&#x2001;" horiz-adv-x="1659" />
<glyph unicode="&#x2002;" horiz-adv-x="829" />
<glyph unicode="&#x2003;" horiz-adv-x="1659" />
<glyph unicode="&#x2004;" horiz-adv-x="553" />
<glyph unicode="&#x2005;" horiz-adv-x="414" />
<glyph unicode="&#x2006;" horiz-adv-x="276" />
<glyph unicode="&#x2007;" horiz-adv-x="276" />
<glyph unicode="&#x2008;" horiz-adv-x="207" />
<glyph unicode="&#x2009;" />
<glyph unicode="&#x200a;" horiz-adv-x="92" />
<glyph unicode="&#x2010;" horiz-adv-x="360" d="M35 770v57h282v-57h-282z" />
<glyph unicode="&#x2011;" horiz-adv-x="360" d="M35 770v57h282v-57h-282z" />
<glyph unicode="&#x2012;" horiz-adv-x="360" d="M35 770v57h282v-57h-282z" />
<glyph unicode="&#x2013;" horiz-adv-x="1102" d="M35 770v57h1024v-57h-1024z" />
<glyph unicode="&#x2014;" horiz-adv-x="2126" d="M35 770v57h2048v-57h-2048z" />
<glyph unicode="&#x2018;" horiz-adv-x="131" d="M29 1337l14 246h63l-32 -246h-45z" />
<glyph unicode="&#x2019;" horiz-adv-x="143" d="M33 1337l33 246h45l-15 -246h-63z" />
<glyph unicode="&#x201c;" horiz-adv-x="221" d="M33 1337v246h59v-246h-59zM133 1337v246h60v-246h-60z" />
<glyph unicode="&#x201d;" horiz-adv-x="229" d="M29 1337l14 246h63l-32 -246h-45zM131 1337l14 246h64l-33 -246h-45z" />
<glyph unicode="&#x202f;" />
<glyph unicode="&#x205f;" horiz-adv-x="414" />
<glyph unicode="&#x20ac;" horiz-adv-x="342" d="M10 834l23 53h39v567q0 72 33.5 98.5t89.5 26.5q55 0 86.5 -22.5t31.5 -102.5v-354h-61v368q0 16 -6 29q-4 10 -16.5 19.5t-34.5 9.5q-33 0 -45.5 -17.5t-12.5 -40.5v-581h178l-22 -53h-156v-76h156l-23 -53h-133v-594q0 -23 13.5 -37.5t44.5 -14.5t44 14.5t13 37.5v362 h61v-340q0 -78 -30.5 -102.5t-87.5 -24.5t-90 26.5t-33 100.5v572h-60l23 53h37v76h-62z" />
<glyph unicode="&#x25fc;" horiz-adv-x="1587" d="M0 0v1587h1587v-1587h-1587z" />
</font>
</defs>
</svg>
