<?xml version="1.0" standalone="no"?>
<!DOCTYPE svg PUBLIC "-//W3C//DTD SVG 1.1//EN" "http://www.w3.org/Graphics/SVG/1.1/DTD/svg11.dtd" >
<svg xmlns="http://www.w3.org/2000/svg" xmlns:xlink="http://www.w3.org/1999/xlink" version="1.1">
<metadata></metadata>
<defs>
<font id="jovial_regularregular" horiz-adv-x="704" >
<font-face units-per-em="2048" ascent="1536" descent="-512" />
<missing-glyph horiz-adv-x="307" />
<glyph horiz-adv-x="0" />
<glyph horiz-adv-x="682" />
<glyph unicode=" "  horiz-adv-x="307" />
<glyph unicode="&#x09;" horiz-adv-x="307" />
<glyph unicode="&#xa0;" horiz-adv-x="307" />
<glyph unicode="!" horiz-adv-x="206" d="M43 59q-3 27 14 42.5t39 17.5q42 3 59 -22.5t7 -59.5q-6 -30 -43 -37h-23h-18q-12 2 -22 10.5t-11 20.5q-1 5 -1 14t-1 14zM63 1395v26q0 26 20 37.5t42 -2.5q11 -5 18 -24q2 -5 2.5 -14.5t1.5 -12.5q12 -294 9 -561v-438v-37q-3 -31 -33 -31h-19q-12 2 -21 11t-9 22 q-2 14 -2 45v596q0 149 -2 223q-1 26 -3.5 80t-3.5 80z" />
<glyph unicode="&#x22;" horiz-adv-x="346" d="M41 1272l37 119q7 23 22 36q18 12 39 5q23 -10 23 -33q-12 -61 -39 -139q-5 -14 -8 -17q-15 -27 -47 -20q-27 7 -27 49zM184 1272l37 119q6 22 23 36q18 12 39 5q22 -9 22 -33q-12 -61 -39 -139q-4 -14 -8 -17q-15 -27 -47 -20q-27 7 -27 49z" />
<glyph unicode="#" horiz-adv-x="1091" d="M43 539q-7 27 18 41q12 6 25 6h10q30 -6 64 -6h10h10h8q2 2 7 2h6q20 -2 63 -2h25q4 8 4 14l2 2q1 4 4 12.5t4 12.5q3 8 9.5 25.5t9.5 25.5t9 24.5t9 24.5q3 12 8 22q13 36 17 52h-7q-2 0 -7 -1t-7 -1h-31h-37h-26q-23 2 -60 2h-8h-2q-19 0 -47 4q-4 2 -14 2h-2 q-27 7 -33 33t18 40q14 7 25 7h10q35 -7 64 -7h104h70q3 0 9 1.5t9 1.5q5 16 16.5 49.5t16.5 50.5q13 34 16 47h2q0 4 5 14l24 68q0 4 2 8q9 25 37 25h8q12 0 20.5 -8.5t10.5 -20.5q0 -15 -2 -23q-2 -12 -10 -36q-3 -11 -11 -31t-10 -27l-2 -2q-1 -4 -4 -12t-4 -12 q-2 -7 -9.5 -27.5t-9.5 -30.5q-7 -19 -2 -32h54h51h2h22h25h33h24q5 19 17 52t16 48q16 42 17 47h2q0 6 4 14l24 68q0 4 2 8q9 25 37 25h8q12 0 20.5 -8.5t10.5 -20.5q0 -15 -2 -23q-2 -12 -10 -36q-3 -11 -11 -31t-10 -27l-2 -2q-1 -4 -4 -12t-4 -12q-2 -5 -9 -26.5 t-9 -31.5q-10 -25 -11 -30q27 2 80 2h23h26h15l96 -11l25 -22q3 -12 -2.5 -23t-16.5 -16q-12 -6 -22 -6q-10 -2 -33 -2h-4h-17h-45h-2h-26q-42 0 -60 -2q-42 0 -65 -2q-1 -2 -2 -8t-2 -9q-17 -53 -29 -78q-9 -30 -21 -57l-6 -18q-2 -7 -7 -21.5t-7 -21.5q22 0 69.5 1t71.5 1 h23h26h15h82l30 -4l13 -19q3 -12 -4.5 -28t-18.5 -21q-12 -6 -22 -6q-10 -2 -33 -2h-4h-17h-45h-2h-26q-42 0 -60 -2q-57 0 -84 -2h-45q-1 -6 -4 -16t-4 -13l-6 -14q-5 -19 -23 -64q-1 -4 -4 -12t-4 -12v-2q-14 -33 -24 -62q-3 -9 -11 -24.5t-10 -20.5l-6 -12l-2 -2 q-11 -21 -35 -21q-4 0 -6 2q-12 0 -21.5 9t-11.5 20q-3 20 6 35q13 21 31 67q5 15 6 17q0 6 4 14q26 67 39 109h-4h-24h-37h-19h-22h-49h-13h-51q-2 -5 -8 -27l-6 -14q-5 -19 -23 -64q-1 -4 -4 -12t-4 -12v-2q-19 -43 -25 -62q-3 -9 -10.5 -25t-9.5 -20l-6 -12l-2 -2 q-10 -21 -35 -21q-4 0 -6 2q-12 0 -21.5 9t-11.5 20q-3 20 6 35q13 21 31 67q5 15 6 17q0 6 4 14q16 41 39 107h-24h-27q-23 2 -59 2h-9h-2q-19 0 -47 4q-4 2 -14 2h-2q-27 7 -33 33zM375 582h8h35h28h54h51h2h22h19q4 8 4 12l2 2q1 4 4 12.5t4 12.5q3 8 9.5 25.5t9.5 25.5 t9 24.5t9 24.5q3 12 8 22q3 8 9.5 26t9.5 26h-43h-27h-24h-37h-19h-22h-49l-5 -15q-19 -59 -28 -78q-9 -30 -21 -57l-6 -18q-7 -23 -16 -45z" />
<glyph unicode="$" horiz-adv-x="602" d="M45 100q45 97 78 144q1 3 6 8.5t6 7.5q9 9 25.5 7.5t25.5 -11.5q21 -21 9 -45q-5 -11 -23 -43q-4 -8 -6 -14q-3 -5 -1 -13.5t7 -11.5q32 -22 61 -35q39 -12 78 -6q40 9 54 16q50 18 71 64q29 56 29 108v52q0 10 -4 26q-30 119 -64 181q-26 55 -67 106q-24 30 -64 70 q-65 65 -98 100q-42 42 -68 90q-26 58 -37 107q-12 68 -6 135q9 112 82 207q37 48 97 67q24 8 34 13q11 7 11 16q2 18 2 57q0 3 1 10.5t1 10.5q3 16 16 22q23 16 47 4q17 -9 19 -18q3 -5 8 -27q2 -16 2 -51q2 -5 8 -11.5t10 -6.5q1 0 3.5 -1t4.5 -1q8 0 25 -1t25 -1 q9 -3 20 4l12 6q19 8 34.5 0.5t21.5 -27.5q2 -4 2 -14q-5 -26 -8 -33q-19 -73 -21 -90q-1 -3 -3 -10.5t-3 -10.5q-7 -20 -33 -24q-17 -1 -30 10.5t-13 26.5q0 4 2.5 28.5t-0.5 28.5q0 3 -4.5 8.5t-7.5 5.5q-2 0 -4.5 1t-3.5 1q-74 7 -125 -8q-60 -15 -90 -65 q-25 -36 -43 -96q-4 -24 -4 -35q0 -3 -0.5 -6l-1 -6t-0.5 -5.5v-4.5v-3v-2v-31q0 -83 57 -163q16 -27 45 -56q50 -50 63 -65q24 -23 70 -72q31 -35 53 -66q39 -56 54 -92q38 -85 51 -139q1 -7 4 -20.5t4 -20.5q9 -79 9 -89t-9 -95q-6 -46 -31.5 -89t-62.5 -71 q-24 -15 -51 -27q-2 -1 -6.5 -2t-6.5 -2q-28 -9 -28 -37q1 -8 1 -17t-0.5 -20.5t-0.5 -17.5q0 -10 -3 -22q0 -7 -8 -19q-10 -11 -29 -11t-30 11q-12 12 -12 25q-4 36 -4 55q-5 20 -5 21q-2 5 -6.5 9.5t-7.5 4.5q-8 4 -14 4q-49 0 -107 35q-4 2 -12 7t-12 7q-12 4 -21 2h-6 q-25 0 -41 23q-7 16 -2 28z" />
<glyph unicode="%" horiz-adv-x="905" d="M41 1192q0 42 10 94q10 65 55 90q22 13 33 13h74q22 0 53 -23q48 -36 60 -98q8 -47 8 -105v-90h-2v-127q0 -41 -19 -84q-27 -56 -90 -59h-37q-50 2 -86.5 35t-42.5 82q-1 14 -4 56.5t-6 65.5q-6 49 -6 150zM80 43q0 18 14 43q156 292 234 457q16 32 45 90.5t52.5 106.5 t43.5 91q28 60 83 182t83 183q15 31 42 93t42 93q22 39 33 56q9 12 28 15.5t33 -5.5q8 -5 12 -18q4 -31 -6 -48q-116 -249 -121 -260q-18 -39 -65.5 -144t-73.5 -161q-237 -489 -332 -667q-10 -21 -31.5 -61t-31.5 -60q-17 -34 -45 -29q-20 -2 -31 9.5t-8 33.5zM127 1071 q0 -3 3 -37.5t3 -52.5q0 -30 12 -57q14 -36 56 -39q29 0 37 22q12 27 12 58v104h2q0 17 -1 52t-1 53q0 22 -19 96q-8 29 -41 39q-33 7 -47 -19q-7 -18 -10 -35q-17 -74 -6 -184zM561 326q-1 39 8 176q3 61 54 112q27 27 59 27q56 0 78 -8q42 -15 71.5 -54t30.5 -83 q1 -17 1 -37t-0.5 -44.5t-0.5 -37.5h-2q0 -1 1 -55t-1 -54q0 -38 -16 -116q-10 -41 -37 -68q-29 -26 -66 -29h-53q-55 -3 -90 51q-15 27 -18 48q-8 37 -11 86q-4 30 -8 86zM641 365q2 -26 12 -158q2 -12 11 -39q5 -31 43 -35q13 -3 29 6t22 23q15 40 18 84q6 57 10 176 q2 26 -10 76q-11 52 -63 61q-20 6 -33 -10q-19 -25 -29 -62q-5 -19 -6.5 -37t-2.5 -48t-1 -37z" />
<glyph unicode="&#x26;" horiz-adv-x="1003" d="M41 330v28q0 114 47 220q0 1 1 3t1 3q37 80 53.5 108t67.5 90q15 20 18 23q18 18 7 47q-21 42 -25 51q-2 6 -10 23.5t-11 27.5q-18 60 -24 90q0 15 -2 21q-10 35 -10 104q0 64 26 131q23 58 74 103q31 25 72 31q8 0 24.5 1t24.5 1q48 0 102 -23q37 -18 62 -49 q23 -29 49 -86q1 -2 2 -6t2 -6q2 -22 10 -56v-14q0 -13 -6 -53t-10 -53q-21 -67 -64 -125q-25 -32 -57 -64q-12 -11 -35.5 -33t-34.5 -34q-13 -13 -18 -23q-7 -10 -4 -18q3 -4 7 -13.5t7 -13.5q37 -52 94 -156t144 -237q1 -2 10 -11q3 -3 9 -3t9 3q1 1 3 3.5t3 3.5q8 8 9 10 q97 147 118 176q4 13 -2 20q-6 6 -18.5 14.5t-15.5 10.5q-19 19 -13 39q1 12 11 20.5t22 10.5q9 2 21 -2q10 -3 20 -9q32 -23 76.5 -64t66.5 -71q9 -9 9 -26q0 -32 -33 -39q-11 -3 -21 4q-10 5 -32 26q-3 3 -9.5 3t-9.5 -3q-2 -3 -7 -8t-7 -8q-66 -94 -123 -190 q-5 -6 -10 -19q-6 -9 0 -20q2 -3 5 -9.5t5 -9.5q26 -40 72 -104q13 -16 30 -2q4 3 13.5 11t13.5 11q3 3 8.5 8t7.5 7q2 1 6.5 3t6.5 3q13 8 28 2q31 -14 25 -45q0 -9 -8 -21q-9 -9 -34 -33t-43.5 -41t-37.5 -32q-1 -1 -47 -41q-12 -10 -33 -10q-17 2 -27.5 14t-9.5 29 q3 13 8 20q5 5 14.5 15.5t14.5 15.5q8 8 0 20q-42 57 -59 86q-1 2 -4 6.5t-4 6.5q-14 18 -31 4q-21 -21 -29 -31q-53 -55 -139 -96q-34 -17 -53 -19q-5 -1 -35 -6q-8 -2 -27 -2q-64 3 -117 29q-17 9 -34 22q-56 42 -103 109q-46 65 -53 166zM131 330q4 -20 4 -29 q2 -25 21 -59q38 -72 102 -115q45 -31 88 -31q40 0 55 6q60 23 103 60q38 33 74 78q11 18 2 32q-7 18 -17 31q-12 19 -36.5 57t-37.5 58q-11 16 -81 139q-34 61 -72 123q-15 20 -17 22q-1 2 -4 6.5t-4 6.5q-6 7 -15 7.5t-15 -5.5q-38 -44 -56 -74q-80 -138 -94 -272 q-3 -19 0 -41zM242 1128q2 -8 5 -24.5t5 -24.5q2 -14 10 -47q13 -53 43 -110q5 -10 8 -13q2 -4 13 -4q12 4 18 8q70 57 131 156q5 7 11.5 22t7.5 17q16 40 16 76q0 4 -1 13t-1 13q0 9 -4 21q-24 48 -29 57q-20 30 -47 41q-18 10 -47 14q-53 6 -82 -32q-41 -47 -49 -99 q-1 -5 -3 -14t-3 -14q-9 -26 -2 -56z" />
<glyph unicode="'" horiz-adv-x="202" d="M41 1266l37 118q7 25 22 37q17 11 39 4q23 -10 23 -32q-13 -63 -39 -140q-4 -12 -8 -16q-15 -27 -47 -20q-27 7 -27 49z" />
<glyph unicode="(" horiz-adv-x="319" d="M41 578v108q0 54 16 168q7 67 30 190t28 158q7 44 35 201q13 62 40 139q2 8 11 27q10 13 24 16q61 6 49 -53q-4 -18 -8 -27q-31 -85 -51 -198q-9 -51 -24.5 -146.5t-22.5 -134.5q-4 -29 -13.5 -83t-13.5 -79q-18 -92 -18 -184v-170q0 -93 16 -199q6 -35 15.5 -104 t15.5 -103q3 -20 11 -70t12.5 -77t13.5 -67.5t18 -73.5q3 -12 7 -25t9.5 -29t8.5 -24q8 -28 8 -41q3 -34 -27 -41q-36 -9 -51 18q-6 9 -10 25q-34 97 -47 174q-23 126 -47 293q-25 175 -29 211q-3 29 -4 62.5t-1 74.5t-1 64z" />
<glyph unicode=")" horiz-adv-x="284" d="M41 -326q0 31 2 45q7 37 22.5 111t22.5 111q3 16 25 149q6 45 22 139q9 55 15 117q17 189 6 477q0 29 -6 84.5t-7 63.5q-7 69 -14 114q-3 30 -11.5 89.5t-11.5 89.5q-2 13 -30 180q0 1 -6 23t-7 34q-6 21 -6 45q0 12 8.5 19.5t22.5 9.5q41 3 51 -35q5 -21 14.5 -62 t14.5 -61q3 -11 8 -45q3 -24 10.5 -71.5t10.5 -71.5l24 -189q4 -30 8 -82q1 -15 6.5 -73t6.5 -90q1 -27 1 -80.5t1 -79.5v-19h-4v-213q-2 -69 -21 -194q-4 -25 -12 -78t-12 -78q-14 -99 -29 -166q-19 -102 -39 -190q-5 -26 -6 -27q-7 -14 -19 -18q-22 -3 -41 0q-17 3 -20 22 z" />
<glyph unicode="*" horiz-adv-x="405" d="M45 1311q6 15 29 22h4l8 2q1 0 2 -1t2 -1q9 0 21 -6q7 -2 24 -7.5t27 -8.5v2v88q5 16 10.5 22.5t17.5 6.5h15q27 0 31 -29q2 -6 2 -19q0 -6 1 -21t1 -22t-1 -13t-1 -11q12 5 38 10h-6q19 8 33 10l-2 -2q12 4 23 4q31 0 38 -28q6 -29 -18 -43q-9 -9 -22 -9q-1 0 -4.5 -1 t-4.5 -1q-45 -15 -49 -16q3 -11 12 -20q3 -6 10.5 -18.5t10.5 -18.5q10 -17 10 -41q-7 -14 -12 -19q-9 -9 -27 -7.5t-26 9.5l-6 6q-1 1 -4.5 5.5t-4.5 5.5l-26 43q-3 -7 -11 -18.5t-10 -14.5q-4 -8 -6 -10q-1 -2 -5 -8.5t-5 -8.5l-8 -6q-2 -2 -9.5 -6.5t-9.5 -5.5 q-27 0 -39 12q-8 8 -9 21t5 24l-2 -4l8 15l39 61q-4 0 -6 2q-9 2 -47 16q-4 0 -18 9l-9 4q-9 6 -13.5 19.5t-0.5 25.5z" />
<glyph unicode="+" horiz-adv-x="464" d="M43 729q-3 27 23 43q10 10 22 4h45q23 -2 66 -2v2l-2 47v70q7 25 32 31q17 0 21 -2q21 -3 24 -33q0 -5 1 -16t1 -15q5 -61 3 -82q10 2 63 2h61l13 -12q11 -12 6.5 -33.5t-19.5 -27.5h-2q-14 -7 -20 -7q-8 -2 -37 -2q-18 2 -53 -2q-2 0 -6 -1t-6 -1v-16q0 -6 1 -17.5 t1 -17.5q0 -29 2 -45q0 -12 -2 -18q-13 -27 -33 -29q-38 -3 -43 35q-4 12 -4 32v68q0 6 -31 8q-62 4 -90 4q-13 0 -23.5 10t-13.5 23z" />
<glyph unicode="," horiz-adv-x="202" d="M41 -45l37 119q7 24 22 37q17 11 39 4q23 -10 23 -33q-12 -61 -39 -139q-5 -13 -8 -17q-15 -27 -47 -20q-27 7 -27 49z" />
<glyph unicode="-" horiz-adv-x="454" d="M41 641q0 39 35 45q6 2 18 2h74q28 4 55 4h158q19 -3 26.5 -12.5t4.5 -30.5q-1 -18 -9 -24.5t-26 -6.5h-58q-18 3 -45 -2h2q-10 -2 -34 -2q-28 0 -68 -4h-96q-19 0 -26.5 7.5t-10.5 23.5z" />
<glyph unicode="." horiz-adv-x="200" d="M49 23q-13 38 0 65q15 27 45 27q42 0 53 -25q4 -6 7 -19.5t4 -15.5q1 -32 -24.5 -48.5t-55.5 -10.5q-22 6 -29 27z" />
<glyph unicode="/" horiz-adv-x="833" d="M43 -43q-3 24 10 43q32 47 66 127q2 4 7.5 15.5t8.5 17.5q0 8 8 20q39 76 101 228q47 109 63 143q3 8 10.5 23.5t10.5 23.5q21 44 39 90q38 83 41 92q3 6 9 19.5t9 19.5q7 17 21.5 50t21.5 49l29 71q83 200 108 256q11 32 37 82l10 27l56 125q2 2 2 4q0 4 2 6 q12 27 43 27h12q25 -7 25 -27q0 -23 -5 -35q-11 -38 -24 -63q-7 -17 -22.5 -52t-22.5 -53l-23 -49q-7 -17 -21.5 -52t-21.5 -52q-10 -23 -30.5 -72t-30.5 -72q-28 -68 -35 -88q-33 -86 -61 -141q-8 -17 -23.5 -52t-23.5 -53l-13 -32q-9 -22 -28.5 -63.5t-26.5 -57.5 q-7 -15 -70 -160l-10 -27q-8 -23 -27.5 -65t-21.5 -47t-10 -20.5t-11 -24.5q-43 -89 -53 -113q-3 -6 -43 -78q-2 -4 -7 -12t-7 -12q-13 -19 -37 -19q-8 0 -14 2q-10 1 -18.5 10.5t-8.5 20.5z" />
<glyph unicode="0" horiz-adv-x="614" d="M45 895q1 17 2.5 53.5t4 64.5t7.5 54q8 37 11 86q2 46 20 107q30 114 133 176q27 17 63.5 19t65.5 -3q13 -3 31 -16q75 -59 115 -129q32 -48 47 -138q17 -101 20 -217q0 -73 8 -217h-2v-24q1 -24 -10 -232q-10 -138 -37 -256q-24 -111 -106 -190q-34 -31 -85.5 -38 t-90.5 11q-30 16 -60 49q-49 57 -76 150q-31 124 -36 219q-2 30 -17 166v4q-13 217 -8 301zM129 848q-4 -45 4 -135q2 -52 10 -148.5t9 -113.5q7 -81 20 -144q17 -85 47 -143q23 -44 43 -62q41 -35 84 -10q18 11 27 23q51 62 69 143q22 91 37 260q4 43 8 225q0 11 -2 46 t-2 55q-4 143 -12 213q-11 104 -35 170q-37 88 -119 145q-3 3 -8 3.5t-8 -1.5q-63 -25 -92 -69q-33 -50 -45 -113q-6 -28 -13.5 -81.5t-9.5 -66.5q-4 -36 -6.5 -102t-5.5 -94z" />
<glyph unicode="1" horiz-adv-x="495" d="M45 1399q11 21 31 24q124 7 207 0q12 0 20 -2q13 -3 23 -16q10 -17 10 -33q0 -53 -2 -78q-6 -39 -6 -112v-92q0 -44 2 -64q6 -49 6 -100q0 -78 1 -233.5t1 -233.5q0 -1 -6 -142q-6 -111 -6 -219q-2 -6 2 -14t10 -8q8 -2 29 -2q6 0 17.5 1t20.5 1t17 -2q13 0 24 -15 q10 -16 7 -32q-7 -18 -17 -23q-14 -8 -33 -12q-20 -1 -75.5 -3t-75.5 -2t-76 1q-9 1 -28 2t-29 2q-17 3 -29 18q-11 13 -6 33.5t22 26.5q12 4 21 4q40 -4 63 -4q3 -1 6.5 -1t8 0.5t6.5 0.5q3 0 8.5 4.5t5.5 7.5q13 93 13 170q0 28 1 82t1 82q0 108 6 219q5 42 2 88 q-8 86 -8 252q-1 48 -1 145t-1 146v49q-2 6 -7.5 12t-11.5 6q-5 0 -14.5 1t-14.5 1h-84q-5 0 -14.5 1t-13.5 1q-19 3 -30 24t-3 38z" />
<glyph unicode="2" horiz-adv-x="653" d="M45 33q-5 16 2 41q1 3 4 9t4 9q143 300 228 465q10 19 112 229q38 77 54 146q14 46 20 96q6 58 -2 107q-1 10 -4 31.5t-4 31.5q-2 19 -19 62q-17 31 -41 47q-4 4 -12 8q-50 37 -121 20q-6 -2 -17.5 -6t-17.5 -6q-42 -15 -57 -57q-13 -33 -16 -62q0 -3 -1 -7.5t-1 -6.5 q-10 -20 -25 -25q-19 -3 -35 0q-9 1 -15.5 8t-8.5 15q-7 39 8 104q34 100 139 131q52 15 133 11q30 -3 62 -19q66 -37 106 -100q18 -29 23 -51q14 -72 14 -93q1 -9 3 -27.5t3 -27.5q4 -76 -4 -112q-5 -68 -39 -173q-22 -65 -59 -137q-16 -33 -49 -98t-50 -98 q-76 -146 -172 -357q-3 -6 -8 -26q-3 -6 6 -11q3 -1 10.5 -3t10.5 -3q176 -18 297 -8q1 0 3.5 1t4.5 1q3 0 7.5 5.5t4.5 8.5q0 8 1 25t1 25v28q0 21 21 35q19 16 39 2q19 -13 22 -35l2 -141q0 -14 -11 -26t-26 -13q-99 -12 -196 -12q-24 0 -64 4q-126 11 -206 4 q-18 -4 -35 2q-23 7 -29 29z" />
<glyph unicode="3" horiz-adv-x="567" d="M45 186q-4 39 0 58q3 17 21 26q26 10 47 -2q11 -3 14 -14q8 -19 16 -61q2 -18 15 -48q28 -54 84 -57h28q12 0 21 6q61 28 90 84q36 64 45 141q8 64 8 81t-8 89q-7 76 -45 132q-26 45 -82 51q-43 0 -63 2q-13 0 -25 12q-4 2 -8 10q-6 22 0 43q4 12 12 17q11 11 29 18 q46 27 90 57q37 24 49 68q13 39 16 68q1 7 3.5 21.5t3.5 21.5q9 56 0 112q-13 80 -23 111q-13 51 -47 78q-9 9 -25 12q-3 1 -10 3t-10 3q-14 3 -29 0q-12 -4 -20 -4q-24 -6 -43 -25q-28 -32 -43 -71q-7 -20 10 -33q4 -4 16 -12q3 -3 10.5 -9.5t10.5 -9.5q9 -7 9.5 -21.5 t-7.5 -23.5q-2 -4 -8 -8.5t-7 -5.5q-16 -11 -34 -2q-3 2 -9.5 5t-9.5 5q-54 38 -63 45q-6 3 -11 8q-14 18 -12 33q1 6 4 17.5t4 17.5q11 85 93 154q25 18 49 24q24 8 35 8q13 0 35.5 1t35.5 1q44 0 90 -34q63 -55 86 -144q18 -86 15 -147v-101q0 -44 -11 -84 q-12 -83 -73 -141q-6 -9 -13 -16q-4 -4 0 -15q3 -4 27 -22q45 -40 68 -107q3 -6 8 -26q22 -99 22 -133v-70q-4 -66 -10 -100q-2 -9 -6.5 -38t-9.5 -44q-38 -116 -133 -178q-53 -35 -115 -29q-8 1 -24.5 4t-24.5 4q-80 12 -125 84q-22 39 -33 100z" />
<glyph unicode="4" horiz-adv-x="743" d="M45 496q4 22 12 39q43 99 47 110q18 42 38 89.5t44 104t37 87.5q46 109 92 200q78 160 117 242q11 22 21 37q24 27 57 14q19 -6 22 -26q5 -20 5 -27q0 -6 -1 -18.5t-1 -18.5q-5 -63 -5 -78v-637q0 -8 1 -24.5t1 -24.5q0 -6 7.5 -12t13.5 -6q25 -3 49 0q6 0 10 8 q1 2 13 25q16 23 43 16q20 -5 30 -29v-6q4 -71 2 -106q-1 -13 -13.5 -25t-24.5 -12q-15 0 -25 10l-25 25q-8 4 -28 4h-35q-24 -3 -27 -29q-2 -6 -2 -20q0 -49 -1 -148.5t-1 -148.5v-23q0 -3 5.5 -8.5t8.5 -5.5q20 0 56 -4q14 -1 25.5 -12.5t13.5 -24.5v-6q-7 -22 -19 -29 q-6 -6 -14 -6q-8 -2 -27 -2q-59 0 -106 -8q-41 -5 -92 -2q-23 2 -34 21.5t1 39.5q6 13 20 16q9 3 27.5 3t22.5 1q16 4 20 19q0 2 1 7t1 7q0 6 1 18t1 17q0 76 2 115v170q0 18 -2 26q0 5 -5 10t-9 5q-27 6 -58 0q-46 -6 -130.5 -9.5t-108.5 -5.5q-33 0 -49 4q-15 3 -21 17 q-10 17 -4 35zM166 557q-1 -3 3 -9.5t7 -6.5q2 0 7 -1t7 -1q4 0 226 6q2 0 4.5 1t3.5 1q9 5 14 14q0 4 1 11.5t1 11.5q4 164 4 247v23q-4 29 -4 76v170v35q0 8 -10 8q-1 -1 -3 -2t-3 -2q-20 -34 -35 -70q-74 -154 -196 -446q-4 -11 -13.5 -32.5t-13.5 -33.5z" />
<glyph unicode="5" horiz-adv-x="694" d="M43 61q0 7 2 9q30 56 51 114q9 21 21 39q10 12 27.5 13.5t29.5 -7.5q9 -6 12 -18q4 -13 2 -21q-10 -30 -22 -57q7 -17 18 -20q50 -17 70 -19q63 -9 121 27q42 23 65 53q68 83 95 188q6 25 13 72.5t9 61.5q4 18 0 55q-2 10 -5 29t-5 28q-5 14 -8 19q-23 59 -70 106 q-46 43 -102 60q-16 5 -99 20q-10 4 -35 0q-48 -6 -49 -6h-14q-12 2 -23.5 14t-11.5 25q-2 10 -2 35q1 37 2 110t2 109q0 36 1 107t1 106q0 43 2 63q0 4 1 9t2.5 11t2.5 9q6 15 27 22q12 5 33 9q117 7 192 0q74 -6 148 -6q37 -3 71 -3q9 -2 18.5 -10.5t10.5 -17.5 q4 -8 4 -13q-1 0 -1 -64l1 -65q2 -10 -2 -34q-3 -22 -24 -31q-15 -6 -32 3t-18 24q-1 4 -2 13.5t-2 14.5q0 11 -1 35t-1 35q-4 8 -4 14q-2 5 -12 8q-2 0 -6 1t-6 1q-43 -2 -129 2q-38 3 -156 3q-2 -1 -6 -2.5t-6 -2.5q-8 -4 -8 -10q-5 -25 -5 -28v-113q0 -72 -4 -107 q-7 -88 -4 -155q0 -9 7 -16t16 -7q1 0 3.5 -1t4.5 -1h12q50 4 160 -29q42 -17 57 -28q77 -58 129 -141q17 -30 31 -78q2 -8 2 -21q5 -129 0 -170q-16 -171 -104 -291q-30 -41 -78 -82q-49 -43 -113 -55q-7 -1 -21.5 -4t-21.5 -4q-37 -4 -55 0q-83 14 -105 23l-18 6 q-5 0 -27 -11q-36 -15 -55 17q0 1 -1 3t-1 3q-5 10 -2 20z" />
<glyph unicode="6" horiz-adv-x="614" d="M45 451q11 145 12 149q21 165 97 420q16 51 75 190q16 44 35 80q10 21 31 61t31 60q18 34 59 21q12 -4 16 -15q8 -20 5 -31q-6 -22 -17 -38q-18 -29 -63 -131q-17 -38 -76 -181q-23 -57 -60 -198q-3 -9 2 -13t15 -2q1 0 3.5 1t4.5 1q77 30 159.5 -5.5t123.5 -108.5 q46 -75 63 -183q13 -72 10 -127q0 -107 -18 -180q-19 -97 -98 -176q-49 -49 -123 -49q-36 -2 -86 8q-86 23 -137 113q-33 56 -50 141q-22 113 -14 193zM131 520q-12 -100 2 -194q19 -101 47 -156q42 -77 125 -88q54 -6 92 35q54 54 72 125q17 71 20 157q-2 27 -10 90 q-13 92 -55 170q-31 58 -98 84q-41 13 -76 0q-88 -29 -107 -129q-3 -16 -6 -47t-6 -47z" />
<glyph unicode="7" horiz-adv-x="696" d="M43 20v15q0 10 7 20t16 13q32 8 49 8q10 0 14 2q19 3 25 22q2 5 5 14t5 13q25 75 92 266q5 15 68 217q17 59 79 256q74 231 99 326q6 22 17.5 65t17.5 64q3 9 -2.5 16.5t-16.5 10.5q-67 16 -133 4q-43 -6 -84 -6q-25 0 -72 -3.5t-55 -3.5q-22 -4 -22 -24v-64 q0 -20 -21 -34q-20 -9 -41 2q-13 10 -16 22q-2 4 -2 14q-4 64 -11 107v20q0 9 9 27t28 18q4 1 10 1t13.5 -0.5t11.5 -0.5q8 1 24.5 2.5t24.5 2.5q13 3 84 8q40 0 58 2q109 5 262 -2q8 0 28 -4q16 -4 25 -13q10 -6 12 -16q6 -16 2 -49q-1 -2 -2 -6t-2 -6q-9 -19 -33 -109 q-56 -205 -120 -408q-48 -148 -107 -337q-44 -143 -100 -302q-4 -15 -16.5 -48.5t-16.5 -51.5q-1 -4 3 -10t7 -6q8 -2 23 -2q6 -2 20 -2q23 -6 29 -29q3 -22 -14 -39q-3 -6 -13 -6q-75 -13 -104 -8q-37 6 -107 6h-28q-9 0 -18 8.5t-11 17.5z" />
<glyph unicode="8" horiz-adv-x="585" d="M43 385q7 177 68 289q33 64 77 98q10 7 10 10t-8 9q-42 31 -79 81q-21 32 -29 62q-14 68 -14 90q0 128 2 154q3 91 34 159q35 75 121 111q2 0 6.5 2t6.5 2q81 7 131 -8.5t96 -77.5q37 -54 49 -117q2 -10 6 -34.5t6 -37t5 -33t4 -37.5t0 -34q-1 -9 -4 -57.5t-7 -73.5 q-17 -110 -88 -160q-4 -4 -8 -4q-7 -7 -7.5 -11t5.5 -11q35 -28 61 -72q53 -89 56 -176q3 -93 0 -186q-3 -80 -45 -177q-13 -29 -35 -51q-23 -29 -64 -65q-24 -24 -61 -27q-53 -4 -82 0q-33 7 -59 21q-129 72 -148 225q-9 70 -6 137zM125 299q6 -68 35 -121q30 -62 106 -92 q42 -16 82 12q65 55 86 121q28 75 35 199q0 4 -3.5 31t-4.5 43q-5 82 -60 163q-32 46 -88 78q-4 4 -16 4q-68 -30 -92 -71q-44 -68 -62 -146q-25 -92 -18 -221zM143 1069q1 -11 4.5 -35t4.5 -37q3 -23 12 -43q28 -72 84 -98q11 -6 34.5 -14.5t32.5 -12.5q16 -7 43 5 q56 30 74 88q23 73 17 139q1 24 1.5 35t-2.5 35t-5 35t-6.5 35t-6.5 34q-9 39 -41 86q-21 36 -67.5 47.5t-88.5 -14.5q-39 -25 -53 -62q-37 -92 -37 -223z" />
<glyph unicode="9" horiz-adv-x="612" d="M43 1036q-3 92 18 181q25 107 119 188q36 28 80 31q65 4 109 -9q4 -2 19 -6.5t22 -9.5q71 -47 100 -104q28 -54 53 -179q10 -64 6 -157q-2 -53 -14 -146q-10 -87 -41.5 -220.5t-60.5 -215.5q-17 -46 -97 -231q-18 -46 -67 -135q-17 -33 -51 -27q-12 3 -21 11.5t-10 19.5 q0 10 4 30q2 10 12 25q83 154 154 350q12 31 28 93.5t19 72.5q2 8 -2 11.5t-10 0.5q-42 -17 -93 -14q-81 0 -145 55q-52 43 -80 111q-27 55 -45 151q-6 41 -6 123zM127 1061q-5 -60 8 -135q17 -90 55 -154q30 -52 76 -74q56 -27 101 -10q83 34 102 125q16 83 23 188 q-2 16 -6.5 49t-6.5 50q-9 81 -45 162q-35 75 -125 88q-50 11 -94 -33q-27 -30 -47 -66q-29 -59 -41 -190z" />
<glyph unicode=":" horiz-adv-x="204" d="M49 244q-13 38 0 65q15 27 45 27q42 0 53 -25q4 -6 7 -19.5t4 -15.5q1 -32 -24.5 -48.5t-55.5 -10.5q-22 6 -29 27zM55 983q-17 34 2 70q13 20 37 20h15q55 0 55 -61v-19q-3 -26 -25 -35q-59 -21 -84 25z" />
<glyph unicode=";" horiz-adv-x="206" d="M41 162l37 119q7 23 22 36q18 12 39 5q23 -10 23 -33q-12 -61 -39 -139q-5 -14 -8 -17q-15 -27 -47 -20q-27 7 -27 49zM43.5 1007q2.5 26 13.5 40q26 26 66 14q41 -16 41 -55v-9q6 -46 -39 -59q-20 -6 -42 2t-32 25q-10 16 -7.5 42z" />
<glyph unicode="&#x3c;" horiz-adv-x="454" d="M43 745q-4 40 33 48q23 6 90 41l20 10q7 4 21.5 13t21.5 13q83 50 101 64q25 16 53 12q25 0 31 -31q0 -28 -23 -43q-97 -56 -143 -73q-38 -17 -57 -28.5t-15 -18.5q11 -19 79 -42.5t87 -35.5q4 -2 17.5 -10t21.5 -11l14 -8q20 -12 17 -37q0 -28 -33 -28h-2q-16 -2 -25 2 q-2 0 -5.5 1t-4.5 1q-13 8 -24.5 13t-14.5 7l-12 6q-53 27 -96 47q-1 0 -21.5 8t-28.5 13q-7 3 -23.5 10t-23.5 10t-19.5 10t-17.5 9q-15 12 -18 28z" />
<glyph unicode="=" horiz-adv-x="454" d="M41 641q0 39 35 45q6 2 18 2h74q28 4 55 4h158q19 -3 26.5 -12.5t4.5 -30.5q-1 -18 -9 -24.5t-26 -6.5h-58q-18 3 -45 -2h2q-10 -2 -34 -2q-28 0 -68 -4h-96q-19 0 -26.5 7.5t-10.5 23.5zM47 754q0 39 39 39q26 0 84 4q6 0 18.5 1t18.5 1q62 4 100 4q28 0 74 -4 q11 -2 20.5 -10.5t10.5 -18.5q6 -37 -29 -43l2 2q-10 -4 -23 -4h-126q-4 0 -11.5 -1t-11.5 -1q-8 0 -16 -2q-40 -4 -72 -4q-5 0 -16.5 -1t-16.5 -1q-8 0 -14 2q-31 3 -31 37z" />
<glyph unicode="&#x3e;" horiz-adv-x="454" d="M41 915q6 31 31 31q28 4 53 -12q22 -17 100 -64q7 -4 21.5 -13t21.5 -13q19 -10 21 -10q67 -35 90 -41q37 -8 33 -48q-3 -15 -19 -28q-5 -2 -17.5 -9t-19.5 -10t-23.5 -10t-23.5 -10l-49 -21q-43 -20 -96 -47l-12 -6q-3 -2 -14.5 -7t-24.5 -13q-1 0 -5 -1t-6 -1 q-8 -4 -24 -2h-2q-33 0 -33 28q-3 25 16 37l15 8q8 3 21.5 11t17.5 10q19 12 87 35.5t79 42.5q4 7 -15 18.5t-57 28.5q-48 18 -144 73q-22 15 -22 43z" />
<glyph unicode="?" horiz-adv-x="477" d="M43 1087v11q4 45 12 139q4 32 4 49q9 98 95 150q66 39 147 14q15 -4 21 -10q88 -65 104 -154q10 -52 10 -94q-1 -10 -1 -22t0.5 -26t0.5 -22q-5 -120 -8 -143q-1 -8 -3 -44.5t-7 -55.5q-3 -12 -8.5 -33.5t-8.5 -32.5q-8 -42 -45 -74l-30 -24q-51 -37 -64 -109 q-11 -61 -8 -108v-113q0 -25 -22 -36.5t-44 1.5q-18 9 -18 29v22q0 16 -0.5 47t-0.5 56t1 47q4 61 10 96q13 63 56 103q35 35 53 49q22 19 28 45q23 81 25 133q11 163 10 186q-4 58 -10 90q-14 46 -20 60q-12 18 -29 35q-25 25 -56.5 24t-56.5 -26q-31 -28 -37 -68 q-2 -14 -5 -40t-5 -40q-2 -35 -10 -100q0 -7 -4 -23q-8 -24 -37 -24q-22 0 -30.5 8t-8.5 28zM172 86q1 13 15 23t32 12q39 0 55 -27q15 -30 -2 -61q-10 -20 -32 -23h-2h-5q-36 0 -49 13q-20 18 -12 63z" />
<glyph unicode="@" horiz-adv-x="1370" d="M41 717v41q0 79 35 219q13 50 43 104q80 141 180 230q103 86 238 129q100 31 225 18q41 -2 115 -26q101 -28 163 -66q81 -45 129 -106q56 -64 60 -70q67 -87 86 -178v-4q1 -14 4 -39t5 -45.5t3 -38.5q4 -83 -31 -232q-24 -97 -92 -198q-13 -21 -37 -45q-65 -73 -176 -60 q-35 5 -41 6q-55 15 -92 58q-11 11 -22 0l-29 -29q-46 -40 -105 -53q-51 -11 -108 2q-97 17 -152 106q-38 60 -55 144q-11 68 -4 153q6 122 49 221q33 67 84 107q57 41 117 41q78 -5 82 -6q53 -7 114 -51q3 -2 9.5 -7.5t9.5 -7.5q9 -8 12 -6.5t6 14.5q0 1 2 11.5t4 15.5 q4 13 16.5 20.5t26.5 4.5q12 -2 21.5 -12t9.5 -23q0 -88 -4 -131q-2 -41 -14 -123q-2 -25 -10 -80q-5 -59 -15 -127q-5 -42 8 -90q13 -49 60 -64q47 -14 79.5 -4.5t61.5 45.5q49 57 76 129q53 137 53 248q0 173 -90 279q-3 3 -27 33t-39 45q-44 44 -86 67q-61 34 -155 62 q-79 20 -92 22q-42 8 -90 2q-12 -4 -19 -4q-40 0 -117 -29q-141 -60 -215 -143q-82 -94 -135 -209q-8 -15 -16 -53q-40 -144 -33 -250q12 -232 154 -401q21 -27 67 -60q118 -79 193 -100q97 -26 110 -29q17 -3 53.5 -8t53.5 -8q36 -5 116 12q115 21 238 103q25 17 59 10 q10 0 19 -13q6 -10 4.5 -28t-8.5 -27q-12 -12 -33 -26q-102 -69 -217 -99q-92 -22 -199 -16q-5 0 -53 6q-7 1 -48 8t-56 10t-44 10.5t-51 16.5q-2 1 -79 35q-88 46 -154 104q-58 49 -119 150q-59 99 -82 233q-5 22 -6.5 45t-2.5 59.5t-1 45.5zM465 672q6 -36 6 -49 q8 -66 49 -136q36 -59 135 -73q9 0 21 4q93 27 137 131l6 24q0 47 6 97q2 34 12 97t13 91q4 35 -12 49q-4 4 -11.5 14.5t-11.5 14.5q-38 50 -94 70q-54 20 -84 14q-66 -13 -100 -66q-31 -56 -37 -75q-24 -68 -35 -207z" />
<glyph unicode="A" horiz-adv-x="839" d="M20 33v6q5 33 37 37q7 2 21.5 3t21.5 3q11 0 17 12l4 12t4 15q7 39 14 69q11 56 13 62q2 15 9.5 50t8.5 54q2 15 9 44.5t9 45.5q36 174 50 236q10 64 14 76q4 32 17.5 88t17.5 78q1 2 24 110q3 11 37 174l9 40.5t10 49.5q1 3 1 10.5t1 10.5q0 8 -5.5 13.5t-11.5 4.5 q-7 -1 -21.5 -3t-21.5 -3q-8 0 -20 6q-21 11 -21 33q-2 15 7 27.5t22 13.5q22 5 62.5 13t50.5 10h6q14 2 30.5 -8t20.5 -23q11 -27 14 -47q1 -13 11 -56q0 -3 8 -40.5t10 -57.5q2 -16 8 -45.5t8 -44.5q1 -16 7 -44.5t8 -39.5q2 -15 7 -44.5t7 -45.5q1 -10 7 -39t7 -45 q6 -23 37 -172q6 -31 20.5 -88t20.5 -84q15 -65 46.5 -189t45.5 -182q1 -7 6.5 -19t6.5 -16q7 -10 16 -10h37q14 0 24.5 -11t10.5 -26q0 -22 -21 -34q-18 -11 -33 -11q-89 -3 -139 -3q-30 0 -45 1q-8 0 -12 2q-8 4 -12 8q-13 10 -13 25q-1 15 7 27.5t22 15.5q8 1 24.5 3 t24.5 3l6 12q2 2 2 7q-51 200 -59 227q-2 4 -10 8q-16 4 -21 4q-90 0 -139 2q-76 0 -117 -2q-19 0 -29 -2q-6 0 -12 -6t-6 -12q-14 -86 -43 -215q0 -9 -2 -15q0 -14 14 -22q1 0 6 -2t7 -4q13 -9 16 -26t-6 -30q-3 -7 -10 -10q-10 -10 -25 -10q-27 0 -79 -1t-77 -1 q-13 0 -24.5 11t-14.5 26zM287 465q-3 -9 6 -12q1 0 2 -2t2 -2q3 0 7.5 -1.5t6.5 -1.5q63 -3 136 -3q44 0 92 1q2 0 12 5q8 3 8 10q-3 35 -12 63q0 1 -10 41.5t-15 61.5q-22 106 -28 145q-2 11 -8 42.5t-9 47.5q-5 20 -10 59.5t-10 59.5q-1 24 -10 66.5t-11 52.5l-2 6h-6 q-8 -5 -12 -17q-5 -25 -15.5 -72.5t-15.5 -72.5q-5 -27 -17 -80.5t-16 -77.5q-6 -26 -14.5 -70t-13.5 -63q-31 -150 -37 -172v-14z" />
<glyph unicode="B" horiz-adv-x="624" d="M45 1409q5 10 21 18q30 11 49 9q31 -3 55 2q10 0 14 -2q51 -6 107 -9q135 -26 188 -133q25 -51 39 -98q14 -43 19 -76q1 -15 4.5 -40.5t5.5 -46.5t2 -40q0 -58 -14 -104q-12 -54 -52 -101q-8 -12 -28 -32q-5 -5 -13 -17q6 -6 9 -12q4 -3 11 -9t11 -9q52 -42 88 -134 q2 -13 10 -40t9 -43q4 -46 3.5 -85t-3.5 -71q-9 -66 -37 -129q-41 -84 -125 -131q-50 -30 -131 -51q-14 -5 -35 -9q-16 -4 -27 -4h-106q-25 0 -35 2q-14 0 -25 15q-19 21 -4 45q11 18 27 18q8 1 24.5 2t24.5 2q6 0 12.5 6.5t6.5 12.5q0 2 1 7t1 7v29q3 186 3 372t-3 371 q0 44 -5 78q-4 20 -4 63q-2 27 -2 78q0 2 -2 27t-4 37q-3 22 -8 121q0 10 -4 34q0 3 -5 8t-9 5q-6 1 -18 1t-17 1q-20 4 -28 21.5t-1 33.5zM216 1313q0 -2 1 -4q3 -20 8 -113q4 -86 8 -127q1 -11 2.5 -34.5t2.5 -35.5v-75q0 -13 1 -50.5t1 -58.5q2 -14 7 -20t19 -7 q12 -4 21 -4q4 -2 14 -2q37 4 59 21q3 2 8.5 6t8.5 6q76 67 76 161v7v64q-1 7 -3.5 21.5t-3.5 21.5q-3 20 -8 34q-16 68 -45 125q-5 14 -14 25q-8 14 -25 24q-37 30 -96 43q-25 0 -29 -2q-12 -4 -12 -16q0 -1 -0.5 -3t-0.5 -3.5v-3.5zM240 156q0 -19 2 -27q0 -9 6 -12 q4 -4 12 -4q33 9 86 32q5 2 27 13q68 43 94 110q3 12 6 21q18 60 21 82q2 21 2 42q0 76 -31 152q-23 57 -78 88q-54 32 -108 35q-6 2 -21 -2q-3 0 -8.5 -4.5t-5.5 -7.5q0 -6 -1 -18.5t-1 -18.5v-240h-2v-121v-120z" />
<glyph unicode="C" horiz-adv-x="612" d="M43 621q-2 69 -1.5 138t1.5 138q5 81 8 98q1 6 2 18.5t2 18.5q0 53 17 119q24 121 104 213q7 10 21 20q23 23 53 35q20 8 33 8q41 4 80 4q20 0 40 -1q15 -3 27 -9q32 -13 72 -32q3 1 10 3t10 3q21 5 39 -13q15 -15 8 -41l-6 -12q-21 -33 -39 -90q-2 -5 -7 -16.5t-7 -16.5 q-4 -10 -17 -14.5t-26 -1.5q-12 3 -20.5 13t-8.5 22q0 14 2 20q0 2 11 35q7 20 -11 31q-20 13 -57 28q-3 1 -10.5 2t-10.5 2h-34q-42 -3 -64 -28q-21 -18 -35 -37q-61 -82 -73 -188q-1 -2 -1 -7t-1 -8q-13 -54 -17 -182q-1 -9 -1 -28.5t-1 -28.5q-5 -43 -5 -94.5t5 -110.5 l6 -99q0 -55 11 -98q1 -5 2 -14t2 -14q8 -122 82 -246q2 -3 6 -9.5t6 -9.5q21 -33 69 -43h15q50 3 86 29q6 3 39 31q15 10 41 10q19 -1 29.5 -18t5.5 -33q-3 -21 -19 -37q-46 -46 -117 -68q-6 -2 -20 -2q-23 -3 -46 -3l-46 3q-43 6 -70 31q-48 36 -74 86q-45 80 -67 178 q-2 9 -5 27.5t-5 27.5q-8 38 -11 84q0 25 -2 35q-5 31 -10 142z" />
<glyph unicode="D" horiz-adv-x="739" d="M41 45v8q0 10 10 22.5t19 14.5q4 1 13.5 2t14.5 2q23 0 35 4q3 2 8 11q4 4 4 12v72v899q0 132 9 213q0 3 -1 10t-1 10q0 4 -4 10t-7 6q-4 1 -11 2.5t-11 2.5q-22 3 -29 26q-6 14 1 29.5t24 21.5q12 4 20 4q42 5 49 7q47 8 142 8q49 0 112 -17q58 -12 99 -51 q49 -38 77 -98q30 -65 41 -121q17 -80 19 -113q0 -20 6 -41q6 -30 6 -63q1 -5 2 -14.5t2 -14.5l8 -233q0 -65 -6 -98q-2 -23 -10 -70t-10 -70q-27 -134 -41 -172q-4 -18 -17 -47q-52 -111 -163 -160q-22 -11 -54 -18q-10 -2 -36 -6.5t-45 -7t-37 -2.5q-23 -2 -64 -2 q-50 -4 -63 -7q-23 -6 -72 -6q-12 2 -23.5 12t-15.5 23zM231 1012q2 -27 2 -84v-234v-452v-92q0 -4 1.5 -11t1.5 -10q0 -7 6 -12.5t12 -5.5q15 2 46 6t46 6q2 1 6 2t6 2q57 20 84 37q52 32 78 82q38 74 53 160q4 30 23 131q0 5 3 28t3 35q4 78 4 115q0 15 -0.5 50t-1.5 55 t-2 49.5t-4 55t-8 50.5q0 3 -1 10t-1 10q-1 22 -8 60t-9 53q-3 11 -12 43.5t-16 50.5q-20 44 -43 74q-19 26 -47 41q-10 6 -52 22q-20 7 -34 9q-16 1 -31 1q-40 0 -76 -6q-8 0 -14 -12q-1 -9 -4.5 -33t-3.5 -38q-8 -150 -8 -216q0 -20 1 -32z" />
<glyph unicode="E" horiz-adv-x="663" d="M47 70q5 15 25 22q4 2 14 2q8 2 27 2q4 0 9 5t5 10q2 2 2 6q5 128 8 155v37q0 3 6 948v64q0 8 -8 20q-6 1 -17.5 2.5t-17.5 2.5q-21 3 -28 26q-5 19 5 34.5t29 18.5q12 1 35 4.5t35 4.5q21 3 43 0q25 -4 113 -4q2 0 7 1t7 1q33 10 98 10q66 0 99 4q4 0 11 -1t11 -1 q13 0 24.5 -9.5t16.5 -23.5q0 -2 1 -7t1 -7q6 -37 6 -78v-14q-2 -19 -17 -29t-34 -4q-18 6 -24 24q-2 6 -4.5 20t-4.5 21q0 6 -10 11q-4 4 -12 4h-29q-17 0 -49 -4q-83 -7 -125 -7h-16h-35q-9 0 -17 -6.5t-8 -13.5q0 -5 -1 -15t-1 -14v-469q0 -18 2 -26q2 -4 7 -9.5t8 -5.5 q1 0 3.5 -1t4.5 -1q127 0 168 6q19 2 55.5 3t44.5 2q3 0 9 4.5t8 7.5q0 2 1 6t1 6q1 4 2 11t2 10q9 18 26 24q30 10 47 -20q5 -10 5 -13q3 -11 0 -22q-1 -23 -4.5 -67t-4.5 -66q-1 -4 -2 -11.5t-2 -11.5q-5 -14 -20 -22.5t-31 -1.5q-21 9 -27 30q-1 5 -2 14.5t-2 14.5 q0 7 -14 14h-6q-59 -8 -219 -8q-36 0 -43 -2q-3 0 -9 -5.5t-6 -8.5q0 -2 -1 -7t-1 -8v-63q0 -46 -1 -138.5t-1 -138.5q0 -94 -6 -141q-4 -33 0 -49q2 -6 7.5 -12t11.5 -6q4 0 11 -1t11 -1q37 -1 112 -2.5t113 -2.5h23q4 0 6.5 1.5t6 5t5.5 4.5q9 35 9 69q1 3 2 10.5t2 10.5 q1 13 14 23t27 8q12 -1 21 -11t11 -22q2 -8 2 -29q0 -76 -2 -113q0 -10 -2 -14q-4 -14 -14 -22q-15 -11 -27 -11q-43 -3 -80 -3q-47 0 -81 5q-31 4 -142 4q-4 0 -11 -1t-11 -1q-19 -4 -41.5 -5.5t-37.5 -1.5t-43 0.5t-40 0.5q-17 3 -31 17q-14 17 -4 41z" />
<glyph unicode="F" horiz-adv-x="663" d="M41.5 1373.5q-1.5 19.5 13.5 33.5q2 1 6.5 3t6.5 3q4 2 14 2q103 15 170 15h197q52 0 77 8q29 6 58 0q7 0 24 -13q13 -10 13 -24t1 -39.5t1 -47t-2 -40.5q0 -13 -12 -23t-27 -10q-14 0 -27 10t-14 23q0 19 -4 55q0 5 -9 10q-2 2 -6 2h-248q-14 0 -20 -2q-7 -3 -10 -10 q-4 -8 -4 -14q4 -286 4 -432q0 -8 1 -24.5t1 -24.5q0 -3 1 -10.5t1 -10.5q3 -22 24 -22q3 0 10 -1.5t11 -1.5h190q9 0 29 5q10 0 10 6q2 6 4 18t4 17q4 15 17 22t28 4q12 -1 21.5 -10.5t11.5 -20.5v-8v-121q0 -23 -22 -32q-22 -11 -41 4q-3 3 -9.5 9t-9.5 9q-8 8 -20 8 q-31 2 -92 2h-113q-9 0 -29 -4q-6 0 -12 -6t-6 -12v-41l2 -504q0 -6 1 -18t1 -17q5 -14 16 -14q4 -1 13.5 -2t13.5 -2q21 -3 31 -27q6 -13 0 -26q-14 -27 -39 -27q-29 -1 -88.5 -3t-89.5 -3q-4 0 -6 2q-19 3 -27 20q-8 14 -1.5 31.5t19.5 22.5q4 1 13.5 3t13.5 3q28 6 29 6 q8 4 8 10q4 16 4 27v235q0 6 -1 20t-1 21q0 12 -1 33t-1 31v121q0 90 -4 135q-4 86 -4 127q-2 125 -2 377q0 13 -1 41t-1 43l-5 20q-1 6 -8.5 11t-13.5 5q-6 -1 -17.5 -2t-17.5 -2q-16 -3 -33 11q-14 8 -15.5 27.5z" />
<glyph unicode="G" horiz-adv-x="681" d="M42 636v25q0 31 1 84q0 80 2 119q0 68 6 101q0 4 1 13t1 13q0 59 19 148q12 69 39 137q28 61 71 104q40 37 92 52q33 8 60 8h10q16 -1 44.5 -7t39.5 -8q40 -20 59 -39q46 -46 64 -83q3 -5 8 -15.5t8 -15.5q9 -13 15 -15q4 -4 6 -4q17 -16 17 -32q0 -14 -15 -29 q-3 -3 -39 -33q-12 -8 -37.5 -25.5t-38.5 -25.5q-14 -9 -31 -5.5t-26 17.5q-6 9 -5.5 23.5t7.5 23.5q2 1 5 4.5t5 4.5q5 4 14.5 11t14.5 11q19 12 20 23t-8 30q-4 11 -27 43q-22 29 -55 43q-8 4 -12 4q-21 5 -40 5t-38 -5q-29 -9 -47 -28q-15 -15 -19 -23q-30 -37 -49 -94 q-2 -7 -6.5 -21.5t-7 -25.5t-2.5 -21q-1 -3 -18 -104q-7 -44 -7 -72q0 -9 -1 -27.5t-1 -27.5q-5 -75 -5 -162t5 -186q0 -37 9 -78q1 -4 2 -13.5t2 -13.5q0 -24 14 -120q9 -56 31 -115q8 -27 28 -57q30 -49 76 -60q2 -1 9 -4t12 -4q13 -2 25 -2q28 0 50 12q50 29 70 76 q36 73 39 149q6 150 6 299q0 9 -4 21q-2 4 -10 8q-8 2 -23 2q-20 2 -63 2h-21q-41 8 -41 44q0 20 13 33q11 12 28 13q4 2 15 2q79 0 120 2q36 0 84 -10q17 -5 24.5 -22.5t-1.5 -34.5q-4 -6 -14 -16q-9 -7 -13 -25v-14q0 -86 -2 -127v-72q0 -80 -6 -121q-4 -24 -4 -41 q-5 -54 -29 -117q-35 -78 -102 -122q-42 -29 -84 -29h-8q-47 0 -72 2q-37 0 -80 24q-70 45 -108 136q-11 31 -27 96q-6 23 -14 76q-8 50 -13 69q0 4 -1 11.5t-1 11.5q-2 30 -8 108t-7 108z" />
<glyph unicode="H" horiz-adv-x="786" d="M43 1401q3 18 23 24q38 13 61 15q63 8 98 14q9 0 15 -2q21 -3 30 -25q6 -22 -6 -41q-4 -4 -12 -8q-9 -4 -27 -8q-10 -6 -12 -16q-2 -4 -2 -15l-1 -46q0 -46 1 -46q6 -144 6 -289v-86q0 -10 8 -26q2 -3 11 -8q16 -4 22 -4h156h121q17 0 40 10q15 8 15 22q2 12 2 35v369 q0 51 -4 78q-2 6 -7.5 12t-11.5 6q-8 -2 -20 -2q-32 -3 -45 29q-6 11 2 26q5 10 8 13q6 6 10 8q50 12 76 14q14 1 42.5 3t43.5 3q19 0 27 -4q18 -6 24 -24q6 -23 -10 -39q-1 -1 -5 -4.5t-7 -4.5q-12 -3 -27 -6q-3 -2 -7.5 -7.5t-4.5 -8.5q4 -64 4 -291v-262q1 -76 1 -178 q0 -204 -3 -510v-21q0 -17 5 -23t22 -9q12 -4 14 -5l12 -6q15 -18 12 -39q-9 -27 -36 -30q-14 -4 -50 -4h-112q-27 0 -37 28q-3 11 3 26t19 21l21 7q3 0 10 1t10 1q5 2 10 7t5 9q0 2 1 6t1 6v23q0 40 4 214q4 142 4 231v36q0 19 -1 57t-1 56q-4 16 -4 22q-13 13 -17 13 q-3 0 -10 1t-10 1q-85 -3 -183 -3q-59 0 -122 1q-21 0 -21 -23q0 -2 -1 -6.5t-1 -7.5v-35v-262h2v-277q0 -25 2 -35q0 -12 11 -16q3 -2 10 -4t10 -4q20 -10 23 -33q0 -21 -21 -35q-14 -8 -33 -12q-8 -2 -22 -2q-77 -4 -113 -10q-16 0 -33 10q-14 9 -16 26t8 31q15 10 19 10 q6 2 22.5 5.5t24.5 5.5q14 3 18 20v15v20l1 255q0 255 -1 255q0 27 -1 79t-1 77q-1 27 -2 81.5t-2 81.5q0 27 -1 81.5t-1 82.5q-1 22 -4 66.5t-4 66.5q0 28 -4 78q0 6 -4 10.5t-9 4.5h-14h-14q-19 3 -29 17t-4 36z" />
<glyph unicode="I" horiz-adv-x="339" d="M43 1423q3 24 25 31q46 14 75 16q16 1 64 11q46 5 57 4q20 -3 29 -19q9 -15 3.5 -34t-22.5 -25q-8 -4 -14 -4q-3 -1 -10 -2t-10 -2q-3 0 -8 -6t-5 -9q-2 -8 -2 -22v-64v-1069q0 -100 -4 -149q0 -3 4.5 -8t10.5 -6q24 -6 26 -7q20 -7 23 -28.5t-11 -36.5q-7 -7 -18 -10 q-36 -4 -55 -4q-20 0 -57.5 1t-55.5 1q-15 0 -26 10.5t-11 25.5q0 24 19 35q6 4 18 8q5 1 14.5 3.5t14.5 3.5q3 0 7.5 5t4.5 9q0 6 1 18t1 17v141l10 524v518q0 47 -2 70q0 4 -4.5 8t-9.5 4t-11 -1t-13 -2.5t-11 -2.5q-19 -3 -35 10.5t-12 36.5z" />
<glyph unicode="J" horiz-adv-x="575" d="M45 145q-4 10 0 27q7 19 26.5 25.5t32.5 -0.5q12 -8 17 -13q13 -13 22 -28q27 -35 68 -50q6 -1 15 -4l12 -4q33 -7 55 4q2 1 9 5t9 6q20 12 25 26q27 70 31 115q12 111 16 332q2 92 2 276q0 82 -2 121q0 62 -4 184v58q0 59 -14 141q0 2 -1.5 3.5t-3.5 4t-4 4.5 q-5 -1 -16.5 -2t-17.5 -2q-11 0 -27 8q-13 8 -16 31q0 21 12 31q2 4 10 8t14 4q7 1 21.5 3t21.5 3q27 6 56 6q15 0 43 1t41 1q20 0 32 -24q4 -9 2 -21t-8 -18q-11 -11 -24 -16q-20 -4 -35 -9q-3 0 -8 -10q-3 -10 0 -20q8 -51 8 -156q0 -62 4 -184q4 -66 4 -99v-348 q0 -104 -4 -155q-4 -40 -4 -64q0 -77 -16 -162q-8 -42 -31 -94q-11 -19 -31 -39q-36 -36 -88 -39q-20 -2 -63 -2q-49 0 -107 35q-27 17 -45 35q-32 32 -39 65z" />
<glyph unicode="K" horiz-adv-x="845" d="M42 27q-1 16 15 32q12 6 15 7q9 1 27.5 2t27.5 2q7 3 10 10q2 4 2 14q2 20 2 64v587v193q0 74 6 113q0 6 1.5 17t1.5 17q2 88 2 263q0 7 -11 18q-28 6 -35 8q-16 6 -22 25q-4 17 4 31.5t23 17.5q16 4 22 4q37 4 119 8q3 0 7.5 -1t6.5 -1q10 -1 18.5 -9t10.5 -17 q3 -12 0 -21q-3 -17 -14 -22q-5 -2 -27 -13q-14 -6 -14 -22q0 -23 -2 -35v-135q0 -116 -7 -277q-2 -27 -2 -84q0 -3 1.5 -6.5t3 -7.5t2.5 -6q3 -8 10 -8q28 -5 55 0q8 2 18 12q1 1 2.5 2t2.5 2q97 153 143 260q91 208 121 281q2 2 6 20q3 7 -6 10q-13 8 -31 15 q-18 9 -20.5 29t10.5 32q4 6 16 10q2 2 8 2q109 0 162 -2q22 0 35 -20q14 -20 0 -41q-15 -17 -43 -21q-8 0 -16 -12q-1 0 -2 -3q-1 -2 -2 -3q-2 -4 -17 -39q-134 -304 -137 -311q-18 -43 -64 -125q-10 -16 -29.5 -49t-29.5 -49q-2 -5 -7 -15.5t-7 -15.5q-4 -7 0 -14 q12 -29 14 -33q20 -38 59 -113q66 -125 105 -239l24 -60q24 -57 91 -199q8 -15 24 -12q9 0 21 4h14q22 0 35 -20q10 -20 -4 -41q-2 -1 -5.5 -4t-5.5 -4q-15 -10 -18 -11q-116 -39 -143 -45q-16 -2 -39 13q0 2 -4 6q-9 15 -4.5 32t16.5 25l12 6q10 7 4 19q-1 6 -4 14.5 t-4 11.5q-10 22 -30.5 65t-30.5 64q-21 49 -39 99q-27 85 -78 182q-41 84 -82 164q-1 2 -4 6t-4 6q-6 13 -23 16q-29 3 -63 -4q-5 -2 -11.5 -8t-7.5 -12q0 -3 -1 -10.5t-1 -10.5v-43q0 -317 2 -475q0 -33 2 -49q0 -17 17 -20q4 -1 13 -3.5t13 -3.5q11 -1 20 -13.5t7 -22.5 q-3 -32 -35 -39q-4 -2 -14 -2h-164q-19 0 -31 12q-14 13 -15 29z" />
<glyph unicode="L" horiz-adv-x="673" d="M42 1417q-1 17 15 33q2 1 6.5 3t6.5 3q86 12 170 12q17 -3 30 -16q12 -13 9.5 -31.5t-19.5 -27.5q-7 -5 -20 -9q-14 -3 -18.5 -9t-4.5 -19v-99q0 -68 4 -204v-23q-3 -30 -3 -62q0 -10 -1 -22q0 -24 1 -53q1 -44 1 -62q0 -64 4 -190q2 -63 2 -383q0 -12 -1 -38t-1 -40v-49 q0 -27 25 -29q40 -4 63 -6q12 0 38 -1t40 -1q21 0 63 1t64 1q7 0 19 8q3 12 9 34t9 34q5 22 27 31q4 2 14 2q13 0 26 -13.5t13 -29.5v-6q-4 -19 -11.5 -57t-11.5 -56q0 -4 -4 -12q-7 -14 -20 -19q-12 -4 -35 -4h-156q-9 0 -28.5 1t-28.5 1q-31 1 -59 1q-48 0 -89 -3 q-21 -1 -40 -1q-32 0 -60 3q-12 4 -18 10q-18 21 -11.5 41t27.5 27q13 4 35 8q7 0 14 15v8q0 4 1 13t1 13v377q0 94 -8 170q-2 25 -2 78q0 359 -2 539q0 37 -2 55q0 4 -8 12h-35q-12 3 -25 13q-14 11 -15 28z" />
<glyph unicode="M" horiz-adv-x="1087" d="M43 37q3 24 25 33q6 2 17 5t17 5q22 6 25 29q4 24 4 34q0 23 6.5 64t7.5 49q5 80 9 106q2 10 3 22t1.5 26t1.5 22q4 60 8 92q1 15 3 45.5t3 46.5v70q0 31 4 43q3 13 4 27t1 31.5t1 27.5q0 65 4 205q0 50 9 106q0 1 6 41q1 7 2 21.5t2 21.5q10 46 10 113q0 17 -14 20 q-8 0 -24.5 1.5t-24.5 1.5q-11 2 -22.5 12t-12.5 20q-4 29 20 43q8 4 13 4q30 3 57 3q37 0 72 -5q11 0 24 -10q4 -4 8 -12q1 -5 6.5 -21.5t6.5 -25.5q2 -12 15 -70.5t17 -89.5q6 -24 23.5 -101.5t28.5 -119.5q2 -7 18 -84q2 -9 7.5 -47t10.5 -58q8 -33 20 -95t15 -77 q1 -4 6.5 -36t10.5 -48q0 -16 2.5 -32.5t7 -39l6.5 -32.5q12 -58 33 -139q1 1 2.5 2t2.5 2t1 2l12 24q19 68 33 131q9 40 26.5 121t26.5 121q6 28 23 107t26 123q2 11 4.5 23t6.5 27t6 25q7 43 14 68q5 17 11.5 49.5t11.5 48.5q19 92 39 172q4 15 8 49q12 36 14 39 q11 18 29 21h43q43 0 63 -2q13 0 23 -11.5t12 -25.5q1 -15 -8 -28t-21 -15q-7 -1 -21.5 -2t-21.5 -2q-4 0 -9 -5t-5 -10q0 -2 -1 -6.5t-1 -7.5q0 -82 8 -147q4 -54 4 -78q4 -64 11 -107q4 -18 4 -55q2 -26 5 -78t5 -78q6 -84 6 -133v-22q0 -47 2 -72q0 -17 4 -49 q6 -37 6 -72q0 -20 1 -62.5t1 -64.5q3 -61 9 -121q4 -34 8 -98q0 -14 18 -18q4 -1 13.5 -2t13.5 -2q13 -3 22 -17.5t6 -28.5q-9 -31 -38 -34q-72 0 -107 2q-53 0 -63 -2q-14 -2 -27.5 6.5t-17.5 21.5q-7 14 0 27q9 21 30 27q7 1 21.5 3t21.5 3q3 0 8 5.5t5 8.5v8 q-6 58 -11 170t-6 127q-2 38 -5 114t-5 114q-8 140 -10 210q0 29 -4 43q-7 48 -11 119q-3 9 -6 8q-4 0 -4 -6q-9 -33 -31 -131q-20 -79 -39 -172q-21 -112 -32 -160q-41 -176 -43 -186q-1 -4 -3 -13.5t-3 -13.5q-26 -79 -50 -184q-3 -13 -9 -38.5t-9 -37.5q-2 -10 -10 -26 q-5 -10 -8 -13q-17 -17 -46 -10q-19 3 -28 21q-9 21 -17 59q-6 31 -19 94.5t-19 94.5q-13 56 -21 104q-2 10 -6 30.5t-6 30.5l-6 25q-6 25 -7 39q-2 10 -6 30.5t-6 30.5q-5 22 -11 65.5t-7 47.5q-8 48 -21 104q-6 29 -18.5 90.5t-18.5 90.5q-4 25 -16 75q0 3 -4 7q0 2 -4 2 q-6 0 -6 -2q-6 -12 -6 -13q-5 -25 -5 -28q0 -14 -1 -39t-1 -39q0 -12 0.5 -33.5t0.5 -39.5t-1 -34q0 -61 -4 -92q-10 -85 -10 -205q-4 -60 -8 -92q-2 -17 -4 -49.5t-2 -34.5q-1 -13 -3 -35.5t-3 -35.5q-6 -47 -9 -84q-1 -12 -5.5 -40t-4.5 -44q0 -5 3.5 -11t6.5 -6 q6 -2 15 -2q4 -1 10.5 -2t9.5 -2q19 -3 29 -20q14 -20 -2 -39q-8 -15 -29 -19q-7 -1 -21 -2t-20 -2q-25 0 -37 -4q-18 -3 -104 -8q-17 0 -28 13t-9 30z" />
<glyph unicode="N" horiz-adv-x="894" d="M43 1372q-3 11 3.5 24t16.5 17q5 3 19 8q5 1 14.5 3t14.5 3q42 2 104 13q14 0 27 -10q15 -9 22 -27q14 -27 17 -39q35 -96 43 -121q4 -12 12 -36.5t12 -37.5q12 -32 44 -121t52 -137q32 -87 94.5 -245t84.5 -215q11 -33 28 -66q2 -7 8 -10q5 0 5 6q14 63 14 133 q4 246 4 326q4 80 5 150q0 35 1 77q0 43 -1 93q-1 100 -1 120q0 36 -6 70q-3 17 -18 20q-19 0 -27 2q-29 3 -35 31q-2 4 -2 14q8 31 39 35q10 2 29 2q94 0 141 -2q10 0 14 -2q23 -7 29 -27q5 -12 0.5 -25.5t-14.5 -19.5q-9 -6 -19 -6q-28 -6 -29 -6q-3 0 -8 -10 q-4 -8 -4 -13v-57v-426q0 -145 -6 -219q0 -5 -1 -14.5t-1 -14.5q0 -35 -1 -73.5t-2.5 -86t-2.5 -73.5q-2 -61 -2 -184q0 -15 2 -46t2 -47q3 -24 0 -49q0 -21 -21 -35q-21 -9 -41 0q-15 9 -24 27q-1 4 -5 12.5t-5 12.5q-19 55 -109 278q-3 7 -23.5 58t-31.5 79q-3 7 -19 48.5 t-24 64.5q-10 30 -32.5 84.5t-29.5 73.5q-49 118 -106 284q0 3 -1.5 5t-3.5 2.5t-3 -0.5q-4 0 -4 -7q-2 -4 -2 -12q-3 -21 -3 -43q0 -29 1.5 -89t1.5 -89v-205q-5 -135 -7 -164q-5 -95 -5 -216q0 -52 1 -109q0 -19 19 -25q4 -1 11 -2t11 -2q2 -1 6.5 -3t6.5 -3 q16 -9 16.5 -31t-12.5 -29q-6 -6 -19 -10q-3 0 -10 -1t-10 -1h-58q-61 0 -92 -4q-23 -6 -39 10q-6 3 -10 11q-11 22 0 38q6 15 21 19q6 1 17.5 2t16.5 2q12 3 21 6q4 0 8 5.5t4 10.5q4 36 4 56v311q2 47 2 143q4 158 4 476q0 25 -2 76.5t-2 78.5q-1 14 -2 42t-2 42q0 3 -5 8 t-9 7h-14q-10 0 -50 -5h-20q-27 0 -37 31z" />
<glyph unicode="O" horiz-adv-x="663" d="M41 586v276q0 24 4 78q1 12 3 35t3 35q3 42 8 71q2 8 4.5 24.5t4.5 24.5q14 91 38 150q21 48 56 90q32 35 67 51q43 18 74 21h23q50 0 114 -31q32 -16 56 -43q41 -58 51 -76q34 -64 43 -135q1 -10 4 -30.5t4 -30.5q2 -16 6 -52q4 -50 8 -75q6 -25 6 -72q1 -33 2.5 -100 t2.5 -101q-2 -61 -2 -174q-4 -99 -15 -141q-4 -40 -28 -131q-5 -19 -33 -86q-11 -33 -49 -76q-39 -35 -56 -45q-24 -19 -63 -29q-13 -4 -33 -4q-14 0 -31 2q-78 16 -131 66q-33 33 -45 61q-25 53 -33 72q-23 52 -38 143q-1 4 -6.5 35.5t-6.5 48.5q-2 13 -4 39t-4 39 q-4 46 -4 70zM133 680q0 -164 14 -246q1 -5 2.5 -17.5t2.5 -17.5q0 -14 2 -22q25 -104 47 -148q15 -33 28 -57q10 -20 27 -31q30 -23 63 -32q11 -4 23 -4q20 0 39 12q51 31 74 82q31 69 37 92q13 44 28 125q1 7 2 21t2 20q8 29 8 84v149v64v71q0 58 -8 105q-4 28 -4 43 q-2 27 -10 76q-4 17 -7.5 48.5t-4.5 35.5q-1 7 -3 21.5t-3 21.5q-1 3 -3.5 10t-3.5 10q-16 46 -39 82q-24 38 -63 55q-27 10 -47 13q-8 1 -16 1q-36 0 -66 -22q-21 -15 -37 -41q-40 -75 -51 -145q-17 -90 -19 -119q0 -15 -4 -35q-1 -7 -3 -21.5t-3 -21.5q-4 -118 -4 -158 v-12v-92z" />
<glyph unicode="P" horiz-adv-x="622" d="M43 1372q-3 15 5 28.5t22 16.5q8 4 12 4q60 6 63 6q24 2 43 2q28 0 45 -4q17 -1 49 -2t48 -2q71 -3 127 -39q36 -25 59 -61q25 -39 37 -82q16 -58 16 -84q12 -65 12 -155q0 -24 -1 -50q0 -26 -13 -98q-22 -91 -90 -147q-19 -11 -31 -21q-25 -19 -57 -25q-16 -2 -45.5 -9 t-44.5 -9q-21 -2 -61 -14q-3 0 -6 -4t-3 -7q-4 -16 -4 -26q1 -72 2 -216t2 -216q0 -82 2 -99q0 -10 9 -10q5 -2 16 -5t16 -5q28 -11 25 -41q0 -10 -10 -21.5t-21 -13.5h-12q-23 -1 -70 -2t-71 -2q-4 0 -11.5 1t-11.5 1q-10 1 -19.5 12t-11.5 23q-2 11 5.5 23t19.5 16 q2 1 6 2t6 2q15 0 23 2q22 3 22 22q0 94 -4 121q-2 10 -2 35q2 16 2 49q-4 96 -4 291q0 7 -1 21t-1 20q-1 4 -6 9t-8 5h-35q-28 3 -35 31q-7 25 21 43q7 4 47 14q12 8 16 23v6v14v162q-4 92 -4 277v121q0 22 -6.5 28t-24.5 6h-14h-6q-12 1 -22 11t-11 22zM215 1034 q1 -8 2 -25t2 -26q4 -45 4 -141q0 -16 1 -46t1 -44q1 -3 2 -8t2 -7q4 -8 11 -8q20 -3 34 2q78 19 97 25q37 10 67 49q15 19 23 37q20 46 22 73q4 50 4 94q0 94 -16 167q-11 44 -37 92q-15 24 -41 37q-31 17 -59 20q-12 1 -33.5 4t-30.5 4q-6 1 -17.5 1t-16.5 1q-6 0 -13 -6 t-6 -12q0 -1 -1 -3.5t-1 -4.5v-275z" />
<glyph unicode="Q" horiz-adv-x="712" d="M47 799q1 15 2 43.5t2 42.5q2 8 2 26q11 53 15 142q0 14 4 34q4 14 8 50q2 14 9 38.5t9 36.5q34 89 92 142q13 13 35 24q57 31 107 31q6 1 13.5 1t16 -0.5t13.5 -0.5q10 0 14 -2q48 -9 84 -35q56 -44 82 -106q21 -44 35 -107q16 -78 20 -119q1 -20 5.5 -59t5.5 -59 q1 -6 3 -18.5t3 -18.5q1 -8 2 -24.5t2 -24.5v-220q1 -13 1 -26q0 -39 -7 -80q-4 -32 -4 -49q-2 -44 -13 -113q-10 -68 -26 -123q-7 -20 2 -35q2 -3 5 -9t5 -9q8 -14 24.5 -39.5t20.5 -32.5q2 -3 6 -9.5t7 -11.5t5 -9q5 -6 13 -27q4 -15 -2 -27q-16 -32 -52 -26q-15 3 -24 12 q-8 9 -15.5 20t-16.5 24.5l-13 19.5q-11 15 -21 20q-8 -4 -10 -8l-31 -31q-24 -28 -75 -49q-7 -3 -56 -14q-31 -6 -63 2q-38 10 -64 28q-72 51 -106 129q-25 54 -39 107q-1 7 -6 27t-7.5 34.5t-2.5 28.5q-14 65 -17 141v21q-7 67 -7 149q0 69 5 148zM135 565q4 -115 15 -162 v-6q3 -40 30 -145q13 -51 51 -109q13 -23 33 -37q15 -12 35 -22q19 -14 49 -6q21 7 39 16q56 29 70 84q3 13 -2 21l-6 12q-15 20 -50 72.5t-57 78.5q-10 15 -6 41q7 24 29 27q4 2 14 2q25 0 39 -14q20 -18 41 -49q5 -6 14 -19.5t14 -19.5q1 -2 13 -8q4 0 8 8q6 15 10 41 q12 90 12 92q2 12 2 35q6 98 6 160q0 28 -1 49v24v39q0 101 -13 188q0 5 -1 17t-1 18q0 43 -20 125q-7 35 -25 88q-24 60 -59 88q-36 25 -68 25q-12 0 -24 -4q-4 -1 -11.5 -2t-11.5 -2q-41 -13 -63 -41q-13 -16 -33 -47q-22 -30 -25 -58q-2 -9 -6.5 -28t-7 -33.5t-2.5 -28.5 q-6 -34 -6 -35q-8 -39 -8 -86q-5 -54 -7 -63q-8 -39 -8 -90q-3 -65 -3 -141q0 -46 1 -95z" />
<glyph unicode="R" horiz-adv-x="774" d="M43 27q1 12 11.5 21t21.5 11q6 2 20 2h29q3 2 8.5 7t5.5 8q2 10 2 28v603q0 65 -6 98q-4 17 -4 72v389q0 48 -2 57q-6 12 -14 12h-23q-14 0 -20 2q-10 1 -19 10t-10 19q-3 15 4 27.5t21 17.5q40 12 61 8q95 -9 193 -12q33 -3 75 -16q43 -16 72 -45q35 -32 57 -78 q31 -58 41 -135q5 -55 4 -115q0 -45 -2 -92q0 -38 -12 -76q-13 -34 -16 -47q-17 -50 -64 -82q-23 -15 -35 -25q-8 -5 -8 -20q2 -6 6 -19.5t6 -19.5q33 -100 64 -180q25 -65 102 -295q5 -17 16.5 -47.5t14.5 -38.5q5 -13 23 -17h26q14 0 25.5 -9.5t15.5 -24.5q0 -9 -2 -13 q-6 -25 -35 -32q-20 -5 -26 -5q-24 1 -75 2.5t-75 2.5h-6q-13 1 -24 13.5t-11 26.5q3 29 33 41q13 0 20 7q5 5 5 6q0 2 -1 6t-1 6q-82 249 -158 455q-23 66 -35 100q-6 16 -23 16q-37 0 -55 -2q-2 0 -7 -1t-7 -1q-6 -1 -14 -14q-1 -2 -2.5 -7t-2.5 -7v-50v-227h-2v-233 q0 -6 1 -18t1 -17t4.5 -11t8.5 -6q4 -1 13 -3t13 -3q20 -6 27 -26t-4 -37q-8 -11 -25 -14q-3 -3 -6 -3q-28 -1 -57 -1l-113 4q-14 0 -20 2q-12 3 -21 16.5t-8 28.5zM225 1036q0 -77 4 -233q0 -5 1 -17t1 -18q2 -11 11.5 -17t19.5 -3q27 3 55 10q38 9 74 24q46 21 62 66 q26 65 26 126v13v49q0 41 -4 64q-1 4 -3 13t-3 13q-5 60 -47 125q-18 25 -35 35q-32 19 -68 25q-8 1 -21.5 2t-25 2t-22.5 2h-6q-6 1 -12.5 -5t-6.5 -14v-41v-221z" />
<glyph unicode="S" horiz-adv-x="630" d="M43 29q6 21 20.5 58t16.5 42q5 15 14.5 47t14.5 47q2 3 5 9.5t5 9.5q6 10 19 14.5t24 1.5q12 -5 20.5 -16t7.5 -21v-14q-3 -8 -8 -26t-8 -27q-3 -13 8 -27q16 -13 47 -33q38 -18 82 -18h11q39 0 86 18q31 13 51 47q16 28 30 80q3 9 3 21q1 26 1 47q0 27 -2 44 q-4 30 -24 91q-5 15 -16.5 42t-14.5 36q-26 62 -78 127q-18 20 -59 61q-27 29 -84 86q-35 35 -72 88q-31 46 -49 123q-1 7 -4 21.5t-4 21.5q-4 26 -4 52t4 53q4 30 8 43q21 109 99 184q29 25 53 35q13 7 39 14q70 12 106 12q70 -5 90 -10q25 8 35 10q24 3 39 -14 q11 -18 6 -33q-35 -132 -37 -137q-1 -5 -10 -27q-3 -8 -14 -12q-18 -10 -41 0q-8 5 -14 17.5t-5 19.5q3 13 9.5 38.5t9.5 37.5q0 7 -8 10q-27 10 -56 10q-13 0 -26 -2q-7 -1 -21.5 -3t-21.5 -3q-36 -8 -70 -35q-18 -18 -23 -26q-13 -17 -30 -56q-25 -54 -25 -123 q0 -27 4 -57q2 -30 21 -67q23 -52 65 -101q9 -9 28 -27.5t28 -27.5q32 -32 59 -62q116 -110 170 -274q25 -81 27 -102q1 -5 4.5 -28t3.5 -36q1 -17 1 -32q0 -46 -9 -78q-2 -27 -21 -70q-29 -70 -90 -105q-25 -15 -51 -22q-59 -13 -107 -13q-30 0 -55 5q-40 2 -104 41 q-16 8 -23 -9q-6 -6 -6 -12l-12 -18q-10 -10 -25 -13q-17 0 -33 13q-15 22 -10 39z" />
<glyph unicode="T" horiz-adv-x="698" d="M-2 1245v15q0 30 4 100q0 16 10 33q9 15 29 18q16 3 35 0q53 0 155 -4q72 0 107 2q78 4 233 4q34 0 50 -2q35 -2 43 -41q0 -23 2 -35v-63q0 -19 -2 -29q-5 -18 -23 -26.5t-39 6.5q-15 9 -18 28q-2 20 -2 64l-15 10q-27 0 -83.5 -1t-84.5 -1q-6 0 -14 -4q-3 0 -7.5 -5 t-4.5 -9q-5 -9 -2 -15q0 -23 4 -69q4 -54 4 -78q0 -99 4 -291q0 -53 1 -160t1 -160v-247q0 -56 -4 -170v-43q0 -6 3.5 -10.5t8.5 -4.5q4 0 11 1t10 1q29 3 47 -26q4 -15 2 -21q-3 -12 -12.5 -22t-20.5 -13q-25 -4 -72 -4q-75 0 -112 -4q-15 -1 -28 12.5t-13 28.5 q0 10 7.5 22t18.5 15q19 3 41 10q6 0 11 9q0 1 1 3t1 3q12 102 12 198q-2 207 -2 617q0 126 -8 227q-1 21 -2 63.5t-2 63.5q0 29 -2 43q0 29 -31 29h-8q-38 0 -78 6q-27 3 -46 3q-10 0 -18 -1q-4 0 -9 -4t-5 -8q-4 -16 -8 -56q0 -2 -6 -20q-9 -18 -29 -20.5t-33 8.5 q-10 13 -12 24z" />
<glyph unicode="U" horiz-adv-x="841" d="M45 1409q6 17 25 25q8 2 20 2q66 2 193 2q13 0 24.5 -11t14.5 -26q0 -3 -3 -6q-7 -39 -43 -39q-14 -2 -43 -2q-20 0 -20 -23v-28q2 -49 2 -150q2 -104 10 -297q0 -71 2 -106q0 -57 4 -84q3 -32 13 -213q1 -28 7 -80t7 -68q11 -69 27 -110q19 -57 69 -86q15 -9 33 -15 q6 -4 21 -4q18 -3 32 8q58 46 82 113q37 113 51 184q6 35 9 64q5 70 8 84q2 15 3 31.5t1.5 37t1.5 31.5q1 52 2 155.5t2 155.5h-2q1 61 2 182t2 181q0 2 -1 6.5t-1 7.5q0 5 -4 12.5t-10 8.5q-14 5 -19 8q-16 8 -22 26q-3 9 0 21q9 24 37 31q50 8 77 10q26 3 52.5 3t52.5 -3 q20 -1 29.5 -18t3.5 -35q-9 -24 -37 -27h-22.5t-26.5 -4q-7 0 -11 -8t-4 -15v-49q0 -18 -1 -53t-1 -53q0 -12 -1 -36t-1 -36v-248q0 -50 -10 -305q0 -57 -10 -98q-4 -14 -4 -49q-2 -38 -23 -125q-4 -17 -9.5 -36t-13.5 -42.5t-12 -36.5q-30 -85 -100 -143q-11 -11 -23 -17 q-37 -24 -76 -24q-22 0 -46 8q-32 12 -52 22q-81 47 -114 130q-17 43 -27 104q-2 12 -5 35.5t-5 34.5q-4 14 -4 41q-1 15 -2 43t-2 43q0 23 -4 77q-6 54 -9 113q0 61 -2 92q0 44 -4 64q-6 58 -6 114v211q-1 31 -2 93t-2 92q0 20 -2 28q0 11 -12 17q-15 0 -35 4 q-19 3 -28 19.5t-3 33.5z" />
<glyph unicode="V" horiz-adv-x="825" d="M2 1399q4 28 31 35q2 1 7 2t7 2q17 1 49.5 3t48.5 3v-2q15 1 42.5 3t41.5 3q20 0 33 -10q11 -8 14.5 -21t-2.5 -24q-10 -22 -30 -25q-7 -1 -21.5 -3t-21.5 -3q-5 0 -11 -7.5t-6 -13.5q2 -2 2 -6v-14q1 -5 6.5 -31t6.5 -39q2 -10 5 -31.5t5 -31.5q4 -20 10 -60t10 -59 q6 -23 13.5 -65t9.5 -52q3 -13 8 -41t8 -43q6 -36 21 -104.5t16 -75.5q10 -47 34 -146.5t34 -150.5q5 -23 16 -61q0 -8 10 -8q8 0 11 8q2 17 9 48.5t9 47.5q2 13 8.5 43t7.5 47q6 18 11 51t8 47q4 14 8 45t8 46q2 21 10.5 59t10.5 59q6 22 11.5 63t8.5 56q6 30 17.5 90.5 t17.5 89.5q12 70 20 105q3 16 10.5 47.5t10.5 48.5v14q0 14 -10 17q-22 6 -27 8q-18 6 -24 24q-3 10 0 21q11 28 34 31q15 1 42.5 3t50.5 4t43 5q25 3 49 0q13 0 24.5 -10.5t14.5 -24.5q0 -2 -1 -7t-1 -7q-9 -25 -37 -31q-6 -1 -17.5 -2t-17.5 -2q-17 0 -21 -16 q-5 -23 -30 -146q-5 -24 -17.5 -88t-21.5 -98q-1 -21 -9 -58.5t-10 -54.5q-2 -14 -8.5 -46t-7.5 -50q-6 -19 -11.5 -57t-11.5 -56q-8 -61 -14 -90q-1 -19 -9 -55.5t-9 -54.5q-5 -17 -11.5 -52.5t-11.5 -52.5q-6 -30 -20.5 -105.5t-22.5 -117.5q-1 -15 -7.5 -43t-8.5 -39 q-1 -7 3.5 -13.5t10.5 -6.5q4 -1 14.5 -2.5t14.5 -2.5q16 -1 25.5 -14t9.5 -24q-2 -14 -13 -26t-24 -13q-2 -2 -6 -2q-26 -1 -81 -4.5t-81 -4.5q-5 0 -15 1t-14 1q-11 3 -20 14t-9 23q0 24 23 35q5 2 15.5 4t11.5 2q23 6 20 31q0 3 -1 10t-1 10q-30 149 -57 263q0 2 -47 200 q-3 12 -17 73t-20 93q-3 17 -10.5 48t-10.5 48q-4 15 -9 45t-9 46q-2 10 -6.5 36t-6.5 41q-3 12 -7 37.5t-7 38.5q-4 33 -17.5 100t-17.5 103q-2 20 -14 67q0 6 -10 11q-23 0 -35 2q-16 0 -27 12.5t-10 30.5z" />
<glyph unicode="W" horiz-adv-x="1153" d="M0 1382q-2 13 4 26t16 17q6 1 15 4.5t12 4.5q10 2 29 2q21 1 60.5 2t60.5 2q21 0 31 -14.5t5 -34.5q-3 -19 -20 -27q-3 -1 -10 -3t-10 -3t-10.5 -2t-10.5 -2q-10 -3 -10 -17q0 -33 4 -49q6 -24 14.5 -72t9.5 -53q1 -9 8 -32t7 -37q6 -19 12 -54t10 -51q1 -3 2 -10t2 -10 q1 -20 8.5 -59.5t8.5 -59.5q6 -20 12 -60t12 -59q1 -17 8.5 -48t8.5 -48q2 -13 8.5 -44t7.5 -48q20 -81 31 -152q0 -7 3.5 -19t4.5 -16q3 -7 10 -10q2 4 2 6q16 73 27 131q2 11 6 40t8 44q2 21 10.5 60.5t10.5 58.5q1 15 8 45t8 47q2 9 7 40.5t10 49.5q1 6 7 39t11 51 q12 46 18 97q2 15 8.5 45t8.5 45q4 28 16 92q9 41 12 84q0 29 17 68q5 14 24 22q22 6 41 -6q13 -9 15 -16q12 -50 12 -76q0 -40 2 -58q5 -76 10 -98q4 -28 4 -43q1 -3 2 -10t2 -13.5t3 -11.5q3 -13 8 -54t12 -62q2 -17 9.5 -55t8.5 -58q12 -37 15 -76q6 -26 11.5 -76 t10.5 -71q2 -21 29 -174q2 -9 5 -29t5 -29q0 -2 8 -10q8 -3 11 6q2 24 10 73.5t10 74.5q6 27 11.5 80.5t11.5 80.5v13q1 22 4 45.5t7.5 51.5t6.5 44q1 10 7 39t7 45q6 27 12.5 76.5t10.5 70.5q2 23 10 67t10 67q7 29 21 124q-7 11 -18 11q-19 0 -27 2q-27 3 -33 22 q-9 21 4 41q10 14 23 17q14 2 43 2q81 5 98 8q17 4 36 4q13 0 28 -2q14 -3 26 -12q5 -5 8 -11q10 -23 -2 -41q-6 -13 -22 -16q-8 -1 -24.5 -2t-24.5 -2q-3 0 -8.5 -5t-6.5 -9q-6 -24 -6 -27q-11 -72 -12 -78q-4 -12 -7 -38t-7 -38q-2 -22 -10.5 -64t-10.5 -63 q-1 -9 -7.5 -43t-6.5 -53q-7 -25 -13 -72.5t-10 -68.5q-2 -8 -3 -17.5t-1.5 -20.5t-1.5 -17q-11 -49 -14 -113q0 -6 -2 -17.5t-2 -17.5q-6 -23 -9 -49q-1 -6 -2 -18t-2 -17q-4 -16 -7.5 -44.5t-6.5 -39.5q-1 -5 -6 -33.5t-6 -44.5q-4 -18 -10.5 -60.5t-12.5 -64.5 q-1 -4 -2 -13.5t-2 -14.5q0 -22 -8 -62q-6 -35 -6 -63q4 -19 18 -19h23q30 -3 37 -36q2 -2 2 -7q-7 -20 -19 -30l-12 -6q-22 -3 -62.5 -6.5t-50.5 -4.5q-12 -2 -30 -2t-41 2q-9 0 -15 2q-24 9 -30 35v6q2 12 11 23t19 12q20 4 29 4q12 3 12 15q0 47 -8 86l-12 69 q-1 12 -6.5 35.5t-6.5 26.5q-1 9 -4 27.5t-4 27.5q-4 21 -10 63.5t-10 63.5q-4 24 -12 69.5t-11 63.5q-2 11 -10 59t-10 74q-5 20 -11.5 62t-11.5 63q-2 11 -5 34.5t-5 35.5q-2 10 -6 30.5t-6 30.5q-11 0 -13 -6q-8 -15 -10 -27q-1 -18 -7.5 -50t-8.5 -46q-2 -13 -9 -43 t-8 -47q-8 -35 -18.5 -99.5t-15.5 -88.5q-4 -16 -8.5 -49t-8.5 -50q-26 -144 -53 -256q-19 -70 -21 -110q-1 -8 -3 -24.5t-3 -24.5q0 -4 4 -9.5t9 -7.5h43q22 -3 32 -26q5 -10 0.5 -23t-14.5 -20q-15 -11 -27 -11q-20 -4 -34 -4q-103 0 -156 -2q-4 0 -6 2q-17 0 -31 17 q-19 23 0 45q9 15 29 18q6 1 17.5 2t17.5 2q9 14 8 19v22q-1 5 -9 55.5t-10 77.5q-4 11 -6 24t-3.5 28.5t-2.5 23.5q-3 11 -7 34.5t-7 35.5q-3 17 -15.5 87t-19.5 107q-30 158 -35 189q-28 151 -37 194q-2 15 -5 31t-7 36t-6 31q-2 16 -8.5 48t-8.5 49q-3 32 -12 63 q-6 22 -13.5 66t-13.5 65q-3 11 -14 15q-6 2 -14 2q-25 3 -35 30z" />
<glyph unicode="X" horiz-adv-x="845" d="M43 16q-2 13 8 27.5t23 15.5q6 1 20 2t21 2q23 0 35 5q4 0 12 8l6 12q21 51 94 244q54 143 96 266q10 23 21 59q6 21 0 43q-15 39 -41 120t-41 120q-3 10 -24.5 67t-30.5 87q-15 40 -40 113.5t-34 99.5q-7 21 -16 32q-4 7 -11 7q-1 0 -14 -1t-14 1q-30 7 -35 30 q-3 14 4 27q6 15 20 18q41 13 76 13q39 2 115 2q27 0 37 -27q7 -13 0 -27q-13 -25 -39 -28q-13 0 -21 -2q-10 -5 -6 -13q5 -31 8 -41q16 -49 52 -147q16 -46 50 -139.5t50 -139.5q1 -2 4 -6t4 -6h6q1 0 3 1t3 1q5 5 5 6q3 8 9 23.5t9 23.5q9 27 26.5 80.5t26.5 79.5 q17 46 27 82q5 17 14 48.5t16.5 57.5t12.5 50q4 8 4 28q0 2 -3.5 5.5t-4.5 5.5q-2 2 -6 2q-9 0 -21 4q-21 7 -28 26.5t12 40.5q17 11 18 11q50 4 72 4q65 0 98 2h21q22 -3 32 -25q6 -14 0 -28q0 -3 -4 -7q-6 -13 -20 -16q-4 -1 -22 -3t-27 -7q-6 -2 -15 -15q-2 -2 -2 -6 q-21 -67 -39 -135q-34 -121 -84 -264q-52 -155 -71 -207q-8 -24 -8 -46.5t8 -43.5q14 -37 84.5 -238t111.5 -307q1 -3 4.5 -9t4.5 -9q7 -10 18 -10q6 1 17.5 3t17.5 3q14 2 27.5 -7t17.5 -22q5 -15 -3.5 -30.5t-23.5 -18.5q-44 -12 -84 -12h-121q-21 0 -36 18q-21 31 10 55 l12 6q2 1 10 2.5t11 2.5q7 1 11.5 7.5t2.5 12.5q-4 12 -6 20q-48 131 -119 332q-3 7 -10.5 28.5t-12.5 31.5q-4 8 -10 8q-6 3 -10 -6q-9 -27 -25 -66q-21 -56 -62.5 -169t-62.5 -169q-7 -19 -4.5 -24t21.5 -13q2 -2 6 -2q4 -4 6 -4q18 -18 18 -33q0 -17 -22 -32 q-6 -6 -12 -6q-6 -2 -21 -2h-86h-98q-12 0 -25 11.5t-14 24.5z" />
<glyph unicode="Y" horiz-adv-x="729" d="M2 1382q-10 17 10 37q9 12 25 15h6q29 3 178 8q15 0 26.5 -14t8.5 -31q-7 -26 -27 -31q-5 -2 -16 -5t-16 -5q-6 -1 -9.5 -6.5t-1.5 -10.5q33 -97 60 -157q24 -53 49 -142q36 -115 84 -239q5 -10 8 -13q4 -4 12 0q7 7 11 19q44 135 84 270q13 45 24 99q6 27 21 80t20 81 q1 4 -1 7.5t-5 3.5q-1 0 -29 6q-30 7 -30 41q0 14 10.5 26t23.5 13q46 4 64 4q53 0 92 10q18 3 37 -16q12 -14 7.5 -34t-19.5 -28q-6 -2 -17.5 -6t-17.5 -6t-15 -15q-4 -12 -6 -20q-20 -83 -73 -287q-55 -202 -117 -356q-1 -2 -4 -9t-4 -12q-4 -13 -9 -28.5t-6 -19t-2.5 -14 t-1.5 -19v-29.5v-418q0 -7 1 -21t1 -20q0 -3 6 -8.5t9 -5.5q9 -2 24.5 -1.5t24.5 -0.5q15 0 26 -10.5t11 -24.5q1 -15 -7 -27.5t-22 -15.5q-20 -4 -29 -4q-15 -1 -46 -2t-46 -2q-10 -1 -29 -1t-33.5 -1t-27.5 -4q-17 -3 -35 8q-20 13 -20 35q0 17 16 30l12 6q8 1 23.5 4 t17.5 3q22 3 28.5 9t6.5 25q0 46 -1 138.5t-1 138.5v135q0 17 -10 104q0 11 -8 27q-5 18 -37 115q-5 13 -88 254q-26 79 -88 239q-21 62 -33 86q-3 10 -16 13q-5 1 -17 1t-18 1q-23 7 -29 28z" />
<glyph unicode="Z" horiz-adv-x="757" d="M41 1229q1 9 5.5 32t4.5 37q0 24 4 70q0 10 2 14q1 13 12 24.5t25 14.5q12 2 35 2q302 0 363 -2q69 0 118 -10q8 -2 16 -9t9 -16q0 -8 2 -14q0 -36 -10 -61q-41 -136 -78 -250q-78 -242 -119 -363q-49 -146 -131 -344q-14 -35 -43 -104.5t-43 -104.5q-10 -17 -10 -32 q0 -3 4 -7q8 -4 14 -6q18 -3 105 -8q43 -1 128 -2t128 -2h20q6 0 13 5t8 11q1 5 3 14.5t3 14.5q1 12 2 35.5t2 34.5q2 14 14 25.5t25 11.5q31 -3 41 -33q6 -22 2 -51q-11 -68 -13 -119q-1 -15 -14.5 -27t-28.5 -14q-8 -2 -22 -2q-103 0 -156 6q-20 2 -49 2q-78 2 -205 2 q-46 0 -69 -6q-24 -8 -58 -4q-11 0 -20.5 10t-11.5 21q-3 25 6 49q62 145 86 200q9 24 28 68.5t21 50.5q76 171 137 363q18 63 121 370q1 2 49 162q2 6 2 21q0 12 -12 16q-70 8 -105 10q-151 0 -227 -2q-4 -1 -10.5 -2t-9.5 -2q-6 0 -12.5 -6t-6.5 -12q0 -1 -1 -3.5t-1 -4.5 q1 -14 -1 -29t-6 -33t-5 -29q-6 -21 -29 -28q-12 -3 -24.5 2t-18.5 16q-8 11 -8 27z" />
<glyph unicode="[" horiz-adv-x="518" d="M62.5 1667q-0.5 13 0.5 14q6 36 43 39q133 14 177 17q0 1 61 1l62 -1q6 0 22 -4q17 -4 23 -13t4 -26q0 -28 -27 -31q-21 -6 -49 -6q-57 -4 -86 -2q-24 1 -69 -6t-66 -7q-11 0 -11 -12q-2 -6 -2 -22v-217q0 -19 3 -53.5t4 -43.5v-14l12 -276q3 -46 6 -129.5t4 -110.5 q5 -55 6 -155t2 -132q1 -23 1 -66.5t1 -66.5q4 -68 5 -143.5t0.5 -168t0.5 -143.5q0 -5 3 -14q0 -14 16 -14q37 -4 119 -8h78q10 0 22 -3q30 -10 27 -47q-2 -15 -11 -24.5t-24 -9.5q-102 0 -131 4q-16 4 -45 4q-55 0 -82 2q-15 0 -35 8q-18 9 -18 29q-3 15 -3 28v172h-2 l2 92q1 91 -2 91q-3 52 -4 110t-1 129.5t-1 110.5q-2 35 -2 104q-4 157 -10 238q-2 31 -4 95t-4 95q-1 24 -4 66t-5 77t-3 66q-3 46 -3 94v269q0 1 -0.5 14z" />
<glyph unicode="\" horiz-adv-x="874" d="M61 1489q0 20 25 27h12q31 0 43 -27q2 -2 2 -6q0 -2 2 -4l56 -125l10 -27q26 -50 37 -82q25 -56 108 -256l29 -71q7 -17 21.5 -50t21.5 -49q3 -6 9 -19.5t9 -19.5q3 -9 41 -92q18 -46 39 -90q3 -8 10.5 -23.5t10.5 -23.5q16 -34 63 -143q62 -152 101 -228q8 -12 8 -20 q3 -6 8.5 -17.5t7.5 -15.5q34 -80 66 -127q13 -19 10 -43q0 -11 -8.5 -20.5t-18.5 -10.5q-6 -2 -14 -2q-24 0 -37 19q-2 4 -7 12t-7 12q-40 72 -43 78q-10 24 -53 113q-3 9 -11 24.5t-10 20.5t-21.5 47t-27.5 65l-10 27q-63 145 -70 160q-7 16 -26.5 57.5t-28.5 63.5l-12 32 l-48 105q-28 55 -61 141q-7 20 -35 88q-10 23 -30.5 72t-30.5 72q-7 17 -21.5 52t-21.5 52l-23 49q-7 18 -22.5 53t-22.5 52q-13 25 -24 63q-5 12 -5 35z" />
<glyph unicode="]" horiz-adv-x="563" d="M61 1690q0 12 2 16q0 7 6.5 14t14.5 9q4 0 13.5 1t13.5 1q63 -2 186 -2q21 0 62 1t61 1q12 0 26 -7q19 -13 19 -34v-68q0 -61 6 -90q2 -6 2 -19q1 -29 4 -89t4 -89q2 -22 3.5 -79t4.5 -89q7 -71 11 -172l2 -203q1 -202 -2 -202q-8 -246 -8 -737q-1 -6 -1.5 -18t-1.5 -17 q-3 -38 -40 -41h-37q-92 2 -279 2q-21 0 -39 6q-25 8 -22 45q1 13 10.5 22t23.5 11h31q39 0 116.5 -1t115.5 -1q18 0 28 2q2 0 5.5 2.5t3.5 5.5q2 8 2 27v301q0 245 4 313q4 57 5 121.5t0.5 143.5t0.5 122q0 16 -1 33.5t-2.5 38.5t-2.5 33q-2 39 -6.5 117.5t-6.5 117.5 q-1 18 -1 55t-1 56q-2 28 -6 85.5t-6 86.5q-2 25 -2 75q-2 12 -2 37q-4 8 -10 8q-12 3 -27 3q-12 1 -38.5 1t-46.5 1.5t-38 5.5h-41h-86q-30 3 -33 37z" />
<glyph unicode="^" horiz-adv-x="497" d="M61 1094q0 10 5 28q6 6 10 19l10.5 21t12 25t10.5 23q31 59 36 72q5 14 18.5 42t18.5 42q4 9 11 24.5t8 18.5v-2q13 23 39 23q23 0 39 -31q0 -1 1 -5t1 -5v6q18 -63 57 -121q21 -38 53 -86v2q8 -14 19 -31t14 -22q14 -25 10 -43q-3 -35 -35 -35q-30 0 -43 24 q-40 73 -84 144v-2q-25 36 -36 63l-6.5 -13t-3 -7.5t-1.5 -3.5l-6 -11q-4 -4 -4 -8l2 4q-6 -11 -18.5 -40t-20.5 -44v2q-36 -69 -41 -82q-4 -4 -4 -6l2 2q-9 -14 -16.5 -18t-24.5 -4q-11 3 -20.5 13t-12.5 22z" />
<glyph unicode="_" horiz-adv-x="679" d="M61 -129q8 24 31 31h277q21 0 41 -4h14q96 0 143 -2q5 0 25 -5q22 -4 24 -32q3 -23 -5 -32t-31 -9h-105q-43 0 -61 2q-51 2 -160 2h-139q-13 0 -25 4l2 -2q-14 3 -22.5 17.5t-8.5 29.5z" />
<glyph unicode="`" horiz-adv-x="243" d="M61 1393q0 22 23 32q22 7 39 -4q15 -12 22 -37l37 -118q0 -42 -26 -49q-32 -7 -47 20q-5 5 -9 16q-26 77 -39 140z" />
<glyph unicode="a" horiz-adv-x="499" d="M41 213h2v29v8q0 35 16 82q24 79 105 108q55 19 88 19q5 0 15 1t14 1q6 0 14 4q7 1 13.5 9t6.5 15q2 21 2 43q0 40 -6 84q-1 8 -16 48q-8 16 -29 30q-2 1 -6.5 2t-7.5 2q-9 1 -17 1q-37 0 -69 -21q-13 -9 -39 -31q-9 -5 -24.5 -4.5t-24.5 6.5q-8 8 -15 25q-3 9 0 20 q6 18 23 35q48 54 115 66q13 2 27 2q23 0 48 -6q72 -20 101 -93q20 -48 20 -90q0 -12 1 -38t1 -40v-204q0 -52 9 -205q0 -21 16 -29q2 -1 7 -2t7 -2q14 -9 18 -25t-3 -30q-4 -8 -9 -13q-8 -5 -21 -13.5t-23.5 -15.5t-20.5 -11q-13 -8 -31 -0.5t-22 22.5q-4 16 -4 27 q-1 6 -7 8.5t-10 -0.5q-4 -4 -16 -12q-20 -18 -58 -29q-28 -9 -61 -2q-4 2 -13 5t-14 5q-17 6 -30 19q-17 12 -37 40q-27 50 -33 101q0 33 -2 49zM127 172q6 -42 35 -68q15 -14 35.5 -15t35.5 11q22 19 37 43q5 9 15.5 28t15.5 28q18 30 18 67v41q0 1 -1 17t-1 26 q-2 8 -9.5 14t-16.5 5h-12q-8 -2 -25 -5.5t-25 -5.5q-24 -3 -47 -16q-18 -9 -30 -27q-20 -27 -23 -51q-4 -32 -4 -58q0 -18 2 -34z" />
<glyph unicode="b" horiz-adv-x="540" d="M43 1034q-4 25 10 39l17 17q4 3 26.5 20t36.5 25q13 8 35 4q9 -3 18 -12.5t9 -16.5q2 -8 2 -23q2 -33 2 -98q1 -37 2 -109.5t2 -109.5q0 -14 4 -20q3 -5 10 -9q4 2 13.5 6.5t13.5 6.5q17 11 51 22q7 3 49 8h3q35 0 67 -20q34 -21 51 -53q11 -24 22 -68q15 -37 23 -102 q3 -132 3 -205q0 -44 -1 -66q-3 -67 -35 -166q-21 -51 -49 -75q-16 -17 -41 -27q-24 -9 -46 -9q-9 0 -17 1q-39 3 -70 31q-6 5 -18 20t-21 21q-1 0 -3 1t-3 1q-10 0 -10 -35q-3 -24 -23 -35q-16 -10 -33 0q-23 11 -26 39q-2 33 -2 69v398q-1 32 -1 65q0 98 7 197q2 12 2 35 q-4 62 -8 190q-3 15 -21 15h-14q-1 0 -3 1t-3 1q-26 7 -31 26zM199 283q0 -26 12 -47q9 -19 14 -25q22 -39 72 -96q5 -8 16 -15q10 -11 28 -10.5t30 12.5q7 7 20 29q16 33 33 107q9 76 9 141q0 25 -1 49q-3 40 -6 78q-2 39 -23 117q-1 3 -4.5 12t-5.5 14q-5 11 -16 25 q-9 9 -25 12q-29 0 -41 -6q-51 -21 -71 -55q-18 -25 -27 -41q-14 -22 -14 -54v-120v-107v-20z" />
<glyph unicode="c" horiz-adv-x="497" d="M31 291v127q0 33 6 63q1 7 3 21.5t3 21.5q8 75 45 156q17 38 51 65q29 26 70 35q29 7 55 -2q56 -13 94 -45q10 -7 21 0q2 1 9.5 8t12.5 9q12 6 28 0.5t22 -17.5q6 -11 5 -25t-7 -22q-49 -53 -74 -76q-10 -11 -28.5 -8t-27.5 16q-6 6 -6 13q-6 28 -34 41q-22 9 -27 10 q-25 9 -47 -6q-26 -13 -43 -47q-25 -60 -33 -107q-16 -73 -16 -175q0 -34 2 -71q6 -79 47 -147q11 -25 43 -35h14q26 3 57 27q16 14 33 37q10 13 25 22q9 7 23 6.5t22 -8.5l6 -6q21 -26 4 -59q-23 -40 -70 -80q-5 -3 -15 -9.5t-15 -9.5q-12 -8 -39 -12h-64q-25 0 -47 16 q-31 19 -53 58q-27 51 -35 84q-20 85 -20 124v7z" />
<glyph unicode="d" horiz-adv-x="516" d="M45 252q-2 34 -2 85t2 120q18 113 39 180q20 57 59 104q7 7 9 11q33 36 77 36q9 0 19 -2q12 0 20 -2q14 -2 33 -10q14 -5 53 -35h8q7 0 7 9v14v170q0 41 -4 135q0 29 2 43q3 20 20.5 29t32.5 2q63 -23 78 -33q13 -8 16.5 -26.5t-10.5 -34.5q-4 -4 -10 -7q-10 -4 -29 -4 q-19 -4 -19 -18v-6q7 -104 7 -355l-1 -102q0 -102 1 -102q2 -66 2 -199q4 -132 4 -199q0 -23 -2 -35q-2 -15 -21 -26q-24 -7 -41 4q-12 12 -12 25q-4 32 -4 49q0 8 -10 8q-3 0 -7 -4q-12 -12 -14 -15q-16 -16 -24 -26q-32 -32 -80 -41h-15q-6 1 -17.5 2t-16.5 2 q-45 6 -70 45q-9 9 -21 29q-34 60 -55 151q-4 20 -4 29zM127 375q-1 -12 -1 -28q0 -32 3 -79q1 -4 2 -13t2 -13q21 -78 51 -125q4 -6 15 -17q22 -16 45 -6q23 11 39 31q33 44 55 100q28 71 31 78q0 5 1 14.5t1 14.5q0 98 -2 147v58q0 8 -4 20q-24 64 -74 111q-16 16 -51 24 q-13 0 -19 -6q-6 -4 -16 -14q-30 -38 -47 -94q-2 -6 -25 -119q-1 -4 -2 -13.5t-2 -13.5q0 -39 -2 -57z" />
<glyph unicode="e" horiz-adv-x="466" d="M33 461q3 96 39 178q3 9 24 51q40 60 109 88q2 2 20 6q23 3 41 -2q9 0 21 -4q42 -16 73 -55q1 -2 4.5 -5t4.5 -5q45 -59 55 -144q5 -40 14 -133v-14q-3 -28 -26 -39q-16 -8 -27 -8q-20 -2 -63 -2h-64q-43 2 -74.5 2t-52.5 -2q-14 -5 -14 -17v-6q0 -64 12 -104 q0 -26 16 -62q8 -25 29 -49q2 -3 6 -8t6 -8q18 -14 31 -17q21 -3 43 0q28 0 57 25q4 4 9.5 9t12 12t9.5 10q24 21 51 0l11 -11q9 -18 6 -38q-4 -14 -8 -21q-23 -28 -56 -55q-12 -8 -18 -10q-48 -19 -76 -19h-35q-32 3 -67 21q-19 8 -37 30q-44 51 -58 105q-18 61 -18 82 q0 10 -2 14q-9 51 -9 141q0 30 1 64zM121 485q-1 -3 3 -7.5t9 -6.5q27 -1 58 -1t68 0.5t56 0.5q15 0 23 2q1 0 4.5 3.5t5.5 4.5q-1 9 -3 28t-3 28q0 23 -16 69q-15 44 -54 72q-13 8 -34 8q-18 -4 -25 -10q-27 -18 -45 -45q-24 -33 -37 -84q-2 -10 -5 -31t-5 -31z" />
<glyph unicode="f" horiz-adv-x="323" d="M41.5 727q-0.5 19 9.5 33q3 7 10 10q18 6 21 6q5 1 35 6q7 0 14 13v8q0 29 2 62t5.5 73t4.5 63q0 24 19 68q20 44 71 66q12 4 21 4q16 2 33 2q28 0 59 -6q20 -3 23 -23q6 -17 2 -35q-3 -19 -21 -26q-18 -9 -26 -7q-5 0 -15 1.5t-14 1.5q-12 2 -35 -7q-9 -3 -16 -14 q-8 -13 -15 -31q-10 -45 -10 -77l-2 -121q0 -3 5.5 -8t8.5 -5q9 -1 28 -2t28 -2q13 0 26 -10q9 -5 15 -16q6 -14 2 -35q-1 -12 -10.5 -21.5t-20.5 -11.5h-31.5t-40.5 -4q-6 0 -10 -8q-2 -6 -2 -21q0 -31 -1 -92t-1 -92q-1 -17 -2 -50t-2 -50q0 -11 -1 -35t-1 -35 q4 -122 4 -184q0 -4 1 -11.5t1 -11.5q0 -8 10 -18q2 -2 9.5 -6t9.5 -5q19 -14 16 -43q-2 -9 -11 -18.5t-16 -9.5q-14 -1 -29 -3t-33.5 -5t-29.5 -4q-18 -3 -35 -3q-12 0 -25 11t-16 24v15q6 20 29 30q18 5 27 9q8 0 8 10q2 8 2 26q0 54 -4 164q-1 18 -1 35t1 35q2 27 2 78 q1 38 2 113.5t2 113.5q0 5 -1 14.5t-1 14.5q0 7 -14 14q-29 0 -43 2q-7 0 -19 8q-11 14 -11.5 33z" />
<glyph unicode="g" horiz-adv-x="493" d="M45 479q2 10 7 41.5t8 47t9.5 40t14.5 43.5q14 36 29 58q28 48 77 69q3 1 10.5 3t10.5 3q7 0 21.5 1t21.5 1q13 1 39 2.5t39 2.5q24 0 30 22q1 2 2.5 7t2.5 7q0 5 4 13q6 9 16 14q19 9 39 -4q12 -8 12 -16q2 -2 2 -7q2 -4 2 -14q7 -126 7 -213q4 -140 4 -190 q0 -72 -1 -196t-1 -181q0 -51 -11 -133q-9 -70 -51 -123q-7 -13 -22 -27q-25 -25 -56 -33q-24 -6 -26 -6q-18 -4 -36 -4q-56 0 -106 37q-20 14 -20 43q-3 15 8 33q6 9 16 12q16 5 35 -2q18 -11 31 -16q19 -10 39 -10q15 0 31 6q17 5 34 22q31 38 39 82q12 60 12 127 q0 14 -1 29q0 5 -2 7t-5 1q-10 0 -14 -4t-12 -12.5t-12 -12.5q-3 -3 -10.5 -9t-10.5 -9q-10 -7 -25 -15q-24 -4 -34 -6q-12 -3 -23 0q-5 1 -16.5 4t-16.5 4l-26 13q-43 27 -68 80q-10 18 -18 45q-18 64 -19 84q0 22 -4 34q-7 41 -7 128q0 35 1 77zM129 309q5 -30 6 -35 q4 -24 6 -34q2 -31 21 -68q16 -43 55 -63q13 -7 27 0q21 12 39 30q5 8 15 23.5t15 23.5q33 64 45 97q11 19 11 47v164v77q-4 66 -4 99q0 28 -33 28q-20 -2 -64 -2q-13 0 -41 -8q-23 -9 -39 -31q-12 -17 -24 -49q-25 -66 -35 -145q-3 -31 -3 -69.5t3 -84.5z" />
<glyph unicode="h" horiz-adv-x="612" d="M47 1090q5 10 14 16q7 3 22.5 9t22.5 9q7 2 20.5 6.5t20.5 6.5h21q10 -1 19.5 -10.5t9.5 -18.5q4 -28 4 -41q0 -90 2 -135q0 -45 4 -135q0 -6 1 -17.5t1 -17.5q2 -9 7 -12.5t11 0.5q10 5 13 8q41 30 103 30q22 0 46 -4q12 -2 27 -10q47 -29 69 -86q10 -32 15 -63 q8 -53 12 -162q0 -203 -6 -305q-2 -15 -2 -31t2 -33q0 -6 5 -12t11 -6q3 -1 10.5 -2t10.5 -2q17 -4 24 -19t2 -33q-6 -22 -28 -28q-43 -4 -59 -4h-5q-13 0 -28 6q-16 4 -19 18q-4 12 -4 21q-3 63 -3 104q0 21 1 37l2 305q0 75 -12 148q-1 7 -11 26q-12 27 -41 37 q-17 6 -34 0q-62 -14 -95 -78q-4 -5 -7.5 -14.5t-4.5 -11.5q-4 -9 -8 -35v-29v-409q-1 -5 -1 -11.5t0.5 -14t0.5 -11.5q0 -3 4 -8.5t8 -6.5t11 -2t10 -2q17 -4 24 -19.5t2 -31.5q-10 -23 -30 -26q-26 -6 -58 -9q-10 -1 -31 -2t-32 -2q-15 -1 -28 11.5t-15 27.5q0 21 18 35 q3 2 10.5 5t10.5 5q10 7 10 17q0 4 1 11t1 11v55q0 383 -2 576q0 1 -6 211q-1 10 -1 29t-1 34t-4 29q0 8 -9 8q-7 4 -14 0q-15 -3 -33 8q-6 3 -10 11q-12 18 -2 39z" />
<glyph unicode="i" horiz-adv-x="278" d="M43 715q-4 23 14 37q2 1 6.5 4t6.5 4q17 9 59 22q10 2 29 2q24 -3 30 -26q5 -20 5 -29v-84q-1 -35 -1 -73.5t0.5 -86.5t0.5 -75q3 -97 3 -162q0 -33 -1 -58q-5 -83 -5 -98q0 -12 11 -16q17 -10 28 -21q16 -20 2 -41q-15 -22 -32 -22q-57 -3 -113 -12q-10 -1 -23 6t-18 16 q-7 15 -1.5 32t19.5 23q8 4 15 4q28 6 28 33q0 9 1.5 26t1.5 25q3 131 3 220q0 44 -1 77q-1 28 -1 60t0.5 71.5t0.5 61.5q0 5 -1 17t-1 18q-3 6 -11 10q-4 1 -13 2t-13 2q-22 5 -29 31zM104 1008q3 27 25 39q20 12 41 5t27 -30q0 -2 1 -4.5t1 -3.5q0 -15 2 -21q-1 -3 -2 -10 t-2 -10q-2 -8 -13 -19l-12 -6q-19 -9 -32.5 -4t-22.5 17q-4 4 -4 6q-9 18 -9 41z" />
<glyph unicode="j" horiz-adv-x="249" d="M41 733q7 24 25 33q6 3 19 8t19 8q5 2 19.5 5.5t21.5 5.5q21 5 39 -13q4 -2 9 -12q1 -4 3 -13.5t3 -13.5v-57q0 -57 2 -84q6 -76 6 -227v-35v-320v-49v-10q0 -47 -17 -125q-9 -54 -43 -94q-16 -19 -36 -19q-17 0 -31 17l-6 12q-9 15 -2 33t14 27q24 38 35 120q2 16 2 50 q2 49 2 149q0 164 -4 496q0 8 -1 24.5t-1 24.5q0 18 -19 18q-2 -1 -6 -2t-6 -2q-17 0 -29.5 10t-15.5 27q-2 2 -2 8zM123 1020q7 14 27 22q17 3 34 -4q22 -10 25 -32v-11q0 -14 -2 -24q-10 -34 -41 -34q-6 0 -12 1q-1 0 -19 6q-7 3 -10 10q-11 18 -11 35q0 16 9 31z" />
<glyph unicode="k" horiz-adv-x="577" d="M41 1063q0 20 14 31q44 28 80 43q17 6 31.5 -2.5t19.5 -24.5q0 -3 1 -7.5t1 -6.5q2 -19 7 -101q0 -148 4 -452v-15l4 -4h6q4 4 14 19q20 38 84 137q8 13 23.5 39.5t23.5 40.5q5 10 17 22q10 13 24 13q12 1 24 -6.5t17 -18.5q7 -26 -2 -49q-14 -28 -20 -37 q-63 -107 -113 -188q-11 -18 -16 -31q-6 -9 -2 -21q0 -6 4 -14q3 -7 16 -39q53 -112 139 -285q2 -5 7 -10.5t6 -7.5q3 -12 16 -12h29q15 -2 28 -19q15 -24 -4 -47q-13 -13 -28 -16q-27 -5 -47 -5q-9 0 -17 1q-28 3 -43 24q-3 6 -10 18.5t-10 18.5q-10 20 -61 123t-75 158 q-1 2 -4 6t-4 6q-7 11 -16 2q-8 -12 -10 -18v-9v-239q0 -14 10 -19l12 -6q14 -7 19 -21t2 -26q-3 -10 -12 -19t-17 -9q-46 -5 -107 -5h-8q-17 3 -26 21q-14 32 12 51q4 2 22 14q1 3 4 8t3 7v43v708q0 34 -3 98t-4 79q0 14 -18 18q-6 2 -20 2q-27 7 -27 39z" />
<glyph unicode="l" horiz-adv-x="301" d="M42.5 1060q1.5 14 10.5 21q1 1 2 3t2 3q48 36 86 48q17 4 32 -5.5t18 -25.5q0 -4 1 -14t0 -15q0 -88 -1 -133q0 -94 4 -141q6 -73 6 -150v-196q2 -98 2 -291v-64q0 -16 16 -22q1 0 8 -2t11 -4q20 -9 20 -35q0 -24 -20 -35q-9 -3 -21 -6q-46 -5 -86 -5q-17 0 -33 1 q-12 0 -22 10t-12 21q-7 30 16 43q4 2 33 12l6 12v29v127q0 78 -1 233.5t-1 233.5q0 71 -6 141q-2 16 -2 35t1 42.5t1 35.5q3 20 -2 34q-4 11 -9 11q-5 1 -14.5 2t-13.5 2q-17 3 -27 20q-6 10 -4.5 24z" />
<glyph unicode="m" horiz-adv-x="866" d="M43 678q-7 24 8 39q44 44 92 63q13 5 29 2q17 -3 27 -20q3 -5 8 -27q7 -3 12 2q1 1 23 17q8 8 28 20q23 10 41 10h37q28 0 51 -20q16 -9 25 -25q26 -30 35 -43q6 -6 12 0l21 21q5 4 16.5 15.5t19.5 17.5q38 31 94 31q9 0 19 -1q12 0 21 -6q48 -15 73 -63q13 -27 19 -52 q14 -63 14 -135v-84q2 -104 2 -311q0 -25 2 -37q0 -4 4 -12q11 -4 33 -17q9 -6 12.5 -19t-0.5 -24q-5 -19 -30 -26q-4 -2 -15 -2q-37 -2 -112 -2q-19 0 -30 15t-5 34q2 12 16 22q4 3 15.5 7t15.5 8q8 4 8 12q2 10 2 29q-2 69 -2 138t2 138q2 18 2 37.5t-2 40.5q0 10 -1.5 42 t-0.5 50q0 21 -18 82q-1 7 -15 25q-11 12 -27 14.5t-30 -6.5q-19 -11 -31 -21q-36 -31 -67 -88q-11 -22 -11 -41q-2 -18 -2 -57v-383v-41q-3 -15 -12 -27q-16 -16 -32 -13.5t-29 18.5q-6 9 -9 18v43v391q0 32 -4 98q0 26 -10 56q-3 12 -20 37q-12 17 -33.5 19.5t-36.5 -9.5 l-10 -10q-42 -42 -68 -90q-10 -23 -10 -41q0 -97 2 -144q2 -80 2 -239q0 -9 1 -29t1 -29q0 -8 12 -16q18 -6 21 -8q20 -10 20 -33q0 -12 -9 -24t-19 -13q-25 -6 -78 -10q-9 0 -28 -1t-28 -1q-12 0 -22 10.5t-12 22.5q-3 33 24 45q4 2 13.5 5t13.5 5l6 12q2 8 2 29 q-1 67 -2 201.5t-2 201.5q-4 78 -8 113q0 21 -23 18h-28q-19 8 -25 25z" />
<glyph unicode="n" horiz-adv-x="624" d="M43 709q4 21 16 28q59 34 97 45q6 2 20 2q19 0 29 -16q4 -6 7.5 -18.5t4.5 -14.5q1 -4 8 -5.5t11 1.5q11 11 26 23q15 10 17 12q29 17 63 17q13 0 27 -3q67 -19 96 -75q33 -58 39 -113q6 -56 6 -107q1 -54 3 -162.5t3 -162.5q0 -9 1 -29t1 -29l6 -12q17 -3 35 -10 q15 -6 23 -25q3 -11 0 -20q-9 -28 -35 -31q-41 -4 -115 -8q-15 -3 -33 8q-9 6 -13.5 20.5t-0.5 24.5q8 20 23 25l12 6q10 4 14 22v7q-1 54 -2 162.5t-2 162.5v43q0 39 -12 113q-2 9 -5.5 18.5t-9 22t-8.5 18.5q-10 18 -37 33q-21 9 -41 -4q-53 -40 -77 -90q-21 -52 -21 -74 q-2 -14 -2 -43v-360q0 -20 21 -27l12 -6q13 -10 16 -23q3 -10 0 -20q-11 -28 -37 -31q-73 -4 -110 -10q-30 -6 -47 24q-8 16 2 35q11 19 26 21q2 1 6.5 2t6.5 2q7 0 12.5 6t5.5 12q0 4 1 13.5t1 13.5v518q0 15 -2 21q0 6 -4 10t-8 2l-12 -4t-15 -4q-19 -6 -36 8.5t-13 34.5z " />
<glyph unicode="o" horiz-adv-x="479" d="M29 487q0 40 18.5 104t40.5 105q27 45 66 64l12 6q48 12 70 16q7 1 14 1q42 0 86 -25q57 -32 86 -101q18 -40 20 -73q12 -67 11 -178v-62q0 -15 -4 -43q-1 -8 -3.5 -24.5t-3.5 -24.5q-2 -26 -14 -76q-20 -74 -82 -129q-25 -22 -55 -31q-29 -8 -41 -10q-10 -2 -21 -2 q-30 0 -62 14q-43 18 -67 52q-30 45 -41 88q-16 58 -16 84q0 4 -2 6zM111 377q2 -13 3 -36t3 -36q2 -22 10 -61q2 -2 2 -8q0 -22 16 -62q13 -39 45 -59q20 -13 43 -13q16 0 33 7q40 15 62 57q16 31 26 72q17 87 17 127q-1 6 -1 13.5t0.5 15.5t0.5 12v27q0 80 -15 142 q-8 39 -37 76q-31 35 -73 35h-15q-43 -3 -69 -43q-4 -6 -8 -18q-15 -31 -35 -101q-4 -12 -4 -20q-5 -57 -5 -95q0 -18 1 -32z" />
<glyph unicode="p" horiz-adv-x="538" d="M18 705q-4 13 2 28t17 21q41 21 80 32q1 0 3 1t3 1q26 0 37 -16q6 -8 14 -24q8 -12 19 -5q4 2 12 7.5t12 7.5q39 22 80 22q29 4 49 -4q53 -14 86 -59q27 -35 39 -74q18 -56 18 -90q1 -15 3.5 -41t3.5 -37q2 -18 2 -36t-2 -36q0 -6 -3.5 -31t-3.5 -38q-6 -68 -32 -146 q-20 -68 -72 -129q-12 -12 -27 -24q-7 -7 -16 -10q-44 -20 -81 -20q-8 0 -15 1q-9 0 -21 4q-37 16 -41 17q-7 3 -11.5 -2t-4.5 -13q0 -10 1 -29t1 -28q2 -12 2 -35q0 -18 -1 -51t-1 -49q0 -4 6 -10q4 -4 14 -7q35 -12 29 -49q-1 -12 -13.5 -21.5t-27.5 -11.5q-18 -1 -53 -2 t-53 -2q-9 0 -15 2q-10 0 -19.5 9.5t-12.5 21.5q-3 9 1.5 20.5t12.5 16.5q4 2 33 14q14 7 14 23v20l1 125v69q0 56 -1 56q0 13 -1 38.5t-1 37.5q0 22 4 72v86q0 42 1 127t1 127v77q0 16 -4 19.5t-16 1.5h-7q-10 -4 -26 4q-11 4 -19 21zM166 213q0 -14 2 -20q0 -18 14 -39 q23 -27 49 -41q19 -10 36 -10q15 0 30 8q19 9 29 22q7 6 20 29q43 64 57 164q1 9 3.5 28.5t3.5 28.5q4 46 4 55q0 79 -13 142q-4 20 -20 51q-15 29 -43 45q-11 8 -27 8q-16 2 -41 -6q-34 -15 -55 -45q-20 -25 -37 -68q-4 -10 -4 -35q-8 -222 -8 -301v-16z" />
<glyph unicode="q" horiz-adv-x="516" d="M27 276q-8 58 -8 122t8 134q6 52 20 97q10 37 39 82q18 27 45 45q36 28 78 28q51 0 92 -30q16 -12 23 -19q2 -1 7 -2t7 -2q1 3 3 10.5t3 10.5q8 21 26 29t38 -1q32 -12 49 -24q15 -12 26 -23q11 -8 15 -24q0 -13 -7.5 -24.5t-19.5 -14.5q-8 -4 -27 -4q-7 0 -12.5 -5.5 t-5.5 -13.5q-2 -12 -2 -35l-1 -49q-1 -49 1 -49q2 -118 2 -141q1 -4 1 -10q0 -33 -3 -130q-2 -117 -2 -139q-4 -140 -4 -211v-51q5 -20 10 -27q4 -7 10 -4q7 2 18 7.5l15 7.5q19 6 35 -6q2 -2 7 -7.5t7 -7.5q11 -22 -2 -41l-10 -10q-23 -18 -62 -35q-33 -10 -63 -2 q-14 4 -21 17q-17 31 -20 61q-4 34 -8 98q0 95 4 142q1 5 1 11t-0.5 13t-0.5 10q0 4 -4 4h-8q-6 -2 -15.5 -10t-13.5 -10q-34 -27 -76 -27h-8h-23q-33 0 -63 27q-46 36 -66 84q-26 64 -28 109q-4 28 -6 40zM102 371q0 -32 19 -148q3 -19 12 -41q19 -37 41 -57 q12 -11 31.5 -13t34.5 7q8 4 12 8q24 18 41 45q6 10 18.5 30.5t18.5 30.5q10 20 10 41v121q0 80 2 119q0 31 -12 55q-29 62 -76 101q-9 9 -18 12q-28 10 -48 -4q-14 -6 -28 -23q-15 -18 -25 -41q-18 -52 -18 -67q-15 -66 -15 -162v-14z" />
<glyph unicode="r" horiz-adv-x="419" d="M47 684q-14 28 12 51q2 1 6.5 3t6.5 3q13 9 59 27q3 1 10 2t11 2q32 3 43 -29q1 -3 3 -10t3 -10q4 -8 10 -2q7 5 19 15.5t14 11.5q35 23 86 30q10 0 14 -2q30 -4 41 -8q19 -6 25 -25q6 -17 0 -34q-3 -14 -15.5 -23t-25.5 -8q-15 0 -21 2q-29 7 -59 -16q-17 -14 -31 -39 q-29 -49 -45 -97q-16 -50 -16 -96l2 -326q0 -14 16 -22q4 0 12 -4q2 -1 6.5 -3t6.5 -3q8 -5 12 -17q7 -14 0 -34q-7 -13 -21 -17q-14 -6 -43 -6h-92q-23 0 -33 23q-6 12 -1.5 27.5t16.5 21.5q2 1 11.5 4.5t14.5 7.5q4 4 7 10q2 2 2 8v29q-1 54 -1 126q0 144 3 361 q0 25 -2 35q-4 11 -11 11q-6 -2 -20 -2q-22 3 -35 22z" />
<glyph unicode="s" horiz-adv-x="454" d="M43 68q3 17 8 26q8 10 23.5 32t23.5 32q1 1 3 2t3 2q8 8 21.5 9t24.5 -5q26 -19 20 -49q-5 -12 8 -25q28 -16 58 -17q5 0 10 1q31 0 49 24q14 21 22 60q3 17 3 34.5t-3 34.5q-9 60 -57 95q-7 4 -21.5 12t-21.5 12q-6 4 -18.5 11.5t-18.5 11.5q-12 5 -26 22q-31 34 -48 86 q-2 4 -2 15q-5 30 -5 58q0 35 7 69q8 43 41 88q7 10 21 20q20 23 53 33q18 4 34 4t30 -4q8 -2 26 -7t29 -7q4 1 15 4t18 4q14 0 26 -10t15 -23q0 -15 -2 -21q-13 -30 -37 -61q-10 -12 -29 -13.5t-29 7.5q-4 3 -7.5 6.5t-7 7.5t-5.5 6q-14 10 -27 13q-21 6 -39 -9 q-12 -8 -16 -14q-32 -42 -32 -91q0 -23 7 -48q12 -42 50 -60q7 -4 21.5 -12t21.5 -12q54 -33 82 -76q30 -47 36 -98q4 -32 3.5 -59t-3.5 -48q-5 -56 -43 -110q-26 -32 -63 -43q-29 -6 -55 -6q-15 0 -29 2q-6 1 -17.5 3t-17.5 3q-10 0 -26 8q-5 3 -15.5 9t-15.5 9 q-14 7 -27 7q-14 0 -20 2q-13 3 -22 16t-7 27z" />
<glyph unicode="t" horiz-adv-x="360" d="M41 735q3 37 39 45q6 1 18 2t17 2q5 0 10 9q4 14 0 43q0 10 -14 10q-2 0 -7 -1t-8 -1q-15 0 -27 13t-12 28q0 14 9 26q2 1 5.5 5.5t4.5 5.5q10 6 29.5 19.5t29.5 19.5q17 11 39 8q11 -1 21.5 -11.5t13.5 -21.5q2 -20 2 -64q0 -64 2 -77q4 -8 10 -11q4 -2 13 -2 q39 0 57 -2q20 0 35 -22q11 -18 8 -33q-2 -14 -19 -31l-12 -6q-6 -2 -20 -2q-18 -2 -56 -2q-4 0 -10 -5.5t-6 -8.5t-1 -10t-1 -11q0 -299 2 -360q3 -91 14 -162q3 -15 13 -25q15 -18 32 -8q5 2 15.5 7.5t15.5 7.5q22 11 47 -7q11 -10 14 -25.5t-4 -25.5q-16 -34 -57 -47 q-18 -6 -39.5 -6t-44.5 6q-46 10 -61 53q-17 59 -19 82q-12 180 -12 289v201q0 27 -2 41q0 4 -4.5 9t-7.5 5q-5 0 -15 1t-14 1q-17 2 -30 16t-13 33z" />
<glyph unicode="u" horiz-adv-x="598" d="M44 736q6 15 17 20q4 2 12.5 6t12.5 6q9 2 27.5 5t27.5 5q1 0 4.5 1t4.5 1q19 3 38 -10q9 -5 13 -16q2 -6 2 -21q2 -23 2 -65q0 -212 2 -318q0 -90 8 -135q2 -10 2 -35q3 -27 16 -53q7 -16 29 -31q13 -5 29 -2q51 18 82 64q6 7 15.5 21.5t12.5 19.5q15 30 15 53 q0 31 1 95t1 97v197q-1 7 -2 21.5t-2 21.5l-6 12q-18 4 -27 9q-20 6 -27 30q-3 9 0 21q11 23 39 26q50 4 78 4q19 0 27 -2q23 -3 29.5 -24.5t-5.5 -34.5q-2 -3 -7 -8t-7 -8q-1 -1 -2 -3t-2 -5.5t-2 -4.5q0 -14 -2 -20v-78v-440q0 -29 2 -35q0 -6 8 -10q2 -1 27 -11 q12 -6 17.5 -19.5t0.5 -27.5t-18 -20q-26 -17 -58 -27q-16 -5 -35 -2q-14 3 -18 10q-5 6 -14 25q-9 9 -19 2q-22 -15 -35 -25q-2 -1 -47 -18q-13 -3 -28 -3q-25 0 -54 9q-30 10 -47 33q-25 32 -35 61q-14 58 -14 76q-4 90 -4 133q1 25 1 52q0 62 -5 133q-2 20 -2 120 q-2 18 -2 58q-2 3 -7 7.5t-8 4.5h-28q-23 0 -33 23q-7 14 -1 29z" />
<glyph unicode="v" horiz-adv-x="538" d="M4 713q-13 22 0 41q4 11 14 14q17 7 33 10q17 2 50 6.5t49 6.5q9 0 20 -6.5t16 -14.5q14 -24 -4 -45q-3 -5 -10.5 -10.5t-9.5 -7.5q-6 -6 -6 -13q0 -36 8 -63q8 -29 22 -83.5t19 -74.5q4 -15 10 -45t10 -45q12 -47 21 -96q4 -14 10 -27q1 -1 4.5 -3.5t5.5 -4.5 q10 31 33 123q8 35 24.5 103.5t24.5 103.5q4 17 11.5 51.5t11.5 52.5q1 6 -3 13t-10 10q-2 1 -6 2t-6 2q-6 2 -14 6q-17 12 -15 34t21 31q2 1 6 2.5t7.5 3t6.5 1.5q24 -2 71 -4.5t71 -4.5q18 -3 32 -24q6 -19 -2 -33q-9 -17 -26 -23q-8 -2 -21 -2q-12 -3 -18 -12l-6 -12 q-4 -20 -16.5 -66t-16.5 -71q-10 -48 -47 -193q-27 -108 -51 -213q-4 -17 -12.5 -52t-12.5 -52q-5 -14 -8 -19q0 -2 -4 -6q-9 -13 -27.5 -14.5t-27.5 8.5q-16 16 -21 31q-2 7 -5 20.5t-5 20.5q-10 39 -15 69q-12 52 -16 76q-8 43 -26.5 122t-22.5 99q-8 33 -24.5 99.5 t-24.5 99.5q0 1 -6 35q-6 24 -31 24q-9 3 -21 6q-7 2 -14 13z" />
<glyph unicode="w" horiz-adv-x="768" d="M6 762q5 13 19 20q10 5 26 9q32 3 64.5 3t64.5 -3q14 0 25 -11q1 -1 3 -2t3 -2q9 -10 8.5 -25.5t-10.5 -27.5q-6 -6 -10 -8q-4 -1 -13.5 -3t-13.5 -3t-8 -7.5t-4 -9.5q2 -8 6.5 -38t9.5 -46q3 -9 8.5 -41t12.5 -49q1 -15 16 -82q11 -59 20 -90q2 -11 6.5 -35t6.5 -35 q3 -17 10 -26q0 -4 4 -4q3 -3 5.5 -1.5t2.5 5.5q6 44 15 84q1 9 2.5 27t3.5 31.5t6 25.5q2 19 11 66t9 73q12 55 15 113q2 14 6 39.5t6 38.5q3 12 16 22q15 8 27 10q11 2 24.5 -5.5t16.5 -16.5q12 -31 14 -53q2 -29 13 -85t12 -63q1 -9 10 -49t10 -62q5 -22 15 -82t18 -92 q0 -10 12 -16h5q1 1 2 3t2 3q1 8 6.5 29.5t7.5 34.5q5 20 13.5 58t13.5 58q2 12 7 38t7 38q2 13 7 38.5t7 39.5q6 44 15 90v6q1 4 -2.5 10.5t-8.5 8.5q-3 1 -9.5 2t-10.5 2q-17 7 -22.5 25.5t3.5 33.5q9 16 29 19q4 2 14 2h29h21h57q17 0 31 -17q12 -13 9 -31.5t-20 -27.5 q-6 -4 -18 -8q-10 -3 -14 -17q-13 -65 -15 -90q-7 -56 -16 -90q-17 -87 -33 -152q-43 -200 -51 -249q-6 -40 -18 -76q-3 -11 -13 -25q-7 -13 -23.5 -19t-31.5 -1q-13 3 -23 16q-10 15 -14 39q-3 20 -16 84q-4 25 -14 71.5t-11 53.5q0 3 -8 43t-10 61q-5 33 -19 82q0 3 -4 7 q-4 -4 -4 -7q-12 -54 -18 -104q-14 -71 -15 -90q-15 -92 -43 -215q-7 -20 -20 -31q-9 -9 -25 -12q-14 0 -20 2q-13 1 -25.5 12t-15.5 23q0 1 -1 3t-1 3q-2 18 -9.5 55t-9.5 57q-1 12 -7 37t-7 39q-6 28 -17.5 83.5t-17.5 82.5q-3 12 -22 100.5t-27 135.5q-2 10 -7 33t-7 36 q-3 11 -15 15q-5 1 -14 2t-14 2q-15 6 -22 21t-1 30z" />
<glyph unicode="x" horiz-adv-x="583" d="M43 8q-3 13 4 24.5t19 16.5l18 6q22 6 33 27q35 80 119 287q12 23 0 47q-11 28 -33.5 84.5t-41 100.5t-36.5 83q-3 9 -16 12q-15 0 -21 2q-10 0 -14 2q-12 2 -25 23q-10 19 8 41q6 6 31 16q10 0 14 2q36 0 93 11q11 2 32 -11q11 -8 15 -23.5t-2 -27.5q-2 -2 -5.5 -5 t-5.5 -5q-8 -12 -12 -16q2 -14 16 -48q6 -13 25.5 -62.5t32.5 -74.5q3 -6 12 -2q4 4 4 6q48 98 70 170q6 9 -6 17q-3 2 -9.5 6t-9.5 6q-15 15 -12 39q3 22 27 29q8 4 14 4q15 1 46 4t46 4q11 0 35 -4q13 -3 20 -17q7 -11 7 -20q0 -23 -21 -35q-16 -5 -20 -8q-7 -2 -15 -14 q-3 -5 -8 -19q-10 -25 -30.5 -75.5t-30.5 -75.5q-27 -63 -31 -72q-5 -12 -16.5 -35.5t-16.5 -34.5q66 -181 125 -309q10 -13 23 -16q2 -1 14 -5q4 0 12 -4q19 -11 21 -26q4 -25 -17 -39q-8 -4 -12 -4q-42 -11 -94 -11q-12 0 -25 1q-8 0 -28 8q-24 14 -21 41q0 10 8 18t17 14 t6 19q-1 2 -2 7t-2 7q-29 74 -66 156q-1 3 -5 9t-5 9q-8 -8 -16 -24q-10 -26 -31 -76t-31 -76q0 -10 -2 -14q0 -8 6 -12q2 -2 9 -6t8 -5q24 -15 18 -43q-1 -10 -11.5 -20t-21.5 -12h-8q-112 -5 -133 -5q-3 0 -7.5 1t-6.5 1q-14 3 -17 13q-8 12 -8 18z" />
<glyph unicode="y" horiz-adv-x="557" d="M0 750q-3 15 8.5 29t26.5 16q47 4 141 4q26 0 39 -27q4 -11 0.5 -24t-12.5 -19q-6 -5 -25 -14q-8 -5 -8 -19q29 -137 39 -172q12 -41 45 -178q22 -98 31 -131l4 -4q1 1 3 2t3 2q8 14 12 33q5 30 16.5 86.5t16.5 81.5q37 181 51 235q1 6 6 41q0 14 -14 23q-17 13 -21 18 q-13 19 -2 41q13 20 35 23q74 4 113 8q13 2 33 -10q3 -3 8 -13q7 -15 0 -33t-27 -22q-2 -1 -7 -2t-7 -2q-11 -4 -14 -12q-1 -2 -5.5 -12t-5.5 -15t-30 -154q-21 -88 -39 -180q-6 -34 -35 -172q-54 -247 -90 -364q-21 -66 -25 -74q-5 -13 -16 -31q-14 -19 -45 -16h-6 q-61 21 -88 28q-25 11 -25 39q-1 18 15 31t32 8q38 -9 49 -8q7 0 13 6q4 8 4 13q25 84 51 184q-7 30 -21.5 89.5t-21.5 88.5q-33 140 -39 174q-3 20 -13 56t-12 47q-37 133 -59 247q-3 11 -14 15q-6 1 -17.5 2t-17.5 2q-12 1 -21.5 12t-11.5 23z" />
<glyph unicode="z" horiz-adv-x="464" d="M43 37q-3 24 2 43q2 5 6 16.5t6 16.5q25 82 66 172q15 38 45.5 114.5t46.5 114.5q23 60 53 154q1 4 -2 9t-8 7q-24 1 -45 1q-36 0 -68 -3l-12 -6q-3 -6 -8 -19.5t-8 -19.5q-5 -14 -17.5 -20.5t-27.5 -2.5q-20 3 -27 23q-2 6 -2 20v21q2 14 5.5 28.5t9 33t8.5 28.5 q2 6 12 16q20 20 39 9q30 -13 59 -13h10h41h92h23q17 -2 30 -21t9 -36q-5 -21 -16 -55q-33 -81 -50 -140q-15 -42 -39 -98q-14 -34 -41 -101.5t-42 -101.5q-34 -84 -43 -121q-3 -6 8 -10h6q47 0 149 4q12 4 17 11q4 10 12 26q1 2 3 6.5t3 6.5q9 15 29.5 17t32.5 -11 q7 -11 10 -19q4 -9 2 -14q-11 -51 -23 -80q-9 -19 -22 -29q-7 -4 -21 -8q-6 -2 -20 -2q-38 0 -113.5 -1t-113.5 -1q-23 0 -35 2t-21 11t-10 22z" />
<glyph unicode="{" horiz-adv-x="604" d="M63 752q-4 36 21 49q26 11 43 16q19 8 31 10q15 2 30 25q29 59 31 104v54q0 237 2 354q0 19 2 40.5t5.5 47.5t4.5 39q7 55 52 121q71 105 209 108q12 0 18 -2q12 -8 14 -14q7 -15 2.5 -31t-18.5 -24q-6 -3 -16 -7.5t-13 -5.5q-8 -3 -28.5 -10.5t-30.5 -11.5 q-44 -17 -66 -62q-38 -59 -45 -149q-5 -64 -7 -144t-1 -144.5t0 -143.5q0 -49 -4 -72q-13 -75 -55 -123q-9 -10 -9 -16t9 -19q5 -8 9.5 -17t7.5 -16t6 -18.5t4.5 -17.5t4 -19t3.5 -17.5t3 -19.5t3 -18q2 -16 5 -48.5t5 -49.5q1 -17 3 -49l3 -48q0 -40 2 -63q1 -17 1 -48.5 t1 -57t4 -48.5q2 -19 2 -118q3 -51 19 -111q12 -51 59 -72q45 -20 74 -24q39 -5 53 -8q22 -6 25 -29v-23q-3 -30 -33 -30h-25q-94 8 -149 41q-81 47 -96 141q-11 68 -11 113q0 1 -6 100q-2 45 -2 131q-1 17 -3 48.5t-3 47.5q-2 12 -2 37q0 60 -21 188q-3 29 -16 58 q-12 39 -53 39q-8 2 -23 2q-14 3 -24 13t-11 22z" />
<glyph unicode="|" horiz-adv-x="243" d="M61 1624q0 40 45 37q22 -4 27 -19q8 -21 8 -53q0 -29 1 -86t1 -86q0 -61 4 -90q3 -20 3 -80q1 -12 1.5 -41.5t1.5 -50t5 -39.5v-12q1 -47 6.5 -159.5t5.5 -174.5v-289q1 -15 2.5 -42t2.5 -49t1 -42q0 -71 2 -108q0 -5 1 -16.5t1 -16.5l1 -46q1 -46 -1 -46q-6 -66 0 -133 v-58q-5 -50 -6 -59q-4 -23 -8 -29t-25 -24h-26q-32 26 -23 75q6 35 6 70v231q0 109 -2 160q-6 94 -6.5 264.5t-1.5 216.5q0 87 -6 115v8q-6 144 -12 291q0 23 -3 64t-4 51v198q-2 23 -2 68z" />
<glyph unicode="}" horiz-adv-x="618" d="M64.5 1672q-6.5 15 1.5 34q8 23 24 23q87 7 148 -19q10 -4 18.5 -9.5t17.5 -14t13.5 -13.5t14.5 -17t13 -16q46 -57 58 -133q2 -15 5 -47t5 -47q7 -44 8.5 -92.5t0 -110t-0.5 -92.5v-215q0 -34 2 -41q7 -39 45 -45q6 -1 29.5 -5t38.5 -3h16q15 -3 24 -13t11 -24v-22 q-4 -21 -25 -25q-10 -2 -28 -2q-46 3 -68 -43q-10 -21 -16 -43q-18 -72 -27 -152q-2 -16 -2 -49v-420q0 -49 -8 -90q-11 -59 -55.5 -100t-112.5 -47q-14 -2 -86 -2q-17 0 -41 16q-13 9 -13.5 25t11.5 26q17 17 35 17h51q17 0 49 8q59 14 76 82q12 62 10 94v410q0 88 23 188 q2 8 6 24.5t6 24.5q1 2 10 21t10 30q0 10 -15.5 22.5t-18.5 16.5q-21 35 -21 66v108v324q0 10 -1 21.5t-2.5 25t-2.5 21.5q0 6 -1 18t-1 18q0 52 -23 134q-14 56 -63 98q-9 10 -35 18q-19 7 -53 11q-30 5 -35 6q-19 6 -25.5 21z" />
<glyph unicode="~" horiz-adv-x="475" d="M63 758q27 84 109 92q19 0 37 -6q47 -23 49 -25q21 -14 39 -14q26 0 37 20q1 3 3 8.5t3 8.5q19 26 49 16q12 -6 19 -20t4 -29q-18 -59 -76 -80q-13 -4 -39 -8q-41 3 -82 29q-3 2 -10 6t-10 6q-36 16 -54 -19q0 -1 -2 -6.5t-4 -7.5q-15 -31 -47 -20q-15 6 -22 20t-3 29z " />
<glyph unicode="&#xa1;" horiz-adv-x="206" d="M43 1067q1 5 1 14.5t1 14.5q1 12 11 20t22 10h18h23q37 -7 43 -36q10 -34 -7 -59.5t-59 -22.5q-22 2 -39 17t-14 42zM63 -268q1 26 3.5 79t3.5 80q2 74 2 224v596q0 31 2 45q0 13 8.5 21.5t21.5 10.5h19q30 0 33 -30v-37v-438q3 -268 -9 -562q-1 -3 -1.5 -12t-2.5 -14 q-8 -20 -18 -25q-22 -14 -42 -2.5t-20 37.5v27z" />
<glyph unicode="&#xa2;" horiz-adv-x="477" d="M45 571q-7 130 4 234q8 99 51 184q19 46 58 72q6 4 22 16q8 8 8 19q2 27 2 78q1 10 2.5 31.5t2.5 31.5q0 11 8 27l10 10q27 17 51 -4q6 -6 10 -19q2 -10 2 -28q0 -13 -1 -39t-1 -39q0 -29 2 -43q0 -13 11 -17q44 -14 69 -34q19 -16 39 -13q7 0 15 -4q13 -4 20 -18t4 -27 q-14 -53 -39 -115q0 -1 -1 -3t-1 -3q-8 -14 -24.5 -18.5t-30.5 2.5q-24 17 -21 43q9 27 13 41q3 9 -6 18q-6 11 -27 23q-4 0 -8 2q-7 0 -10 -6q-5 -7 -5 -21v-481q0 -19 5 -29q0 -2 4 -2q3 -3 6 0q7 5 17.5 17t12.5 14q16 16 19 18q10 8 25 8.5t28 -10.5q7 -7 10 -16 q3 -21 -2 -37q0 -6 -8 -18q-7 -9 -22.5 -27t-22.5 -27q-17 -20 -45 -34q-6 0 -12 -6q-15 -9 -15 -25v-78q0 -23 -2 -35q-3 -12 -16 -22q-17 -9 -35 -2.5t-22 24.5q-6 18 -6 21q0 15 -5 92q0 11 -8 16q-12 9 -24 15q-30 18 -50 51q-30 43 -45 96q-13 52 -16 96zM127 745 q-13 -103 6 -204q14 -60 39 -99l4 -4q2 -2 8 -2l4 4q0 3 1 10.5t1 10.5v241q0 24 3 64q2 41 -3 170q0 1 -1 3t-1 3l-4 2q-6 0 -8 -2l-6 -12q-34 -86 -39 -144q0 -13 -4 -41z" />
<glyph unicode="&#xa3;" horiz-adv-x="702" d="M43 35q10 29 18 39q4 5 12.5 16t12.5 16q69 96 111 244q20 69 10 148q0 10 -8 34q-7 21 -25 21h-78q-8 0 -28 4q-7 0 -13 6q-12 17 -9.5 36t20.5 32q7 5 20 8q7 0 21 1t20 1h14q13 1 19.5 9.5t3.5 19.5q-6 16 -17.5 50t-17.5 50q-7 22 -35 100q-23 65 -37 158 q-10 70 4 127q12 59 19 82q36 104 131 174q34 24 76 33q4 1 11 2t11 2h64q56 0 110 -41q31 -25 52 -59q3 -4 11.5 -18.5t14.5 -22.5q1 -2 5 -4.5t5 -2.5q3 2 9.5 6.5t9.5 6.5q12 10 29 6t26 -21q11 -19 0 -47q-3 -9 -12 -18q-24 -30 -27 -33q-39 -44 -53 -65q-6 -9 -14 -17 q-15 -15 -39 -12q-22 3 -31 21.5t2 37.5q3 5 10.5 14.5t10.5 14.5q8 16 2 27q-8 24 -35 69q-17 33 -56 53q-24 12 -55 15h-6q-51 -6 -96 -41q-12 -9 -21 -21q-48 -59 -69 -137q0 -3 -1 -10t-1 -10q-4 -25 -4 -72q0 -41 20 -119q14 -40 45.5 -134.5t50.5 -145.5q1 -1 2 -3 t2 -3q14 -9 19 -9q61 0 92 2h78h35q21 -3 32 -24q8 -16 2 -35q-15 -26 -39 -29q-4 0 -13 -1t-13 -1q-25 -2 -72 -2q-9 0 -28 -1t-29 -1q-3 0 -10 -1t-11 -1q-6 -1 -11 -7.5t-5 -12.5q0 -25 2 -35q9 -60 0 -121q-8 -56 -31 -123q-2 -9 -8 -26.5t-8 -26.5q0 -5 2.5 -12t5.5 -7 l8 -4q48 -15 63 -22.5t56 -36.5q7 -4 32.5 -20.5t39.5 -24.5q16 -8 33 2q12 6 22 16q22 19 35 45q3 6 9 19.5t9 19.5q2 4 6.5 12.5t6.5 12.5q4 6 17 11t21 3q24 -4 34 -22t7 -39q-9 -46 -36 -84q-22 -36 -52 -60q-27 -27 -69 -30q-35 -3 -70 0q-17 3 -26 10q-53 35 -89 59 q-7 4 -21.5 12.5t-21.5 12.5q-20 10 -49 10q-19 -3 -30 -14q-22 -20 -48 -53q-19 -24 -28 -31q-24 -21 -45 -15t-29 29q-5 13 -2 29z" />
<glyph unicode="&#xa4;" horiz-adv-x="610" d="M43 1069q-3 26 20 39q24 14 46 -8l10 -15q8 -13 23.5 -37t23.5 -36l14 -21q37 31 125 39q61 5 129 -33q2 2 11.5 17.5t15.5 23.5q12 21 35 56q19 25 47 16q15 -4 21.5 -20t0.5 -31q-1 -4 -10 -17q-6 -9 -26.5 -40.5t-30.5 -49.5q-1 -2 -5.5 -8t-5.5 -8q2 -7 8 -23t7 -24 q14 -53 14 -135q0 -58 -10 -133q-3 -19 -21 -70q-4 -14 -8 -21q4 -6 12.5 -18t12.5 -18q6 -11 24 -38.5t27 -43.5q2 -2 5.5 -8.5t4.5 -8.5q10 -28 -14 -45q-10 -8 -24 -7.5t-23 9.5q-3 3 -8.5 10.5t-8.5 10.5q-13 22 -53 82l-6 12q-124 -80 -244 -6q-2 -2 -5 -6t-5 -6 q-38 -59 -49 -78q-4 -6 -17 -19q-20 -20 -45 -2q-24 17 -14 45q8 17 16 27q12 17 34.5 52t33.5 52q-9 35 -20 88q-22 95 -13 205q2 14 6 28t11 34t10 28q1 2 3 6.5t3 6.5q-1 3 -4 8t-4 6q-12 18 -35 54t-35 54q-6 9 -10 25zM172 723q6 -75 27 -141q7 -23 18 -43 q34 -49 92 -43q45 6 76 41q37 39 47 110q4 35 8 105q-1 12 -2 35.5t-2 35.5q-7 54 -24 80q-18 35 -52 47q-39 15 -63 13q-55 -8 -74 -39q-32 -46 -45 -109q-9 -46 -6 -92z" />
<glyph unicode="&#xa5;" horiz-adv-x="858" d="M43 1403q0 23 23 33q6 3 26 8q20 4 29 4q71 3 141 0q13 0 24.5 -10.5t14.5 -24.5v-8q-7 -29 -31 -35q-5 -2 -15 -4t-11 -2q-8 -3 -8 -12t2 -13q8 -22 23.5 -63.5t23.5 -63.5q16 -35 32 -86q39 -118 103 -301q2 -5 7 -15t7 -15l6 -7l9 9q4 4 8 12q5 16 33 106t42 138 q22 77 56 213q4 15 12 46.5t12 47.5q1 4 -3 10t-7 6q-11 1 -32 2t-31 2q-25 3 -31 25q-10 22 6 41q14 14 31 14q20 1 60.5 2t62.5 2q12 0 45 -1t53 -1q4 0 20 -4q10 -1 19.5 -11.5t11.5 -21.5v-14q-1 -10 -9.5 -19.5t-16.5 -11.5q-4 0 -11 -1t-10 -1q-29 0 -43 -2 q-12 0 -16 -12q-4 -13 -10.5 -37.5t-10.5 -36.5q-11 -43 -39.5 -152.5t-44.5 -168.5q-40 -148 -90 -277q-13 -30 -22 -59q-5 -10 -5 -29q0 -3 5 -8.5t8 -5.5q7 -2 19.5 -2.5t15.5 -1.5q46 0 71 -2q16 0 27 -21q14 -26 -8 -51q-7 -10 -19 -10q-10 -2 -35 -2q-23 -2 -69 -2 q-8 0 -12 -9q-10 -16 0 -32q0 -6 10 -11q2 0 6 -1t6 -1h64q20 0 28 -2q17 -3 25 -14q19 -25 2 -51q-11 -19 -29 -19q-31 -2 -92 -2q-6 0 -14 -4q-8 -8 -9 -10q-4 -8 -4 -12v-213q5 -37 7 -43q4 -8 10 -8q7 -1 21.5 -2.5t21.5 -2.5q4 0 20 -4q11 -3 17 -10q12 -17 7 -35 t-22 -26q-2 -1 -6 -2t-6 -2q-2 0 -4.5 -1t-3.5 -1q-25 0 -96 -2t-109 -1h-14q-24 7 -33 25q-10 22 6 41q11 14 25 14q9 1 27.5 2t27.5 2q6 3 10 11q2 4 2 14q0 166 -2 248v6q-1 4 -6 9t-8 5q-18 2 -58 2q-29 0 -43 2q-15 2 -26 21q-9 20 2 41q6 12 29 20q8 2 26 2 q11 1 32.5 2t31.5 2q20 0 20 23v14q-2 5 -6.5 10t-7.5 5q-44 0 -64 2q-25 0 -37 2q-6 0 -18 8q-11 9 -11.5 27t9.5 32q13 13 23 13q27 2 77 6q4 0 11 1t10 1q4 1 8 7t4 9q-1 4 -2 11t-2 10q-11 37 -41 121q-16 46 -46.5 138t-45.5 138q-30 90 -57 160q-7 18 -20 51t-23.5 61 t-18.5 52q-6 14 -22 14q-6 1 -18.5 1t-18.5 1q-14 1 -23.5 13.5t-7.5 25.5z" />
<glyph unicode="&#xa6;" horiz-adv-x="180" d="M41 61q0 19 4 39v15q0 96 2 143q0 13 4 25q4 21 33 24q23 3 32 -5.5t9 -31.5v-104q0 -44 -4 -62v-159v-140q0 -12 -4 -24l2 2q-4 -14 -18.5 -22.5t-28.5 -8.5q-23 7 -31 31v278zM55 643v279q0 19 4 39v14q0 96 2 143q0 10 5 25q4 22 32 24q23 3 32 -5.5t9 -31.5v-104 q0 -43 -4 -61v-160v-139q0 -13 -4 -25l2 2q-4 -14 -18.5 -22.5t-28.5 -8.5q-23 7 -31 31z" />
<glyph unicode="&#xa7;" horiz-adv-x="606" d="M43 -387q30 83 35 100q3 10 10 30t10 30q2 6 9.5 17t9.5 13q9 14 24.5 18t30.5 -3q11 -6 16.5 -19.5t1.5 -23.5q-2 -8 -12 -27.5t-12 -32.5q0 -2 1 -6t1 -6q1 -1 2 -3t2 -3q5 -4 14 -12t13 -11q32 -22 71 -28q63 -8 125 20q19 8 37 33q31 56 35 92q0 4 2 13.5t2 13.5 q2 12 2 35q-9 62 -14 77q-29 109 -84 195q-33 51 -70 88q-35 34 -104 106q-22 22 -47 54q-51 64 -62 133q-14 41 -14 127q2 47 24 117q7 26 29 63q10 12 21 31q4 11 -2 20q-1 2 -23 35q-31 68 -35 92q0 4 -1 9t-2.5 11t-2.5 9q-4 17 -8 55v43q0 32 10 70q14 52 21 67 q28 70 79 115q39 34 74 39q13 5 29 8t26 3.5t31 1.5t27 1q61 0 92 -8q4 0 12 4q4 2 12.5 8.5t12.5 8.5q12 6 26.5 2t22.5 -15q11 -15 8 -26q-4 -12 -31 -140q-1 -3 -10 -26q-9 -18 -28 -20.5t-31 8.5q-15 12 -15 30q3 31 9 56q3 25 -25 28q-23 4 -70 4q-35 0 -84 -18 q-33 -15 -49 -39q-39 -52 -49 -100q-11 -57 -12 -64q-3 -95 51 -180q23 -36 53 -66q9 -10 28 -28.5t28 -28.5q39 -39 77 -80q45 -48 82 -117q38 -74 58 -151q17 -71 20 -127q2 -37 -8 -90q-2 -6 -5 -20.5t-5 -20.5q-14 -44 -35 -70q-5 -8 -7 -11t-4.5 -8t-2.5 -6t0.5 -5.5 t1.5 -6.5t3.5 -8.5t4.5 -11.5q4 -11 12 -31.5t8 -21.5q31 -89 37 -174q6 -86 -33 -172q-10 -27 -28 -48q-39 -47 -107 -67q-58 -12 -84 -12q-27 -1 -106 12q-7 0 -19 8q-8 3 -24.5 12t-20.5 11q-9 4 -16 -7q-10 -10 -14 -16q-6 -8 -25 -12q-30 0 -41 22q-5 13 -2 29z M166 604q0 -11 10 -61q18 -75 68 -131q6 -7 18.5 -21.5t18.5 -21.5q135 -141 147 -154q4 -3 10 -3t8 3q2 5 7 16t6 17q7 30 14 69v23q-9 58 -14 84q-21 81 -66 164q-33 56 -80 106q-13 13 -75 76q-4 5 -13 3.5t-12 -7.5q-18 -27 -27 -57q-20 -66 -20 -105z" />
<glyph unicode="&#xa8;" horiz-adv-x="385" d="M49 1341q-14 39 0 66q15 27 45 27q42 0 53 -25q4 -6 7 -19.5t4 -15.5q1 -32 -24.5 -48.5t-55.5 -10.5q-22 6 -29 26zM233 1341q-14 39 0 66q15 27 46 27q42 0 53 -25q3 -6 6 -18.5t4 -16.5q1 -32 -24.5 -48.5t-55.5 -10.5q-22 6 -29 26z" />
<glyph unicode="&#xa9;" horiz-adv-x="745" d="M41 733q0 3 1 8.5t1 8.5v10v6v16q9 63 23 97q3 13 14 32l10 21q10 20 27 37q4 4 12 16q13 18 39 33q9 8 33 22q2 1 32 13q11 6 37 10q2 0 7.5 1t7.5 1q46 8 80 8q22 0 34 2h11q2 0 4.5 -1t3.5 -1q26 0 49 -10q21 -4 39 -12q6 -3 26 -15q1 -1 5 -2t6 -2q16 -8 30 -22 q2 -2 10 -8t11 -11q8 -4 20 -20q18 -18 35 -49q1 -1 7 -12t8 -17q1 -2 3 -7t3 -7q3 -8 14 -45l4 -13l10 -53q2 -4 2 -12q2 -12 2 -37q3 -34 -10 -80q-2 -18 -10 -49l-2 -10q-6 -22 -18 -43l-7 -9q-6 -10 -18 -26q-2 -2 -6 -6.5t-7.5 -8t-7.5 -6.5q-47 -43 -77 -55 q-3 -2 -9.5 -6t-9.5 -6l-22 -11q-21 -12 -56 -18q-8 -2 -25 -5.5t-24 -4.5q-4 -2 -10 -2h-10q-1 0 -2 1t-2 1q-2 0 -7 -1t-8 -1h-14l-37 6q-19 0 -37 6h-2q-6 0 -10 2q-30 9 -70 33q-30 19 -43 37q-16 21 -32 47q-19 26 -31 55l-21 51q-6 24 -6 27q0 12 -2 18q0 2 -1 6.5 t-1 6.5q0 1 -1 4.5t-1 5.5q0 6 -2 8v25q0 4 -1 11t-1 11zM102 760q-2 -21 2 -62v-16v-4q0 -1 1 -3.5t1 -4.5q5 -10 5 -15q0 -16 6 -28q1 -4 4 -13.5t4 -13.5q1 -3 4.5 -11t5.5 -11q11 -27 27 -50q2 -2 10 -14q2 -2 5 -6t5 -6q21 -28 43 -39q7 0 13 -6q8 -4 12 -4l6 -4 q22 -9 29 -9q4 -2 10 -2t10 -2q21 -6 57 -6q25 0 39 2q2 2 7 2l2 2h4q22 2 51 15q49 25 63 34q7 4 37 29l10 8q7 7 15 19q9 9 18 24q13 23 17 33q0 11 4 31q2 8 6 28q8 28 8 35q0 6 -1 17.5t-1 17.5v33l-2 2v2q-4 26 -8 41q-4 12 -4 18q-4 20 -11 29l-2 2v2q-1 3 -3 8t-3 8 q-2 0 -2 2q-4 4 -4 7q-6 18 -14 26l-2 4q-19 30 -39 45q-5 0 -10 9l-11 8l-10 8q-2 0 -10 4t-10 6q-3 2 -8.5 3.5t-6.5 2.5q-3 1 -8 3.5t-8 3.5q-2 0 -6 1t-6 1q-13 6 -35 10q-53 0 -80 -2q-19 0 -29 -2q-2 0 -6.5 -1t-7.5 -1q-2 0 -6.5 -1t-7.5 -1l-2 -2q-35 -6 -60 -25 l-16 -10q-15 -8 -29 -25q-4 -4 -6 -8l-6 -6q-3 -5 -10 -14t-9 -13q-2 -3 -9 -16t-9 -19q-8 -19 -14 -47q-1 -3 -2.5 -8t-2.5 -8q-5 -35 -4 -43v-4zM258 698v13v24q3 74 27 133q16 37 49 54q13 8 35 8q16 0 34 -6q32 -9 56 -37q6 -6 6 -19v-12q0 -16 -14 -25h-2q-4 -2 -11 -2 q-14 0 -20 9q-1 0 -2 1t-2 1l-6 6q-10 10 -37 20h-2q-20 -8 -25 -22q-8 -13 -22 -68v-4q-7 -57 -5 -90q0 -48 21 -86l2 -4q0 -6 4 -6q8 -11 14 -11q5 0 11 3q17 3 28 20l5 7q6 7 10 11q9 9 20 9q20 0 27 -17q9 -18 -2 -37q-20 -28 -35 -41q-24 -18 -53 -18h-21q-18 0 -31 10 q-20 13 -30 37q-17 31 -25 68q-4 19 -4 71z" />
<glyph unicode="&#xaa;" horiz-adv-x="368" d="M43 930q-3 44 0 84q3 45 23 78q33 54 94 65h-2q25 10 63 10q1 0 8 2t11 2h16v62q0 22 -8 76v-4q-16 28 -33 45q-3 7 -27 0q-37 -3 -57 -23l-2 -3q-2 -2 -4 -3q-6 -6 -8 -16q-9 -27 -43 -19q-8 2 -15.5 9.5t-7.5 17.5q-2 31 21 61q45 55 114 58q34 0 60 -13q21 -6 37 -28 h-2q28 -30 38 -80q5 -50 5 -62v-153q2 -25 2 -82q0 -13 1 -40t1 -42v-94q-6 -25 -35 -21q-22 0 -31 25l-2 2l-6 -6l-4 -2q-27 -32 -69 -38.5t-68 9.5q-5 4 -11.5 9t-14 12t-11.5 10q-30 45 -33 92zM109 952q5 -28 20 -55q16 -16 36 -19.5t34 9.5q17 22 22 33l27 47q1 2 4 7 t4 7v111h-25q-15 -5 -20 -5q-3 -1 -11.5 -1.5t-15 -1.5t-12.5 -5q-48 -18 -57 -59q-6 -30 -6 -68z" />
<glyph unicode="&#xab;" horiz-adv-x="720" d="M43 745q-4 40 33 48q23 6 90 41l20 10q7 4 21.5 13t21.5 13q83 50 101 64q25 16 53 12q25 0 31 -31q0 -28 -23 -43q-97 -56 -143 -73q-38 -17 -57 -28.5t-15 -18.5q11 -19 79 -42.5t87 -35.5q4 -2 17.5 -10t21.5 -11l14 -8q20 -12 17 -37q0 -28 -33 -28h-2q-16 -2 -25 2 q-2 0 -5.5 1t-4.5 1q-13 8 -24.5 13t-14.5 7l-12 6q-53 27 -96 47q-1 0 -21.5 8t-28.5 13q-7 3 -23.5 10t-23.5 10t-19.5 10t-17.5 9q-15 12 -18 28zM309 745q-4 40 33 48q23 6 90 41q2 0 21 10q7 4 21.5 13t21.5 13q78 47 100 64q25 16 53 12q25 0 31 -31q0 -28 -23 -43 q-97 -56 -143 -73q-38 -17 -57 -28.5t-15 -18.5q11 -19 79 -42.5t87 -35.5q4 -2 17.5 -10t21.5 -11l15 -8q19 -12 16 -37q0 -28 -33 -28h-2q-16 -2 -25 2q-2 0 -5.5 1t-4.5 1q-13 8 -24.5 13t-14.5 7l-12 6q-53 27 -96 47l-49 21q-7 3 -23.5 10t-23.5 10t-19.5 10t-17.5 9 q-16 13 -19 28z" />
<glyph unicode="&#xac;" horiz-adv-x="1077" d="M41 813v16q11 25 33 33h286q3 0 10.5 -1t10.5 -1h205q14 -2 67 -6h27q94 0 139 -2q107 0 160 -2l15 -4q16 -3 24 -4q14 -5 18 -23v-8v-295q0 -19 -6 -27q-14 -20 -41 -16q-21 7 -24 29q-1 4 -2 9.5t-1.5 8.5t-0.5 6v228v20q-6 2 -19 2h-180q-74 0 -139 8h-17 q-171 8 -420 4h-100q-3 0 -11.5 3t-13.5 4q-6 2 -12 9.5t-8 8.5z" />
<glyph unicode="&#xad;" horiz-adv-x="454" d="M41 641q0 39 35 45q6 2 18 2h74q28 4 55 4h158q19 -3 26.5 -12.5t4.5 -30.5q-1 -18 -9 -24.5t-26 -6.5h-58q-18 3 -45 -2h2q-10 -2 -34 -2q-28 0 -68 -4h-96q-19 0 -26.5 7.5t-10.5 23.5zM47 754q0 39 39 39q26 0 84 4q6 0 18.5 1t18.5 1q62 4 100 4q28 0 74 -4 q11 -2 20.5 -10.5t10.5 -18.5q6 -37 -29 -43l2 2q-10 -4 -23 -4h-126q-4 0 -11.5 -1t-11.5 -1q-8 0 -16 -2q-40 -4 -72 -4q-5 0 -16.5 -1t-16.5 -1q-8 0 -14 2q-31 3 -31 37z" />
<glyph unicode="&#xae;" horiz-adv-x="745" d="M41 795q0 29 2 43v4q13 69 23 94q25 55 53 86q0 1 1 3t1 3q6 6 8 10q10 15 43 35q21 16 29 19q3 1 6 2.5l6 3t4 2.5q3 1 8 3t8 3q29 8 41 10l13 2q27 6 73 6q9 0 41 4h2q2 0 5 -1t4 -1h4q35 -5 41 -6q8 0 12 -4q8 -4 14 -4q9 -4 23 -8q10 -6 26 -14q4 0 9 -5 q23 -10 37 -24l10 -10q21 -14 43 -45q17 -20 26 -48q0 -2 2 -2q22 -42 27 -73q7 -26 14 -62v-18q2 -4 2 -17q0 -2 1.5 -7t1.5 -7q0 -36 -9 -80l-16 -61q-3 -22 -18 -43q-17 -26 -23 -33q-3 -4 -10.5 -11.5t-10.5 -11.5q-51 -44 -79 -57q-7 -3 -21 -12q-46 -24 -82 -29 q-5 -1 -14 -3t-14 -3l-7 -2q-3 0 -9.5 -1t-10.5 -1h-8h-8h-13h-12q-11 0 -31 4q-3 1 -10.5 2t-11.5 2q-3 0 -10 1t-11 1h-2v2h-4q-2 2 -6 2q-45 19 -64 31q-26 12 -57 51q-4 4 -8 12q-1 1 -3 4.5t-3 4.5q-33 45 -49 96q-1 2 -3.5 6t-3.5 6q0 2 -1 5t-1 5q-10 17 -10 31 q0 17 -4 27q0 8 -2 10v14v2q-4 36 -4 52zM100 801q0 -31 2 -47q0 -3 1 -9.5t1 -9.5v-8q0 -2 2 -4q0 -4 1.5 -11.5t1.5 -11.5q1 -3 3 -10t3 -10q4 -6 8 -18q0 -2 1 -5t1 -4q10 -30 39 -78q1 -1 8.5 -10.5t11.5 -15.5q21 -25 39 -35q2 -1 7.5 -3t7.5 -3q3 -1 13 -6t15 -6 q10 -2 19 -7h8q3 0 7 -1t5 -1q27 -6 55 -6h21q10 0 16 2q1 1 29 6q31 6 61 23q4 4 7 4q5 5 14 8q18 8 67 47q13 13 17 21q2 2 4.5 5.5t4.5 6t4.5 6t4.5 6.5l2 7q11 14 13 26q2 10 7 31t7 31q0 2 1 6.5t1 7.5q4 17 2 27v45v8v10q-4 9 -8 31q-7 37 -17 61l-2 4q-4 3 -8 17 q0 2 -2 4l-4 8q-2 2 -2 4q0 1 -1 3t-1 3q-2 2 -6.5 9t-7.5 10q-10 15 -15 20q0 4 -8 8q-1 1 -3 3.5t-3 3.5l-8 8q-2 1 -5 3t-5 3q-8 8 -17 14q-9 3 -14 8q-2 0 -10 4q-5 3 -7 5q-1 0 -3 1t-3 1q-12 4 -14 4q-8 4 -12 4q-23 10 -45 10h-6q-19 0 -29 -2h-27q-21 0 -53 -4 q-26 -4 -35 -8q-3 -1 -15 -4.5t-18 -6.5q-17 -9 -59 -51l-6 -8q-25 -25 -45 -76q-10 -31 -13 -55q-1 -4 -2 -12.5t-2 -12.5v-4v-10q0 -8 -2 -14zM289 805v145q6 25 49 25h2q5 0 16.5 -1t16.5 -1q44 -7 57 -76q5 -33 2 -76q-4 -40 -29 -59q7 -21 21.5 -64t21.5 -65l3 -2 q4 -20 4 -33q-1 -11 -8.5 -18t-16.5 -7h-4q-24 0 -29 25q-5 9 -11 28t-7 21q-7 24 -15 43q-13 40 -14 41v-10v-131l-2 -2q-12 -15 -27 -15q-14 0 -24 13l-4 2v153v2q-2 20 -2 62zM346 909q0 -67 2 -102q3 1 8.5 3t8.5 3h4q6 12 6 27v24q0 18 -10 35q-4 8 -11 8z" />
<glyph unicode="&#xb0;" horiz-adv-x="540" d="M41 1184v30v3q9 46 16 63v2q18 43 43 68q12 15 31 26q7 7 23 15q8 4 12 4q1 1 3 2t3 2h2q1 1 31 8q1 0 3 1t3 1q28 4 51 4q2 0 11 1t14 1h2q22 -2 37 -6q8 0 12 -2l8 -4q2 0 7 -1t7 -1l5 -2l4 -2q2 -1 4 -2.5t3.5 -2.5t2.5 -1h2v-2q3 0 8 -5q15 -6 27 -18l2 -2 q12 -9 33 -35q12 -16 20 -35q9 -14 18 -51q24 -105 -18 -201q-2 -2 -7.5 -10t-8.5 -12q-2 -3 -15 -16q-37 -32 -57 -41v-2q-2 0 -4.5 -1.5t-3.5 -1.5v-2h-2q-25 -15 -60 -22q-2 0 -7.5 -1t-8.5 -1h-4v-2q-2 0 -8 -1t-9 -1q-4 0 -6 2q-2 0 -2 -2h-2h-8q-6 0 -8 2q-17 0 -23 2 q-10 0 -14 2q-2 0 -5.5 1t-4.5 1h-6l-4 2q-3 0 -7 2q-38 16 -41 18q-21 11 -43 41q-2 1 -6 9l-4 4q-22 30 -33 63q-4 8 -4 10v2q-8 13 -8 31q0 1 -1 4t-1 4l-2 7v4v2v10v2q-2 10 -2 33zM127 1159q0 -1 1 -4.5t1 -5.5v-2v-2q0 -2 1 -8t1 -9q2 -2 2 -6q2 -6 6 -14v-4h2 q4 -15 21 -41q1 -2 5.5 -7.5t6.5 -8.5q9 -13 14 -15q2 -1 5 -2t4 -2l7 -3.5t7 -2.5q2 -1 6 -2t6 -2h2q7 0 11 -2q8 -2 26 -2h12h7q12 4 18 4l52 21q-2 0 -5 -1q11 6 33 25l8 8v2q2 2 4.5 5.5t3.5 4.5v2h2v5q6 6 6 8q1 8 4.5 21t4.5 16q0 6 2 10v10v2v25v2v2v6q-4 12 -4 18 q-3 20 -11 33q-3 9 -6 12q0 1 -1 4t-1 5q-2 2 -2 4q-1 2 -4 5t-4 5q-4 8 -8 10v2h-2q0 1 -1 2t-1 2q-1 1 -3.5 2t-3.5 2l-4 5l-2 2l-2 2q-2 2 -4 2h-2l-2 2q-2 2 -4 2q-6 6 -10 6h-2q-2 2 -6 2q-2 1 -5.5 2t-5.5 2q-16 4 -20 4h-19q-3 0 -9 -1t-9 -1q-19 0 -29 -2 q-5 0 -9 -1l-5 -1l-2 -2h-2q-10 -3 -21 -8q-1 -1 -4 -3t-4 -3q-10 -5 -14 -13l-2 -4l-6 -4q-7 -8 -23 -41q-2 -8 -6 -28q0 -9 -2 -13v-2v-4v-2v-37z" />
<glyph unicode="&#xb1;" horiz-adv-x="475" d="M41 381q8 24 31 31h112q21 0 41 -4h15q96 0 143 -2q5 0 25 -5q22 -4 24 -32q3 -23 -5.5 -32t-31.5 -9h-104q-44 0 -62 2q-51 2 -118 2h-17q-12 0 -24 4l2 -2q-14 3 -22.5 17.5t-8.5 29.5zM45 729q-3 27 23 43q10 10 22 4h45q23 -2 66 -2v2l-2 47v70q7 25 32 31 q17 0 21 -2q21 -3 24 -33q0 -5 1.5 -16t1.5 -15q4 -55 2 -82q10 2 63 2h62l12 -12q11 -12 7 -33.5t-19 -27.5h-3q-14 -7 -20 -7q-8 -2 -37 -2q-17 2 -53 -2q-2 0 -6 -1t-6 -1v-16q0 -6 1 -17.5t1 -17.5q0 -29 2 -45q0 -12 -2 -18q-13 -27 -33 -29q-38 -3 -43 35q-4 12 -4 32 v68q0 6 -31 8q-62 4 -90 4q-13 0 -23.5 10t-13.5 23z" />
<glyph unicode="&#xb2;" horiz-adv-x="307" d="M43 991q0 6 4 10q10 23 23 46q4 8 12 23.5t12 23.5q15 30 21 39q8 16 14 24q6 14 29 55v2q16 33 22 58v4q4 23 2 33q-2 6 -2 16q0 8 -2 10q-2 11 -8 17q-11 8 -20 8h-9q-2 -1 -5.5 -2t-4.5 -2q-7 0 -10 -10q0 -2 -1 -7t-1 -8q-13 -27 -29.5 -31t-27 7.5t-11.5 25.5 q-3 52 31 76q21 15 53 18h2h17h6q28 0 51 -20q29 -22 35 -53q0 -1 1 -4t1 -4q4 -14 4 -41v-9v-2q0 -26 -10 -59t-29 -70q-4 -7 -12.5 -21.5t-12.5 -21.5t-11 -21.5t-11 -21.5q-3 -5 -31 -61q4 -2 15 -2h77h2q17 0 27 -10q11 -11 8 -29q-3 -24 -28 -27l-56 -2h-24h-19v2h-6 h-25h-16q-6 -2 -12 -2q-16 0 -31 15q-7 14 -4 28z" />
<glyph unicode="&#xb3;" horiz-adv-x="294" d="M43 1032q-3 7 0 10v5v2q6 24 33 24h2q31 0 37 -31q0 -12 4 -16q3 -10 12 -12h6q4 0 6 2q19 8 23 16q9 15 12 29q4 24 4 35q-4 36 -12 49v2q-6 10 -23 12h-6h-6h-6q-28 0 -31 33q-3 23 21 33q6 2 22 10l13 8q8 5 14 17q7 31 4 61q-1 3 -3 10t-3 10q0 9 -8 17v2q-2 2 -4 2 q-2 2 -9 2q-10 0 -16 -6q-9 -9 -12 -21v-2v-2q-2 0 -2 -2q-7 -20 -29 -20h-4q-32 0 -35 32q0 18 10 41q16 23 39 37q12 7 37 11h10h7q33 0 55 -19q24 -21 33 -51q9 -31 6 -62q0 -29 -2 -43q-6 -32 -25 -55q21 -21 29 -47q8 -27 8 -53q0 -42 -8 -66q-11 -47 -51 -73 q-23 -17 -54 -17h-6q-8 0 -24 4q-39 6 -58 43q-10 18 -10 39z" />
<glyph unicode="&#xb4;" horiz-adv-x="274" d="M49 1282q-17 20 6 55l99 76q20 17 39 19q19 0 34 -19q12 -21 0 -41q-43 -40 -110 -92q-12 -8 -17 -8q-30 -15 -51 10z" />
<glyph unicode="&#xb5;" horiz-adv-x="573" d="M41 774q7 33 39 37h22q18 0 56 -1t57 -1q22 -3 37 -18q15 -19 4 -41q-11 -18 -27 -21q-4 -1 -13 -3t-13 -3q-4 0 -8.5 -5.5t-4.5 -8.5q-2 -12 -2 -37q0 -64 1 -193.5t1 -195.5q0 -57 17 -133q3 -10 10 -25q21 -35 62 -25l26 13q37 26 60 59q2 3 5 9t5 9q20 30 20 60 q4 50 4 72q2 100 2 303q0 51 -8 92q-3 7 -10 10q-6 4 -18.5 7.5t-14.5 4.5q-15 9 -18 29t14 37q8 4 14 6q1 0 3.5 1t3.5 1h127q1 0 3.5 -1t4.5 -1q9 0 17 -8t11 -19q3 -16 -2 -26q-4 -11 -8 -13q-4 -4 -16 -12q-26 -8 -23 -39v-49v-149q-4 -282 -4 -424q-2 -10 -2 -29 q-3 -20 -18 -29q-12 -8 -28 -6t-23 12q-12 20 -21 29q-1 3 -4 2q-23 -14 -29 -20q-15 -10 -37 -21q-15 -6 -28 -6q-37 -7 -70 2q-4 0 -20 4q-1 -3 -4 -10t-3 -10q0 -28 -1 -82t-1 -82q0 -37 -8 -64l-6 -12q-6 -13 -22 -16q-14 -2 -27 7t-14 23q-4 21 -2 35q0 137 6 205 q0 33 -2 49q-4 55 -4 248q0 91 -3 176q0 124 -2 185v49q-1 4 -8 14q-16 4 -26 6q-21 9 -27 31q-2 4 -2 12z" />
<glyph unicode="&#xb6;" horiz-adv-x="794" d="M45 1182q2 30 16 73q15 47 48 80q25 28 55 49q38 26 90 35q45 11 127 11q10 0 28 -0.5t33 -0.5t29 1l147 6q4 1 9.5 1t12 -0.5t9.5 -0.5q9 0 26 1t25 1h23q12 0 21 -7.5t10 -19.5q0 -11 -7.5 -20.5t-19.5 -10.5q-24 -4 -39 -4h-63q-2 -2 -2 -16v-359v-952q0 -8 -2 -12 q-1 -12 -9.5 -19.5t-19.5 -7.5t-20.5 7.5t-10.5 19.5v12v1299v24q-23 0 -66.5 -1t-64.5 -1q0 -3 -1 -8.5t-1 -7.5v-387v-918v-16q-2 -11 -10.5 -19t-18.5 -8q-12 0 -20 8t-10 19v14v860v23q-62 -4 -84 -4q-59 0 -109 20q-16 5 -33 19q-40 36 -51 51q-4 4 -4 6q-31 24 -41 70 q-8 43 -2 90z" />
<glyph unicode="&#xb7;" horiz-adv-x="200" d="M49 698q-14 39 0 66q15 27 45 27q42 0 53 -25q4 -6 7 -19.5t4 -15.5q1 -32 -24.5 -48.5t-55.5 -10.5q-22 6 -29 26z" />
<glyph unicode="&#xb8;" horiz-adv-x="290" d="M43.5 -195.5q4.5 12.5 17.5 15.5q12 3 24 0t15 -10q16 -31 56 -21q17 4 22.5 11.5t5.5 23.5q0 26 -7 34t-32 13q-39 6 -39 43q0 46 5 82q0 14 12.5 20.5t28.5 3.5q35 0 32 -32q-1 -2 -2 -6.5t-2 -6.5q-5 -29 -2 -36q1 -6 10 -12t9 -7q36 -19 47 -59t-4 -76 q-22 -71 -123 -64q-52 7 -72 56q-6 15 -1.5 27.5z" />
<glyph unicode="&#xb9;" horiz-adv-x="223" d="M45 1376q-7 19 0 31q1 6 5 10t9 6t13 3t13 1h13.5h10.5h6q22 0 32 -2h3q17 0 24 -14l2 -2q4 -9 4 -39q0 -2 -1 -5.5t-1 -4.5v-6v-23v-51v-2q2 -31 2 -92v-45v-13v-36q-2 -16 -2 -50q0 -29 -2 -43v-18q0 -1 -1 -4t-1 -4q-2 -12 -11 -20.5t-22 -8.5h-4q-14 2 -23.5 10.5 t-9.5 20.5q5 93 5 100v37v4q2 20 2 60q-2 55 -2 81v74v29h-27h-12q-15 3 -25 16z" />
<glyph unicode="&#xba;" horiz-adv-x="540" d="M41 1184v30v3q9 46 16 63v2q18 43 43 68q12 15 31 26q7 7 23 15q8 4 12 4q1 1 3 2t3 2h2q1 1 31 8q1 0 3 1t3 1q28 4 51 4q2 0 11 1t14 1h2q22 -2 37 -6q8 0 12 -2l8 -4q2 0 7 -1t7 -1l5 -2l4 -2q2 -1 4 -2.5t3.5 -2.5t2.5 -1h2v-2q3 0 8 -5q15 -6 27 -18l2 -2 q12 -9 33 -35q12 -16 20 -35q9 -14 18 -51q24 -105 -18 -201q-2 -2 -7.5 -10t-8.5 -12q-2 -3 -15 -16q-37 -32 -57 -41v-2q-2 0 -4.5 -1.5t-3.5 -1.5v-2h-2q-25 -15 -60 -22q-2 0 -7.5 -1t-8.5 -1h-4v-2q-2 0 -8 -1t-9 -1q-4 0 -6 2q-2 0 -2 -2h-2h-8q-6 0 -8 2q-17 0 -23 2 q-10 0 -14 2q-2 0 -5.5 1t-4.5 1h-6l-4 2q-3 0 -7 2q-38 16 -41 18q-21 11 -43 41q-2 1 -6 9l-4 4q-22 30 -33 63q-4 8 -4 10v2q-8 13 -8 31q0 1 -1 4t-1 4l-2 7v4v2v10v2q-2 10 -2 33zM127 1159q0 -1 1 -4.5t1 -5.5v-2v-2q0 -2 1 -8t1 -9q2 -2 2 -6q2 -6 6 -14v-4h2 q4 -15 21 -41q1 -2 5.5 -7.5t6.5 -8.5q9 -13 14 -15q2 -1 5 -2t4 -2l7 -3.5t7 -2.5q2 -1 6 -2t6 -2h2q7 0 11 -2q8 -2 26 -2h12h7q12 4 18 4l52 21q-2 0 -5 -1q11 6 33 25l8 8v2q2 2 4.5 5.5t3.5 4.5v2h2v5q6 6 6 8q1 8 4.5 21t4.5 16q0 6 2 10v10v2v25v2v2v6q-4 12 -4 18 q-3 20 -11 33q-3 9 -6 12q0 1 -1 4t-1 5q-2 2 -2 4q-1 2 -4 5t-4 5q-4 8 -8 10v2h-2q0 1 -1 2t-1 2q-1 1 -3.5 2t-3.5 2l-4 5l-2 2l-2 2q-2 2 -4 2h-2l-2 2q-2 2 -4 2q-6 6 -10 6h-2q-2 2 -6 2q-2 1 -5.5 2t-5.5 2q-16 4 -20 4h-19q-3 0 -9 -1t-9 -1q-19 0 -29 -2 q-5 0 -9 -1l-5 -1l-2 -2h-2q-10 -3 -21 -8q-1 -1 -4 -3t-4 -3q-10 -5 -14 -13l-2 -4l-6 -4q-7 -8 -23 -41q-2 -8 -6 -28q0 -9 -2 -13v-2v-4v-2v-37z" />
<glyph unicode="&#xbb;" horiz-adv-x="720" d="M41 915q6 31 31 31q28 4 53 -12q22 -17 100 -64q7 -4 21.5 -13t21.5 -13q19 -10 21 -10q67 -35 90 -41q37 -8 33 -48q-3 -15 -19 -28q-5 -2 -17.5 -9t-19.5 -10t-23.5 -10t-23.5 -10l-49 -21q-43 -20 -96 -47l-12 -6q-3 -2 -14.5 -7t-24.5 -13q-1 0 -5 -1t-6 -1 q-8 -4 -24 -2h-2q-33 0 -33 28q-3 25 16 37l15 8q8 3 21.5 11t17.5 10q19 12 87 35.5t79 42.5q4 7 -15 18.5t-57 28.5q-48 18 -144 73q-22 15 -22 43zM307 915q6 31 31 31q28 4 53 -12q18 -14 101 -64q7 -4 21.5 -13t21.5 -13l20 -10q67 -35 90 -41q37 -8 33 -48 q-3 -15 -19 -28q-5 -2 -17 -9t-19 -10t-24 -10t-24 -10l-49 -21q-43 -20 -96 -47l-12 -6q-3 -2 -14.5 -7t-24.5 -13q-1 0 -4.5 -1t-5.5 -1q-9 -4 -25 -2h-2q-33 0 -33 28q-3 25 17 37l14 8q8 3 21.5 11t17.5 10q19 12 87 35.5t79 42.5q4 7 -15 18.5t-57 28.5q-46 17 -143 73 q-23 15 -23 43z" />
<glyph unicode="&#xbc;" horiz-adv-x="718" d="M49 285q11 18 33.5 61t38.5 66q2 7 18 39q13 26 36.5 75.5t31.5 65.5q8 17 23 46t20 40q10 20 31.5 60t31.5 61q35 74 107.5 212t105.5 206q2 2 6 8.5t7 9.5q24 21 53 -2q19 -16 6 -43q-6 -12 -17 -33.5t-20 -39.5t-18 -34q-37 -72 -110.5 -218t-110.5 -218 q-56 -105 -72 -143q-27 -67 -92 -176q-19 -47 -45 -88q-15 -27 -47 -13q-3 1 -8.5 4.5t-6.5 4.5q-15 25 -2 49zM51 1192q-7 19 0 31q6 18 27 18h6h4q8 0 16.5 1t10.5 1h6q23 0 33 -2h2q17 0 24 -14l2 -2q4 -8 4 -19v-20q0 -2 -1 -5.5t-1 -4.5v-7v-22v-51v-2q2 -31 2 -93v-45 v-12v-37q-2 -16 -2 -49q0 -29 -2 -43v-18q0 -1 -1 -4.5t-1 -4.5q-4 -28 -33 -28h-4q-14 2 -23 10.5t-9 20.5q0 7 1 21.5t1 21.5v10q2 4 2 8v39v37v4q2 20 2 59v43q-2 12 -2 39v74v29h-27h-12q-15 3 -25 16zM410 395v2q0 13 6 23l18 39q5 9 27 53v2q8 14 26 53q6 12 18 32.5 t15 25.5q2 4 7.5 13t7.5 13q2 3 5 9.5t5 9.5q1 3 4 8t4 8h2q0 7 6 10q9 15 29 15q10 0 16 -2q15 -6 19 -25q3 -11 0 -22q-4 -22 -4 -48.5t2 -58.5t2 -47v-43v-27h2h4h8h8q26 -4 29 -26q2 -13 -4 -23.5t-17 -13.5l-2 -2q-2 0 -6.5 -1t-7.5 -1h-18v-66l-3 -49 q-2 -12 -11.5 -21.5t-22.5 -9.5h-2q-35 5 -35 43q2 16 2 45v33q2 8 2 25h-6h-2q-12 -2 -35 -2h-16q-1 0 -4 -1t-5 -1h-18q-2 0 -7.5 -1t-8.5 -1h-7q-29 3 -32 30zM502 434h4q10 0 12 2h25q6 0 10 2v37v21v43q-3 -7 -10.5 -20.5t-10.5 -20.5l-8 -15l-6 -14q-10 -16 -16 -35z " />
<glyph unicode="&#xbd;" horiz-adv-x="653" d="M49 285q11 18 33.5 61t38.5 66q2 7 18 39q13 26 36.5 75.5t31.5 65.5q8 17 23 46t20 40q10 20 31.5 60t31.5 61q35 74 107.5 212t105.5 206q2 2 6 8.5t7 9.5q24 21 53 -2q19 -16 6 -43q-6 -12 -17 -33.5t-20 -39.5t-18 -34q-37 -72 -110.5 -218t-110.5 -218 q-56 -105 -72 -143q-27 -67 -92 -176q-19 -47 -45 -88q-15 -27 -47 -13q-3 1 -8.5 4.5t-6.5 4.5q-15 25 -2 49zM51 1192q-7 19 0 31q6 18 27 18h6h4q8 0 16.5 1t10.5 1h6q23 0 33 -2h2q17 0 24 -14l2 -2q4 -8 4 -19v-20q0 -2 -1 -5.5t-1 -4.5v-7v-22v-51v-2q2 -31 2 -93v-45 v-12v-37q-2 -16 -2 -49q0 -29 -2 -43v-18q0 -1 -1 -4.5t-1 -4.5q-4 -28 -33 -28h-4q-14 2 -23 10.5t-9 20.5q0 7 1 21.5t1 21.5v10q2 4 2 8v39v37v4q2 20 2 59v43q-2 12 -2 39v74v29h-27h-12q-15 3 -25 16zM389 281q0 6 4 10q8 19 23 45q4 8 12 23.5t12 23.5q15 30 21 39 q8 16 14 24q8 19 29 56v2q17 34 22 57v4q4 23 2 33q-2 6 -2 16q0 9 -2 11q-2 10 -8 16q-11 8 -20 8h-9q-2 -1 -5.5 -2t-4.5 -2q-7 0 -10 -10q0 -2 -1 -6.5t-1 -7.5v-3q-7 -24 -33 -24h-8q-12 1 -19.5 9.5t-7.5 19.5q-3 51 31 75q22 16 53 19h2h17h6q27 0 51 -21 q29 -22 35 -53q0 -1 1 -4t1 -4q4 -16 4 -29v-12v-8v-2q0 -27 -10 -60q-9 -31 -29 -69q-4 -7 -12 -21.5t-12 -21.5t-11.5 -21.5t-11.5 -21.5q-29 -46 -25.5 -56t54.5 -10h2h4q0 2 4 2h2h20h2q17 0 27 -10q11 -11 8 -29q-3 -23 -28 -26q-4 0 -13.5 -1t-13.5 -1h-8h-45h-19v2 h-6h-24h-17q-6 -2 -12 -2q-17 0 -31 14q-7 14 -4 29z" />
<glyph unicode="&#xbe;" horiz-adv-x="722" d="M43 848q-3 7 0 10v4q0 13 10 20t23 7h2q31 0 37 -31l4 -16q4 -11 12 -13h6q4 0 6 2q18 7 23 17q9 16 12 29q4 24 4 34q-4 38 -12 50v2q-6 10 -23 12h-6h-6h-6q-12 0 -21 8t-10 21v4q-3 22 21 32l22 11l13 8q9 6 14 16q7 31 4 62q-1 3 -3 10t-3 10q0 9 -8 17v2q-2 2 -4 2 q-2 2 -9 2q-10 0 -16 -6q-9 -9 -12 -21v-2v-2q-2 0 -2 -2q-7 -21 -29 -21h-4q-32 0 -35 33q0 18 10 41q16 23 39 37q10 6 37 10h10h7q34 0 55 -18q24 -21 33 -51t6 -62q0 -29 -2 -43q-6 -32 -25 -55q21 -21 29 -47q8 -27 8 -53q0 -42 -8 -66q-12 -48 -51 -74 q-21 -16 -54 -16h-6q-8 0 -24 4q-39 6 -58 43q-10 17 -10 39zM53 285q11 18 33.5 61t38.5 66q2 7 18 39q13 26 36.5 75.5t31.5 65.5q8 17 23 46t20 40q10 20 31.5 60t31.5 61q35 74 107.5 212t105.5 206q2 2 6 8.5t7 9.5q24 21 53 -2q19 -16 6 -43q-6 -12 -17 -33.5 t-20 -39.5t-18 -34q-37 -72 -110.5 -218t-110.5 -218q-56 -105 -72 -143q-27 -67 -92 -176q-19 -47 -45 -88q-15 -27 -47 -13q-3 1 -8.5 4.5t-6.5 4.5q-15 25 -2 49zM414 395q0 15 6 25l18 39q5 9 27 53v2q12 19 27 53q2 4 32 58q2 4 7.5 13t7.5 13q2 3 5 9.5t5 9.5q1 3 4 8 t4 8h2q0 7 6 10q9 15 29 15q10 0 16 -2q15 -6 19 -25q3 -11 0 -22q-4 -22 -4 -48.5t2 -58.5t2 -47v-43v-27h2h4h8h8q26 -4 29 -26q2 -13 -4 -23.5t-17 -13.5l-2 -2q-2 0 -6.5 -1t-7.5 -1h-18v-66l-2 -49q-2 -12 -12 -21.5t-23 -9.5h-2q-35 5 -35 43q2 16 2 45v33q2 8 2 25 h-6h-2q-12 -2 -35 -2h-16q-1 0 -4 -1t-5 -1h-18q-2 0 -7.5 -1t-8.5 -1h-7q-29 3 -32 30zM506 434h4q10 0 12 2h25q6 0 10 2v37v21v43q-3 -7 -10 -20.5t-10 -20.5l-9 -15l-6 -14q-10 -16 -16 -35z" />
<glyph unicode="&#xbf;" horiz-adv-x="477" d="M41 20q5 122 8 144q1 8 3 44.5t7 55.5q3 11 8.5 32.5t8.5 33.5q8 41 45 73q5 4 15.5 12.5t15.5 12.5q49 36 63 109q11 61 8 108v113q0 25 22 36.5t44 -1.5q18 -9 18 -29v-23v-149q-4 -62 -10 -96q-13 -64 -55 -103q-32 -31 -54 -49q-22 -19 -28 -45q-23 -81 -25 -133 q-11 -163 -10 -186q4 -59 10 -91q11 -36 21 -59q14 -21 28 -35q25 -25 56.5 -24t56.5 26q31 28 37 68q2 13 5 39.5t5 40.5q2 35 10 100q0 7 4 23q8 24 37 24q22 0 30.5 -8.5t8.5 -28.5v-10q-4 -45 -12 -139q-4 -32 -4 -49q-9 -99 -94 -150q-66 -40 -148 -14q-13 3 -20 10 q-89 66 -105 154q-10 52 -10 94q1 0 1 35zM203 1049q-15 30 2 61q10 20 33 23h2h4q36 0 49 -13q20 -18 12 -63q-1 -13 -15 -23t-32 -12q-39 0 -55 27z" />
<glyph unicode="&#xc0;" horiz-adv-x="860" d="M20 33v6q5 33 37 37q7 2 21.5 3t21.5 3q11 0 17 12l4 12t4 15q7 39 14 69q11 56 13 62q2 15 9.5 50t8.5 54q2 15 9 44.5t9 45.5q36 174 50 236q10 64 14 76q4 32 17.5 88t17.5 78q1 2 24 110q3 11 37 174l9 40.5t10 49.5q1 3 1 10.5t1 10.5q0 8 -5.5 13.5t-11.5 4.5 q-7 -1 -21.5 -3t-21.5 -3q-8 0 -20 6q-21 11 -21 33q-2 15 7 27.5t22 13.5q22 5 62.5 13t50.5 10h6q14 2 30.5 -8t20.5 -23q11 -27 14 -47q1 -13 11 -56q0 -3 8 -40.5t10 -57.5q2 -16 8 -45.5t8 -44.5q1 -16 7 -44.5t8 -39.5q2 -15 7 -44.5t7 -45.5q1 -10 7 -39t7 -45 q6 -23 37 -172q6 -31 20.5 -88t20.5 -84q15 -65 46.5 -189t45.5 -182q1 -7 6.5 -19t6.5 -16q7 -10 16 -10h37q14 0 24.5 -11t10.5 -26q0 -22 -21 -34q-18 -11 -33 -11q-143 -5 -184 -2q-8 0 -12 2q-8 4 -12 8q-13 10 -13 25q-1 15 7 27.5t22 15.5q8 1 24.5 3t24.5 3l6 12 q2 2 2 7q-51 200 -59 227q-2 4 -10 8q-16 4 -21 4q-90 0 -139 2q-76 0 -117 -2q-19 0 -29 -2q-6 0 -12 -6t-6 -12q-14 -86 -43 -215q0 -9 -2 -15q0 -14 14 -22q1 0 6 -2t7 -4q13 -9 16 -26t-6 -30q-3 -7 -10 -10q-10 -10 -25 -10q-27 0 -79 -1t-77 -1q-13 0 -24.5 11 t-14.5 26zM287 465q-3 -9 6 -12q1 0 2 -2t2 -2q3 0 7.5 -1.5t6.5 -1.5q101 -5 228 -2q2 0 12 5q8 3 8 10q-3 35 -12 63q0 1 -10 41.5t-15 61.5q-22 106 -28 145q-2 11 -8 42.5t-9 47.5q-5 20 -10 59.5t-10 59.5q-1 24 -10 66.5t-11 52.5l-2 6h-6q-8 -5 -12 -17 q-5 -25 -15.5 -72.5t-15.5 -72.5q-5 -27 -17 -80.5t-16 -77.5q-6 -26 -14.5 -70t-13.5 -63q-31 -150 -37 -172v-14zM322 1573q12 12 18 16q90 56 127 78q40 24 59 -12q2 -3 3 -6t1.5 -7t1.5 -6q0 -24 -20 -37q-11 -7 -34 -21.5t-34 -21.5t-33 -20t-34 -20q-30 -18 -53 8 q-21 27 -2 49z" />
<glyph unicode="&#xc1;" horiz-adv-x="860" d="M20 33v6q5 33 37 37q7 2 21.5 3t21.5 3q11 0 17 12l4 12t4 15q7 39 14 69q11 56 13 62q2 15 9.5 50t8.5 54q2 15 9 44.5t9 45.5q36 174 50 236q10 64 14 76q4 32 17.5 88t17.5 78q1 2 24 110q3 11 37 174l9 40.5t10 49.5q1 3 1 10.5t1 10.5q0 8 -5.5 13.5t-11.5 4.5 q-7 -1 -21.5 -3t-21.5 -3q-8 0 -20 6q-21 11 -21 33q-2 15 7 27.5t22 13.5q22 5 62.5 13t50.5 10h6q14 2 30.5 -8t20.5 -23q11 -27 14 -47q1 -13 11 -56q0 -3 8 -40.5t10 -57.5q2 -16 8 -45.5t8 -44.5q1 -16 7 -44.5t8 -39.5q2 -15 7 -44.5t7 -45.5q1 -10 7 -39t7 -45 q6 -23 37 -172q6 -31 20.5 -88t20.5 -84q15 -65 46.5 -189t45.5 -182q1 -7 6.5 -19t6.5 -16q7 -10 16 -10h37q14 0 24.5 -11t10.5 -26q0 -22 -21 -34q-18 -11 -33 -11q-143 -5 -184 -2q-8 0 -12 2q-8 4 -12 8q-13 10 -13 25q-1 15 7 27.5t22 15.5q8 1 24.5 3t24.5 3l6 12 q2 2 2 7q-51 200 -59 227q-2 4 -10 8q-16 4 -21 4q-90 0 -139 2q-76 0 -117 -2q-19 0 -29 -2q-6 0 -12 -6t-6 -12q-14 -86 -43 -215q0 -9 -2 -15q0 -14 14 -22q1 0 6 -2t7 -4q13 -9 16 -26t-6 -30q-3 -7 -10 -10q-10 -10 -25 -10q-27 0 -79 -1t-77 -1q-13 0 -24.5 11 t-14.5 26zM287 465q-3 -9 6 -12q1 0 2 -2t2 -2q3 0 7.5 -1.5t6.5 -1.5q101 -5 228 -2q2 0 12 5q8 3 8 10q-3 35 -12 63q0 1 -10 41.5t-15 61.5q-22 106 -28 145q-2 11 -8 42.5t-9 47.5q-5 20 -10 59.5t-10 59.5q-1 24 -10 66.5t-11 52.5l-2 6h-6q-8 -5 -12 -17 q-5 -25 -15.5 -72.5t-15.5 -72.5q-5 -27 -17 -80.5t-16 -77.5q-6 -26 -14.5 -70t-13.5 -63q-31 -150 -37 -172v-14zM315 1636q-1 20 17 32.5t37 4.5q9 -3 16 -10q20 -12 59 -35.5t58 -34.5q12 -8 20 -16q23 -23 6 -49q-10 -13 -23.5 -17.5t-27.5 2.5q-18 9 -26 15 q-18 13 -56.5 36t-56.5 35q-23 13 -23 37z" />
<glyph unicode="&#xc2;" horiz-adv-x="860" d="M20 33v6q5 33 37 37q7 2 21.5 3t21.5 3q11 0 17 12l4 12t4 15q7 39 14 69q11 56 13 62q2 15 9.5 50t8.5 54q2 15 9 44.5t9 45.5q36 174 50 236q10 64 14 76q4 32 17.5 88t17.5 78q1 2 24 110q3 11 37 174l9 40.5t10 49.5q1 3 1 10.5t1 10.5q0 8 -5.5 13.5t-11.5 4.5 q-7 -1 -21.5 -3t-21.5 -3q-8 0 -20 6q-21 11 -21 33q-2 15 7 27.5t22 13.5q22 5 62.5 13t50.5 10h6q14 2 30.5 -8t20.5 -23q11 -27 14 -47q1 -13 11 -56q0 -3 8 -40.5t10 -57.5q2 -16 8 -45.5t8 -44.5q1 -16 7 -44.5t8 -39.5q2 -15 7 -44.5t7 -45.5q1 -10 7 -39t7 -45 q6 -23 37 -172q6 -31 20.5 -88t20.5 -84q15 -65 46.5 -189t45.5 -182q1 -7 6.5 -19t6.5 -16q7 -10 16 -10h37q14 0 24.5 -11t10.5 -26q0 -22 -21 -34q-18 -11 -33 -11q-143 -5 -184 -2q-8 0 -12 2q-8 4 -12 8q-13 10 -13 25q-1 15 7 27.5t22 15.5q8 1 24.5 3t24.5 3l6 12 q2 2 2 7q-51 200 -59 227q-2 4 -10 8q-16 4 -21 4q-90 0 -139 2q-76 0 -117 -2q-19 0 -29 -2q-6 0 -12 -6t-6 -12q-14 -86 -43 -215q0 -9 -2 -15q0 -14 14 -22q1 0 6 -2t7 -4q13 -9 16 -26t-6 -30q-3 -7 -10 -10q-10 -10 -25 -10q-27 0 -79 -1t-77 -1q-13 0 -24.5 11 t-14.5 26zM287 465q-3 -9 6 -12q1 0 2 -2t2 -2q3 0 7.5 -1.5t6.5 -1.5q101 -5 228 -2q2 0 12 5q8 3 8 10q-3 35 -12 63q0 1 -10 41.5t-15 61.5q-22 106 -28 145q-2 11 -8 42.5t-9 47.5q-5 20 -10 59.5t-10 59.5q-1 24 -10 66.5t-11 52.5l-2 6h-6q-8 -5 -12 -17 q-5 -25 -15.5 -72.5t-15.5 -72.5q-5 -27 -17 -80.5t-16 -77.5q-6 -26 -14.5 -70t-13.5 -63q-31 -150 -37 -172v-14zM297 1534q-10 35 16 55q49 41 99 78q23 20 47 2q16 -14 48.5 -40.5t49.5 -39.5q15 -12 18.5 -30t-4.5 -33q-19 -29 -43 -8q-8 5 -75 59q-3 2 -8.5 6t-8.5 6 q-30 -23 -76 -59q-4 -4 -16 -12q-15 -12 -29.5 -6t-17.5 22z" />
<glyph unicode="&#xc3;" horiz-adv-x="860" d="M20 33v6q5 33 37 37q7 2 21.5 3t21.5 3q11 0 17 12l4 12t4 15q7 39 14 69q11 56 13 62q2 15 9.5 50t8.5 54q2 15 9 44.5t9 45.5q36 174 50 236q10 64 14 76q4 32 17.5 88t17.5 78q1 2 24 110q3 11 37 174l9 40.5t10 49.5q1 3 1 10.5t1 10.5q0 8 -5.5 13.5t-11.5 4.5 q-7 -1 -21.5 -3t-21.5 -3q-8 0 -20 6q-21 11 -21 33q-2 15 7 27.5t22 13.5q22 5 62.5 13t50.5 10h6q14 2 30.5 -8t20.5 -23q11 -27 14 -47q1 -13 11 -56q0 -3 8 -40.5t10 -57.5q2 -16 8 -45.5t8 -44.5q1 -16 7 -44.5t8 -39.5q2 -15 7 -44.5t7 -45.5q1 -10 7 -39t7 -45 q6 -23 37 -172q6 -31 20.5 -88t20.5 -84q15 -65 46.5 -189t45.5 -182q1 -7 6.5 -19t6.5 -16q7 -10 16 -10h37q14 0 24.5 -11t10.5 -26q0 -22 -21 -34q-18 -11 -33 -11q-143 -5 -184 -2q-8 0 -12 2q-8 4 -12 8q-13 10 -13 25q-1 15 7 27.5t22 15.5q8 1 24.5 3t24.5 3l6 12 q2 2 2 7q-51 200 -59 227q-2 4 -10 8q-16 4 -21 4q-90 0 -139 2q-76 0 -117 -2q-19 0 -29 -2q-6 0 -12 -6t-6 -12q-14 -86 -43 -215q0 -9 -2 -15q0 -14 14 -22q1 0 6 -2t7 -4q13 -9 16 -26t-6 -30q-3 -7 -10 -10q-10 -10 -25 -10q-27 0 -79 -1t-77 -1q-13 0 -24.5 11 t-14.5 26zM252 1561q27 84 108 92q19 0 37 -6q47 -23 49 -25q21 -14 39 -14q26 0 37 20q1 3 3 8.5t3 8.5q20 26 50 16q12 -6 18.5 -20t3.5 -29q-18 -59 -76 -80q-13 -4 -39 -8q-43 3 -82 28q-3 2 -10 6.5t-10 6.5q-35 15 -53 -19q0 -1 -2 -6.5t-4 -7.5q-16 -32 -48 -21 q-15 6 -22 20.5t-2 29.5zM287 465q-3 -9 6 -12q1 0 2 -2t2 -2q3 0 7.5 -1.5t6.5 -1.5q101 -5 228 -2q2 0 12 5q8 3 8 10q-3 35 -12 63q0 1 -10 41.5t-15 61.5q-22 106 -28 145q-2 11 -8 42.5t-9 47.5q-5 20 -10 59.5t-10 59.5q-1 24 -10 66.5t-11 52.5l-2 6h-6 q-8 -5 -12 -17q-5 -25 -15.5 -72.5t-15.5 -72.5q-5 -27 -17 -80.5t-16 -77.5q-6 -26 -14.5 -70t-13.5 -63q-31 -150 -37 -172v-14z" />
<glyph unicode="&#xc4;" horiz-adv-x="860" d="M20 33v6q5 33 37 37q7 2 21.5 3t21.5 3q11 0 17 12l4 12t4 15q7 39 14 69q11 56 13 62q2 15 9.5 50t8.5 54q2 15 9 44.5t9 45.5q36 174 50 236q10 64 14 76q4 32 17.5 88t17.5 78q1 2 24 110q3 11 37 174l9 40.5t10 49.5q1 3 1 10.5t1 10.5q0 8 -5.5 13.5t-11.5 4.5 q-7 -1 -21.5 -3t-21.5 -3q-8 0 -20 6q-21 11 -21 33q-2 15 7 27.5t22 13.5q22 5 62.5 13t50.5 10h6q14 2 30.5 -8t20.5 -23q11 -27 14 -47q1 -13 11 -56q0 -3 8 -40.5t10 -57.5q2 -16 8 -45.5t8 -44.5q1 -16 7 -44.5t8 -39.5q2 -15 7 -44.5t7 -45.5q1 -10 7 -39t7 -45 q6 -23 37 -172q6 -31 20.5 -88t20.5 -84q15 -65 46.5 -189t45.5 -182q1 -7 6.5 -19t6.5 -16q7 -10 16 -10h37q14 0 24.5 -11t10.5 -26q0 -22 -21 -34q-18 -11 -33 -11q-143 -5 -184 -2q-8 0 -12 2q-8 4 -12 8q-13 10 -13 25q-1 15 7 27.5t22 15.5q8 1 24.5 3t24.5 3l6 12 q2 2 2 7q-51 200 -59 227q-2 4 -10 8q-16 4 -21 4q-90 0 -139 2q-76 0 -117 -2q-19 0 -29 -2q-6 0 -12 -6t-6 -12q-14 -86 -43 -215q0 -9 -2 -15q0 -14 14 -22q1 0 6 -2t7 -4q13 -9 16 -26t-6 -30q-3 -7 -10 -10q-10 -10 -25 -10q-27 0 -79 -1t-77 -1q-13 0 -24.5 11 t-14.5 26zM287 465q-3 -9 6 -12q1 0 2 -2t2 -2q3 0 7.5 -1.5t6.5 -1.5q101 -5 228 -2q2 0 12 5q8 3 8 10q-3 35 -12 63q0 1 -10 41.5t-15 61.5q-22 106 -28 145q-2 11 -8 42.5t-9 47.5q-5 20 -10 59.5t-10 59.5q-1 24 -10 66.5t-11 52.5l-2 6h-6q-8 -5 -12 -17 q-5 -25 -15.5 -72.5t-15.5 -72.5q-5 -27 -17 -80.5t-16 -77.5q-6 -26 -14.5 -70t-13.5 -63q-31 -150 -37 -172v-14zM301 1595q-3 22 16 41q23 23 48 15q38 -13 43 -47q3 -28 -21.5 -48.5t-50.5 -11.5q-35 9 -35 51zM467 1608q6 29 33 41q35 14 63 -25q17 -23 4 -45 q-9 -14 -10 -16q-15 -21 -37 -21q-29 0 -44 17.5t-9 48.5z" />
<glyph unicode="&#xc5;" horiz-adv-x="860" d="M20 33v6q5 33 37 37q7 2 21.5 3t21.5 3q11 0 17 12l4 12t4 15q7 39 14 69q11 56 13 62q2 15 9.5 50t8.5 54q2 15 9 44.5t9 45.5q36 174 50 236q10 64 14 76q4 32 17.5 88t17.5 78q1 2 24 110q3 11 37 174l9 40.5t10 49.5q1 3 1 10.5t1 10.5q0 8 -5.5 13.5t-11.5 4.5 q-7 -1 -21.5 -3t-21.5 -3q-8 0 -20 6q-21 11 -21 33q-2 15 7 27.5t22 13.5q22 5 62.5 13t50.5 10h6q14 2 30.5 -8t20.5 -23q11 -27 14 -47q1 -13 11 -56q0 -3 8 -40.5t10 -57.5q2 -16 8 -45.5t8 -44.5q1 -16 7 -44.5t8 -39.5q2 -15 7 -44.5t7 -45.5q1 -10 7 -39t7 -45 q6 -23 37 -172q6 -31 20.5 -88t20.5 -84q15 -65 46.5 -189t45.5 -182q1 -7 6.5 -19t6.5 -16q7 -10 16 -10h37q14 0 24.5 -11t10.5 -26q0 -22 -21 -34q-18 -11 -33 -11q-143 -5 -184 -2q-8 0 -12 2q-8 4 -12 8q-13 10 -13 25q-1 15 7 27.5t22 15.5q8 1 24.5 3t24.5 3l6 12 q2 2 2 7q-51 200 -59 227q-2 4 -10 8q-16 4 -21 4q-90 0 -139 2q-76 0 -117 -2q-19 0 -29 -2q-6 0 -12 -6t-6 -12q-14 -86 -43 -215q0 -9 -2 -15q0 -14 14 -22q1 0 6 -2t7 -4q13 -9 16 -26t-6 -30q-3 -7 -10 -10q-10 -10 -25 -10q-27 0 -79 -1t-77 -1q-13 0 -24.5 11 t-14.5 26zM287 465q-3 -9 6 -12q1 0 2 -2t2 -2q3 0 7.5 -1.5t6.5 -1.5q101 -5 228 -2q2 0 12 5q8 3 8 10q-3 35 -12 63q0 1 -10 41.5t-15 61.5q-22 106 -28 145q-2 11 -8 42.5t-9 47.5q-5 20 -10 59.5t-10 59.5q-1 24 -10 66.5t-11 52.5l-2 6h-6q-8 -5 -12 -17 q-5 -25 -15.5 -72.5t-15.5 -72.5q-5 -27 -17 -80.5t-16 -77.5q-6 -26 -14.5 -70t-13.5 -63q-31 -150 -37 -172v-14zM326 1620q-3 34 12 68t41 51q50 26 76 24q23 0 55 -18q38 -23 41 -76v-16q0 -30 -19 -70q-19 -32 -53 -43t-63 4q-40 13 -58 27q-24 18 -32 49zM399 1634 q29 -29 60 -26l6 2q23 30 12 71q-18 11 -26.5 12.5t-22.5 -5.5q-31 -21 -29 -54z" />
<glyph unicode="&#xc6;" horiz-adv-x="1118" d="M68 -6q-12 20 0 41q8 13 28 20q4 1 13.5 2t13.5 2t16 13q2 12 9 40t8 44q2 16 9 45t9 45q9 41 23.5 117t17.5 92q33 172 43 215q16 82 33 151q6 28 18.5 86.5t18.5 87.5q6 28 17 83t17 83q17 74 33 160q5 18 -4 27q-2 2 -5 3t-7 1.5t-6 1.5q-1 1 -3 2t-3 2q-9 6 -17 14 q-17 21 0 45q11 14 31 17h6q133 0 170 -4q21 -3 43 -3q19 -1 56.5 -2t56.5 -2q52 0 86 7q25 4 78 4q12 1 35 1t42 1t35 4q2 0 7.5 -1t7.5 -1q17 -2 31.5 -15t15.5 -30v-9q0 -43 -4 -133q0 -11 -11 -26q-9 -13 -26 -15t-29 9q-14 10 -14 22q-1 12 -1 35.5t-1 36.5q0 14 -2 20 q-2 3 -11 8q-4 2 -14 2q-43 -4 -121 -8q-20 -2 -63 -2h-49q-9 0 -21 -4q-11 -4 -14 -14q-4 -12 -4 -35v-461v-28q2 -6 7 -13t11 -8h14q142 0 170 2q8 1 32.5 1.5t37.5 2.5q12 4 16 15q1 4 3.5 13t3.5 13t2 11t2 10q3 13 21 21t32 1q17 -11 20 -35q2 -4 2 -14q-5 -63 -2 -141 v-15q-6 -18 -22 -26q-6 -2 -21 -2q-19 3 -28 18q-8 21 -13 27q-3 9 -16 12h-20q-61 -4 -185 -4h-35q-32 -3 -32 -31v-49v-291q0 -73 -9 -147q0 -29 -2 -43q0 -7 7.5 -15t15.5 -10q1 0 3 -1t3 -1h14q40 -1 121 -3t121 -3q2 0 6.5 1t7.5 1t9 4.5t6 7.5q3 12 6 21v72q0 3 1 10 t1 10q1 12 12 21.5t23 9.5q12 2 24 -5.5t15 -19.5q4 -12 4 -20q3 -74 -6 -148q0 -6 -3 -15.5t-4 -12.5q-10 -22 -32 -25q-4 -2 -13 -2q-63 -3 -114 2q-85 7 -156 4q-24 0 -78 -4q-6 -2 -20 -2q-52 0 -60 47q-2 15 -2 92q4 120 8 178q0 2 -1 6.5t-1 6.5q-1 4 -6 9t-8 5 t-7.5 1t-6.5 1q-152 0 -228 2q-8 0 -20 -4q-7 -3 -10 -10q-12 -29 -15 -62q-2 -18 -6 -38t-9.5 -43.5t-8.5 -36.5q-8 -47 -10 -70q0 -3 4.5 -9t7.5 -8q4 -1 13 -3t13 -3q18 -9 21 -28q6 -37 -31 -47q-40 -5 -49 -5q-37 -2 -106 -2h-15q-18 3 -28 19zM311 451q0 -5 6.5 -12 t12.5 -7q2 0 7 -1t7 -1h199q2 0 6 1t6 1q7 0 12.5 6.5t5.5 12.5q5 35 5 43q0 258 2 446q0 28 1 140.5t1 183.5v43q0 10 -2 14q0 3 -5 7.5t-10 6.5q-22 3 -41 0q-11 -3 -18 -10q-18 -15 -21 -37q-2 -11 -8 -33.5t-8 -35.5q-1 -13 -6.5 -36.5t-7.5 -33.5q-5 -34 -20 -99 t-17 -73q-6 -34 -35 -166q-1 -6 -8.5 -41.5t-9.5 -54.5q-8 -30 -50 -230q-2 -6 -2.5 -18t-1.5 -16z" />
<glyph unicode="&#xc7;" horiz-adv-x="673" d="M66 684q-6 62 0 127q8 73 8 170q1 22 4 46.5t7.5 54.5t6.5 46q25 98 58 158q34 58 79 100q38 30 76 35q69 11 113 4q39 -3 67 -20q13 -5 31 -16q15 -6 29 0l12 6q27 7 45 -15q14 -21 4 -39q-3 -13 -8 -20q-7 -17 -21.5 -48t-21.5 -48q-2 -5 -7 -16.5t-7 -16.5 q-14 -21 -37 -18q-24 0 -33 20q-8 13 -4 35q2 5 6.5 15.5t8 19.5t5.5 18q0 6 -6 12q-3 5 -10 9q-5 3 -15.5 9t-15.5 9q-34 19 -82 16q-49 0 -79 -37q-74 -84 -91 -182q-15 -84 -16 -96v-14q-8 -31 -12 -121v-135h-2q2 -55 2 -170q4 -52 8 -76q1 -8 3 -24.5t3 -24.5 q3 -48 12 -99q15 -95 76 -204q15 -20 17 -23q25 -35 73 -41h15q51 6 90 35q5 4 13.5 11.5t12.5 10.5q16 13 33 13q39 3 43 -37q3 -26 -12 -47q-17 -17 -27 -25q-58 -41 -114 -49q-1 0 -7 -2t-8 -4q-8 -4 -10 -8q-13 -23 -4 -47q0 -10 6 -13q7 -7 37 -32q21 -18 35 -54 q0 -2 1 -7t1 -7v-35q0 -29 -19 -67q-12 -18 -28 -31q-29 -18 -54 -23q-40 -6 -75 2q-8 2 -27 11q-36 17 -49 57q-4 19 0 29q3 10 12 16q5 3 19 8q9 4 28 -4q8 -3 27 -22q11 -11 24 -11q19 0 29 2t19 10.5t10 18.5v27q-3 19 -21 26q-23 10 -41 15q-21 8 -28 39q0 5 -1 16.5 t-1 17.5q0 9 1 28t1 28q0 20 -17 30q-6 3 -12 9q-48 29 -76 81q-48 81 -67 156q-18 83 -21 111q-1 8 -3 24.5t-3 24.5q-6 32 -10 92q0 55 -2 84q0 42 -6 86z" />
<glyph unicode="&#xc8;" d="M68 70q5 16 24 22q4 2 14 2q8 2 27 2q4 0 9 5t5 10q3 3 3 6q5 128 8 155v37q0 3 6 948v64q0 8 -8 20q-6 1 -17.5 2.5t-17.5 2.5q-22 3 -29 26q-4 19 6 34.5t29 18.5q12 1 35 4.5t35 4.5q21 3 43 0q25 -4 112 -4q2 0 7.5 1t7.5 1q33 10 98 10t98 4q4 0 11.5 -1t11.5 -1 q13 0 24.5 -9.5t16.5 -23.5q0 -2 1 -7t1 -7q6 -37 6 -78v-14q-2 -19 -17 -29t-34 -4t-25 24q-2 6 -4 20t-4 21q0 6 -10 11q-4 4 -13 4h-28q-17 0 -49 -4q-102 -9 -142 -7h-35q-9 0 -16.5 -6.5t-7.5 -13.5q0 -5 -1 -15t-1 -14v-469q0 -18 2 -26q8 -15 14 -15q1 0 3.5 -1 t4.5 -1q127 0 168 6q19 2 56 3t45 2q3 0 8.5 4.5t7.5 7.5q0 2 1 6t1 6q1 4 2 11t2 10q9 18 27 24q30 10 47 -20q4 -8 4 -13q3 -11 0 -22q-1 -23 -4 -67t-4 -66q-1 -4 -2 -11.5t-2 -11.5q-5 -14 -20 -22.5t-31 -1.5q-21 9 -27 30q-1 5 -2 14.5t-2 14.5q0 6 -15 14h-6 q-59 -8 -219 -8q-36 0 -43 -2q-3 0 -8.5 -5.5t-5.5 -8.5q0 -2 -1 -7t-1 -8v-63q0 -46 -1 -138.5t-1 -138.5q0 -94 -6 -141q-4 -33 0 -49q2 -6 7 -12t11 -6q4 0 11.5 -1t11.5 -1q37 -1 112 -2.5t113 -2.5h22q4 0 7 1.5t6.5 5t5.5 4.5q8 31 8 69q1 3 2 10.5t2 10.5q1 13 14 23 t27 8q12 -2 22 -11.5t11 -21.5q2 -8 2 -29q0 -76 -2 -113q0 -10 -2 -14q-3 -13 -15 -22q-15 -11 -26 -11q-99 -7 -162 2q-31 4 -141 4q-4 0 -11.5 -1t-11.5 -1q-19 -4 -41.5 -5.5t-37.5 -1.5t-43 0.5t-40 0.5q-16 3 -30 17q-14 17 -4 41zM270 1602q10 10 19 16q89 56 127 78 q17 11 33.5 7.5t25.5 -20.5l6 -18q0 -24 -20 -37q-12 -7 -34 -21.5t-34 -21.5q-11 -7 -33.5 -20.5t-33.5 -20.5q-15 -8 -30 -5.5t-24 13.5q-21 28 -2 50z" />
<glyph unicode="&#xc9;" d="M68 70q5 16 24 22q4 2 14 2q8 2 27 2q4 0 9 5t5 10q3 3 3 6q5 128 8 155v37q0 3 6 948v64q0 8 -8 20q-6 1 -17.5 2.5t-17.5 2.5q-22 3 -29 26q-4 19 6 34.5t29 18.5q12 1 35 4.5t35 4.5q21 3 43 0q25 -4 112 -4q2 0 7.5 1t7.5 1q33 10 98 10t98 4q4 0 11.5 -1t11.5 -1 q13 0 24.5 -9.5t16.5 -23.5q0 -2 1 -7t1 -7q6 -37 6 -78v-14q-2 -19 -17 -29t-34 -4t-25 24q-2 6 -4 20t-4 21q0 6 -10 11q-4 4 -13 4h-28q-17 0 -49 -4q-102 -9 -142 -7h-35q-9 0 -16.5 -6.5t-7.5 -13.5q0 -5 -1 -15t-1 -14v-469q0 -18 2 -26q8 -15 14 -15q1 0 3.5 -1 t4.5 -1q127 0 168 6q19 2 56 3t45 2q3 0 8.5 4.5t7.5 7.5q0 2 1 6t1 6q1 4 2 11t2 10q9 18 27 24q30 10 47 -20q4 -8 4 -13q3 -11 0 -22q-1 -23 -4 -67t-4 -66q-1 -4 -2 -11.5t-2 -11.5q-5 -14 -20 -22.5t-31 -1.5q-21 9 -27 30q-1 5 -2 14.5t-2 14.5q0 6 -15 14h-6 q-59 -8 -219 -8q-36 0 -43 -2q-3 0 -8.5 -5.5t-5.5 -8.5q0 -2 -1 -7t-1 -8v-63q0 -46 -1 -138.5t-1 -138.5q0 -94 -6 -141q-4 -33 0 -49q2 -6 7 -12t11 -6q4 0 11.5 -1t11.5 -1q37 -1 112 -2.5t113 -2.5h22q4 0 7 1.5t6.5 5t5.5 4.5q8 31 8 69q1 3 2 10.5t2 10.5q1 13 14 23 t27 8q12 -2 22 -11.5t11 -21.5q2 -8 2 -29q0 -76 -2 -113q0 -10 -2 -14q-3 -13 -15 -22q-15 -11 -26 -11q-99 -7 -162 2q-31 4 -141 4q-4 0 -11.5 -1t-11.5 -1q-19 -4 -41.5 -5.5t-37.5 -1.5t-43 0.5t-40 0.5q-16 3 -30 17q-14 17 -4 41zM256 1661q-1 20 16.5 32.5t36.5 4.5 q10 -4 17 -10q20 -11 58 -34.5t58 -35.5q15 -10 21 -16q23 -23 6 -50q-9 -13 -23 -17t-28 3q-25 13 -27 14q-19 12 -56 36t-56 36q-23 13 -23 37z" />
<glyph unicode="&#xca;" d="M68 70q5 16 24 22q4 2 14 2q8 2 27 2q4 0 9 5t5 10q3 3 3 6q5 128 8 155v37q0 3 6 948v64q0 8 -8 20q-6 1 -17.5 2.5t-17.5 2.5q-22 3 -29 26q-4 19 6 34.5t29 18.5q12 1 35 4.5t35 4.5q21 3 43 0q25 -4 112 -4q2 0 7.5 1t7.5 1q33 10 98 10t98 4q4 0 11.5 -1t11.5 -1 q13 0 24.5 -9.5t16.5 -23.5q0 -2 1 -7t1 -7q6 -37 6 -78v-14q-2 -19 -17 -29t-34 -4t-25 24q-2 6 -4 20t-4 21q0 6 -10 11q-4 4 -13 4h-28q-17 0 -49 -4q-102 -9 -142 -7h-35q-9 0 -16.5 -6.5t-7.5 -13.5q0 -5 -1 -15t-1 -14v-469q0 -18 2 -26q8 -15 14 -15q1 0 3.5 -1 t4.5 -1q127 0 168 6q19 2 56 3t45 2q3 0 8.5 4.5t7.5 7.5q0 2 1 6t1 6q1 4 2 11t2 10q9 18 27 24q30 10 47 -20q4 -8 4 -13q3 -11 0 -22q-1 -23 -4 -67t-4 -66q-1 -4 -2 -11.5t-2 -11.5q-5 -14 -20 -22.5t-31 -1.5q-21 9 -27 30q-1 5 -2 14.5t-2 14.5q0 6 -15 14h-6 q-59 -8 -219 -8q-36 0 -43 -2q-3 0 -8.5 -5.5t-5.5 -8.5q0 -2 -1 -7t-1 -8v-63q0 -46 -1 -138.5t-1 -138.5q0 -94 -6 -141q-4 -33 0 -49q2 -6 7 -12t11 -6q4 0 11.5 -1t11.5 -1q37 -1 112 -2.5t113 -2.5h22q4 0 7 1.5t6.5 5t5.5 4.5q8 31 8 69q1 3 2 10.5t2 10.5q1 13 14 23 t27 8q12 -2 22 -11.5t11 -21.5q2 -8 2 -29q0 -76 -2 -113q0 -10 -2 -14q-3 -13 -15 -22q-15 -11 -26 -11q-99 -7 -162 2q-31 4 -141 4q-4 0 -11.5 -1t-11.5 -1q-19 -4 -41.5 -5.5t-37.5 -1.5t-43 0.5t-40 0.5q-16 3 -30 17q-14 17 -4 41zM238 1565q-10 35 16 55q62 51 98 78 q23 20 47 2q17 -14 50 -40.5t49 -39.5q15 -12 18.5 -30.5t-4.5 -33.5q-19 -29 -43 -8q-6 4 -76 60q-3 2 -8 6t-8 6q-30 -23 -76 -59q-7 -7 -16 -13q-15 -12 -29.5 -5.5t-17.5 22.5z" />
<glyph unicode="&#xcb;" d="M68 70q5 16 24 22q4 2 14 2q8 2 27 2q4 0 9 5t5 10q3 3 3 6q5 128 8 155v37q0 3 6 948v64q0 8 -8 20q-6 1 -17.5 2.5t-17.5 2.5q-22 3 -29 26q-4 19 6 34.5t29 18.5q12 1 35 4.5t35 4.5q21 3 43 0q25 -4 112 -4q2 0 7.5 1t7.5 1q33 10 98 10t98 4q4 0 11.5 -1t11.5 -1 q13 0 24.5 -9.5t16.5 -23.5q0 -2 1 -7t1 -7q6 -37 6 -78v-14q-2 -19 -17 -29t-34 -4t-25 24q-2 6 -4 20t-4 21q0 6 -10 11q-4 4 -13 4h-28q-17 0 -49 -4q-102 -9 -142 -7h-35q-9 0 -16.5 -6.5t-7.5 -13.5q0 -5 -1 -15t-1 -14v-469q0 -18 2 -26q8 -15 14 -15q1 0 3.5 -1 t4.5 -1q127 0 168 6q19 2 56 3t45 2q3 0 8.5 4.5t7.5 7.5q0 2 1 6t1 6q1 4 2 11t2 10q9 18 27 24q30 10 47 -20q4 -8 4 -13q3 -11 0 -22q-1 -23 -4 -67t-4 -66q-1 -4 -2 -11.5t-2 -11.5q-5 -14 -20 -22.5t-31 -1.5q-21 9 -27 30q-1 5 -2 14.5t-2 14.5q0 6 -15 14h-6 q-59 -8 -219 -8q-36 0 -43 -2q-3 0 -8.5 -5.5t-5.5 -8.5q0 -2 -1 -7t-1 -8v-63q0 -46 -1 -138.5t-1 -138.5q0 -94 -6 -141q-4 -33 0 -49q2 -6 7 -12t11 -6q4 0 11.5 -1t11.5 -1q37 -1 112 -2.5t113 -2.5h22q4 0 7 1.5t6.5 5t5.5 4.5q8 31 8 69q1 3 2 10.5t2 10.5q1 13 14 23 t27 8q12 -2 22 -11.5t11 -21.5q2 -8 2 -29q0 -76 -2 -113q0 -10 -2 -14q-3 -13 -15 -22q-15 -11 -26 -11q-99 -7 -162 2q-31 4 -141 4q-4 0 -11.5 -1t-11.5 -1q-19 -4 -41.5 -5.5t-37.5 -1.5t-43 0.5t-40 0.5q-16 3 -30 17q-14 17 -4 41zM254 1591q-3 22 16 41q23 23 47 15 q37 -13 43 -48q3 -28 -21 -48t-50 -11q-35 9 -35 51zM420 1604q6 29 33 41q35 14 63 -25q17 -23 4 -45q-9 -14 -10 -16q-15 -21 -37 -21q-29 0 -44 17.5t-9 48.5z" />
<glyph unicode="&#xcc;" horiz-adv-x="385" d="M63 1423q3 24 25 31q46 14 76 16q14 1 63 11q47 5 58 4q18 -3 28 -19q9 -15 4 -34t-22 -25q-8 -4 -14 -4q-3 -1 -10.5 -2t-10.5 -2q-3 0 -7.5 -6t-4.5 -9q-2 -8 -2 -22v-64v-1069q0 -100 -4 -149q0 -10 14 -14q26 -6 27 -7q20 -7 23 -28.5t-11 -36.5q-7 -7 -19 -10 q-36 -4 -55 -4q-20 0 -57 1t-55 1q-15 0 -26 10.5t-11 25.5q0 25 18 35q5 3 19 8q5 1 14 3.5t14 3.5q3 0 8 5t5 9q0 6 1 18t1 17v141l10 524v518q0 47 -2 70q0 4 -5 8t-10 4q-7 0 -19.5 -3t-14.5 -3q-19 -3 -35.5 10.5t-12.5 36.5zM113 1604q12 12 18 16q89 56 127 78 q40 24 59 -12q1 -2 7 -19q0 -23 -21 -37q-12 -7 -34 -21.5t-33 -21.5t-33.5 -20.5t-34.5 -20.5q-30 -18 -53 8q-21 28 -2 50z" />
<glyph unicode="&#xcd;" horiz-adv-x="380" d="M63 1421q-4 -23 12.5 -36.5t35.5 -10.5q2 0 14.5 3t19.5 3q5 0 10 -4t5 -8q2 -23 2 -70v-518l-10 -524v-141q0 -5 -1 -17t-1 -18q0 -4 -5 -9t-8 -5q-5 -1 -14 -3.5t-14 -3.5q-14 -5 -19 -8q-18 -10 -18 -35q0 -15 11 -25.5t26 -10.5q18 0 55 -1.5t57 -1.5q10 0 55 5 q12 3 19 10q14 15 11 36.5t-23 28.5q-5 2 -15.5 4t-11.5 2q-6 1 -10 6.5t-4 8.5q4 49 4 149v1069v64q0 14 2 22q0 3 4.5 9t7.5 6q3 1 10.5 2t10.5 2q6 0 14 4q17 6 22 25t-4 34q-10 16 -28 19q-11 1 -58 -4q-49 -10 -63 -11q-30 -2 -76 -16q-22 -7 -25 -31zM92 1667q0 1 2 8 t4 11q9 17 26 20t34 -8q37 -22 127 -78q6 -4 18 -16q19 -22 -2 -50q-23 -26 -53 -8q-11 7 -34 20.5t-34 20.5t-33.5 21.5t-33.5 21.5q-21 14 -21 37z" />
<glyph unicode="&#xce;" horiz-adv-x="417" d="M63 1421q3 24 25 31q46 14 76 16q14 1 63 11q47 5 58 4q18 -3 28 -19q9 -15 4 -34t-22 -25q-8 -4 -14 -4q-3 -1 -10.5 -2t-10.5 -2q-3 0 -7.5 -6t-4.5 -9q-2 -8 -2 -22v-64v-1069q0 -100 -4 -149q0 -3 4 -8.5t10 -6.5q1 0 11.5 -2t15.5 -4q20 -7 23 -28.5t-11 -36.5 q-7 -7 -19 -10q-45 -5 -55 -5q-20 0 -57 1.5t-55 1.5q-15 0 -26 10.5t-11 25.5q0 25 18 35q5 3 19 8q5 1 14 3.5t14 3.5q3 0 8 5t5 9q0 6 1 18t1 17v141l10 524v518q0 47 -2 70q0 4 -5 8t-10 4q-7 0 -19.5 -3t-14.5 -3q-19 -3 -35.5 10.5t-12.5 36.5zM76 1559q-10 35 16 55 q62 51 98 78q23 20 48 2q17 -14 49.5 -40.5t48.5 -39.5q15 -12 18.5 -30.5t-4.5 -33.5q-19 -29 -43 -8q-6 4 -76 60q-3 2 -8 6t-8 6q-13 -10 -76 -60q-4 -4 -16 -12q-15 -12 -29.5 -5.5t-17.5 22.5z" />
<glyph unicode="&#xcf;" horiz-adv-x="409" d="M63 1421q3 24 25 31q46 14 76 16q14 1 63 11q47 5 58 4q18 -3 28 -19q9 -15 4 -34t-22 -25q-8 -4 -14 -4q-3 -1 -10.5 -2t-10.5 -2q-3 0 -7.5 -6t-4.5 -9q-2 -8 -2 -22v-64v-1069q0 -100 -4 -149q0 -3 4 -8.5t10 -6.5q1 0 11.5 -2t15.5 -4q20 -7 23 -28.5t-11 -36.5 q-7 -7 -19 -10q-45 -5 -55 -5q-20 0 -57 1.5t-55 1.5q-15 0 -26 10.5t-11 25.5q0 25 18 35q5 3 19 8q5 1 14 3.5t14 3.5q3 0 8 5t5 9q0 6 1 18t1 17v141l10 524v518q0 47 -2 70q0 4 -5 8t-10 4q-7 0 -19.5 -3t-14.5 -3q-19 -3 -35.5 10.5t-12.5 36.5zM76 1591q-3 22 16 41 q23 23 47 15q37 -13 43 -48q3 -28 -21 -48t-50 -11q-35 9 -35 51zM242 1604q6 29 32 41q36 14 64 -25q17 -23 4 -45q-9 -14 -10 -16q-15 -21 -37 -21q-29 0 -44 17.5t-9 48.5z" />
<glyph unicode="&#xd0;" horiz-adv-x="847" d="M61 727v8q3 33 37 37q27 0 41 2h72q9 0 14.5 7t5.5 16q2 10 2 28v58v276q0 79 9 127v6q1 20 -6.5 28t-24.5 5q-7 -1 -19 -4l-16 -4h-14q-23 6 -31 29q-6 19 10 38q2 5 11 9q15 8 53 16q25 3 69.5 13t57.5 12q24 4 41 4q50 4 141 -15q65 -13 113 -55q54 -47 78 -100 q3 -8 8 -21.5t9 -25t7 -21.5q25 -104 31 -151q1 -15 7 -59t7 -68v-15q10 -34 10 -127v-106q0 -86 -10 -119q0 -30 -18 -127q-10 -68 -27 -131q-13 -46 -29 -80q-16 -38 -47 -78q-52 -61 -129 -88q-34 -11 -61 -16q-77 -15 -125 -15q-51 0 -92 -8q-31 -7 -78 -4q-26 0 -39 25 q-6 10 -3 23t13 20q12 12 25 12q7 1 19 1t21 1t17 4q4 2 8 10q2 4 2 15q2 23 2 63v441q0 8 -1 24.5t-1 24.5q-1 4 -6 9t-8 5q-10 0 -29 1t-28 1q-44 0 -64 2q-12 0 -23.5 10.5t-11.5 26.5zM317 1051q0 -21 1 -61.5t1 -59.5v-115q0 -4 1.5 -13.5t1.5 -13.5q5 -9 10 -12 q6 -2 20 -2q33 -2 99 -2q16 0 30 -18q6 -6 6 -27q0 -14 -10.5 -25.5t-23.5 -11.5q-10 -2 -35 -2h-70q-6 0 -14 -4t-10 -8q-5 -12 -5 -29v-452v-58q0 -2 1.5 -7t1.5 -7q6 -12 16 -12q22 0 25.5 -0.5t25 3.5t25.5 5q47 5 94 28q60 29 96 93q36 63 53 153q4 21 10.5 60.5 t10.5 58.5q6 27 10 84q1 16 3 49t3 49q3 39 0 78q-4 45 -8 135q0 29 -4 41q-1 6 -12 78q-2 14 -7.5 41.5t-7.5 42.5q-10 40 -12 47q-27 69 -41 92q-20 38 -63 64q-5 3 -45 20q-16 8 -41 8q-15 1 -31.5 1t-37 -0.5t-32.5 -0.5q-4 0 -6 -2q-8 -4 -10 -8q-4 -8 -4 -12 q-6 -75 -6 -78q-12 -95 -9 -190z" />
<glyph unicode="&#xd1;" horiz-adv-x="935" d="M63 1372q-3 10 3.5 23t17.5 18q6 4 18 8q5 1 14.5 3t14.5 3q44 2 105 13q13 0 26 -10q16 -10 23 -27q11 -23 16 -39q34 -96 43 -121q4 -12 12.5 -36.5t12.5 -37.5q12 -32 44 -121t52 -137q33 -88 96 -249.5t82 -210.5q9 -26 29 -66q2 -7 8 -10q4 0 4 6q14 63 14 133 q4 246 4 326q5 110 5 440q0 30 -7 70q-3 17 -18 20q-19 0 -27 2q-28 3 -34 31q-3 6 -3 14q8 31 39 35q10 2 29 2q94 0 141 -2q11 0 15 -2q22 -6 28 -27q5 -12 0.5 -25.5t-14.5 -19.5q-9 -6 -18 -6q-28 -6 -29 -6q-3 0 -8 -10q-4 -8 -4 -13v-57v-426q0 -145 -6 -219 q0 -5 -1.5 -14.5t-1.5 -14.5q0 -35 -1 -73.5t-2.5 -86t-2.5 -73.5q-2 -61 -2 -184q0 -15 2 -46t2 -47q3 -24 0 -49q0 -22 -20 -35q-20 -9 -41 0q-16 10 -25 27q-1 4 -5 12.5t-5 12.5q-26 74 -108 278q-7 17 -26.5 63.5t-29.5 73.5q-3 7 -19 48.5t-24 64.5q-10 31 -32.5 87 t-28.5 71q-55 132 -107 284q0 3 -1.5 5t-3.5 2.5t-3 -0.5q-4 0 -4 -7q-2 -4 -2 -12q-2 -14 -2 -43t1 -89t1 -89v-205q-6 -163 -6 -164q-7 -136 -4 -325q0 -19 18 -25q4 -1 11.5 -2t11.5 -2l12 -6q16 -9 16.5 -31t-12.5 -29q-6 -6 -18 -10q-3 0 -10.5 -1t-10.5 -1h-57 q-61 0 -92 -4q-23 -6 -39 10q-6 3 -10 11q-11 22 0 38q6 16 20 19q6 1 18 2t17 2q8 2 20 6q4 0 8.5 5.5t4.5 10.5q4 36 4 56v311q2 47 2 143q4 158 4 476q0 25 -2 76.5t-2 78.5q-1 14 -2 42t-2 42q0 7 -15 15h-14q-9 0 -49 -5h-21q-27 0 -37 31zM330 1575q27 84 108 92 q19 0 37 -6q47 -23 49 -25q21 -14 39 -14q26 0 37 20q1 3 3 8.5t3 8.5q19 26 49 16q12 -6 19 -20t4 -29q-18 -59 -76 -80q-13 -4 -39 -8q-41 3 -82 29q-3 2 -10 6t-10 6q-36 15 -53 -18l-2 -7q-3 -6 -5 -8q-15 -31 -47 -20q-15 6 -22 20t-2 29z" />
<glyph unicode="&#xd2;" d="M61 586v276q0 10 5 78q1 12 3 35t3 35q3 42 8 71q2 8 4 24.5t4 24.5q13 87 39 150q21 51 55 90q31 35 68 51q43 18 74 21h22q51 0 115 -31q30 -15 55 -43q41 -58 51 -76q34 -64 43 -135q1 -10 4 -30.5t4 -30.5q1 -6 3.5 -24t3.5 -28q4 -50 8 -75q6 -25 6 -72 q1 -34 2 -101t2 -100q-2 -61 -2 -174q-4 -103 -14 -141q-3 -34 -29 -131q-5 -19 -33 -86q-11 -33 -49 -76q-42 -37 -55 -45q-24 -19 -64 -29q-21 -6 -63 -2q-78 16 -131 66q-33 33 -45 61q-25 53 -33 72q-25 56 -39 143q-12 78 -12 84q-2 13 -4 39t-4 39q-5 58 -5 70z M154 680q0 -164 14 -246q1 -6 2 -18t2 -17q0 -14 2 -22q25 -104 47 -148q11 -24 29 -57q10 -20 26 -31q30 -23 64 -32q32 -10 61 8q51 31 74 82q31 69 37 92q16 54 29 125q1 7 2 21t2 20q8 29 8 84v149v64v71q0 58 -8 105q-4 28 -4 43q-1 14 -11 76q-4 17 -7.5 48.5 t-4.5 35.5q-1 7 -3 21.5t-3 21.5q-1 3 -3 10t-3 10q-16 46 -39 82q-24 37 -64 55q-27 10 -47 13q-45 6 -82 -21q-19 -13 -36 -41q-41 -78 -52 -145q-16 -83 -18 -119q0 -15 -4 -35q-1 -7 -3 -21.5t-3 -21.5q-5 -142 -4 -170v-92zM248 1663q-1 20 16.5 32.5t36.5 4.5 q9 -3 16 -10q19 -12 58 -35.5t59 -34.5q15 -10 21 -16q23 -23 6 -50q-9 -13 -23 -17t-28 3q-25 12 -27 14q-19 12 -56.5 35.5t-56.5 36.5q-22 13 -22 37z" />
<glyph unicode="&#xd3;" d="M61 586q0 -12 5 -70q2 -13 4 -39t4 -39q0 -6 12 -84q14 -87 39 -143q8 -19 33 -72q12 -28 45 -61q53 -50 131 -66q42 -4 63 2q40 10 64 29q13 8 55 45q38 43 49 76q28 67 33 86q26 97 29 131q10 38 14 141q0 113 2 174q-1 33 -2 100t-2 101q0 47 -6 72q-4 25 -8 75 q-1 10 -3.5 28t-3.5 24q-1 10 -4 30.5t-4 30.5q-9 71 -43 135q-10 18 -51 76q-25 28 -55 43q-64 31 -115 31h-22q-31 -3 -74 -21q-37 -16 -68 -51q-34 -39 -55 -90q-26 -63 -39 -150q-2 -8 -4 -24.5t-4 -24.5q-5 -29 -8 -71q-1 -12 -3 -35t-3 -35q-5 -68 -5 -78v-276z M154 680v92q-1 28 4 170q1 7 3 21.5t3 21.5q4 20 4 35q2 36 18 119q11 67 52 145q17 28 36 41q37 27 82 21q20 -3 47 -13q40 -18 64 -55q23 -36 39 -82q1 -3 3 -10t3 -10q1 -7 3 -21.5t3 -21.5q1 -4 4.5 -35.5t7.5 -48.5q10 -61 11 -76q0 -15 4 -43q8 -47 8 -105v-71v-64 v-149q0 -55 -8 -84q-1 -6 -2 -20t-2 -21q-13 -71 -29 -125q-6 -24 -37 -92q-23 -51 -74 -82q-29 -18 -61 -8q-34 9 -64 32q-16 11 -26 31q-18 33 -29 57q-22 44 -47 148q-2 8 -2 22q-1 5 -2 17t-2 18q-14 82 -14 246zM254 1554q-17 27 6 50q6 6 21 16q19 11 58 34.5t58 35.5 q6 6 17 10q19 8 36.5 -4.5t16.5 -32.5q0 -24 -23 -37q-18 -12 -55.5 -36t-56.5 -36q-2 -2 -27 -14q-14 -7 -28 -3t-23 17z" />
<glyph unicode="&#xd4;" d="M61 586v276q0 10 5 78q1 12 3 35t3 35q3 42 8 71q2 8 4 24.5t4 24.5q13 87 39 150q21 51 55 90q31 35 68 51q43 18 74 21h22q51 0 115 -31q30 -15 55 -43q41 -58 51 -76q34 -64 43 -135q1 -10 4 -30.5t4 -30.5q1 -6 3.5 -24t3.5 -28q4 -50 8 -75q6 -25 6 -72 q1 -34 2 -101t2 -100q-2 -61 -2 -174q-4 -103 -14 -141q-3 -34 -29 -131q-5 -19 -33 -86q-11 -33 -49 -76q-42 -37 -55 -45q-24 -19 -64 -29q-21 -6 -63 -2q-78 16 -131 66q-33 33 -45 61q-25 53 -33 72q-25 56 -39 143q-12 78 -12 84q-2 13 -4 39t-4 39q-5 58 -5 70z M154 680q0 -164 14 -246q1 -6 2 -18t2 -17q0 -14 2 -22q25 -104 47 -148q11 -24 29 -57q10 -20 26 -31q30 -23 64 -32q32 -10 61 8q51 31 74 82q31 69 37 92q16 54 29 125q1 7 2 21t2 20q8 29 8 84v149v64v71q0 58 -8 105q-4 28 -4 43q-1 14 -11 76q-4 17 -7.5 48.5 t-4.5 35.5q-1 7 -3 21.5t-3 21.5q-1 3 -3 10t-3 10q-16 46 -39 82q-24 37 -64 55q-27 10 -47 13q-45 6 -82 -21q-19 -13 -36 -41q-41 -78 -52 -145q-16 -83 -18 -119q0 -15 -4 -35q-1 -7 -3 -21.5t-3 -21.5q-5 -142 -4 -170v-92zM215 1559q-10 35 16 55q49 40 99 78 q23 20 47 2q16 -14 49 -40.5t49 -39.5q15 -12 18.5 -30.5t-4.5 -33.5q-19 -29 -43 -8q-12 8 -24.5 18t-27.5 22.5t-23 19.5q-3 2 -8.5 6t-8.5 6q-12 -9 -24.5 -19l-27.5 -22t-23 -19q-2 -2 -17 -12q-15 -12 -29.5 -5.5t-17.5 22.5z" />
<glyph unicode="&#xd5;" d="M61 586v276q0 10 5 78q1 12 3 35t3 35q3 42 8 71q2 8 4 24.5t4 24.5q13 87 39 150q21 51 55 90q31 35 68 51q43 18 74 21h22q51 0 115 -31q30 -15 55 -43q41 -58 51 -76q34 -64 43 -135q1 -10 4 -30.5t4 -30.5q1 -6 3.5 -24t3.5 -28q4 -50 8 -75q6 -25 6 -72 q1 -34 2 -101t2 -100q-2 -61 -2 -174q-4 -103 -14 -141q-3 -34 -29 -131q-5 -19 -33 -86q-11 -33 -49 -76q-42 -37 -55 -45q-24 -19 -64 -29q-21 -6 -63 -2q-78 16 -131 66q-33 33 -45 61q-25 53 -33 72q-25 56 -39 143q-12 78 -12 84q-2 13 -4 39t-4 39q-5 58 -5 70z M154 680q0 -164 14 -246q1 -6 2 -18t2 -17q0 -14 2 -22q25 -104 47 -148q11 -24 29 -57q10 -20 26 -31q30 -23 64 -32q32 -10 61 8q51 31 74 82q31 69 37 92q16 54 29 125q1 7 2 21t2 20q8 29 8 84v149v64v71q0 58 -8 105q-4 28 -4 43q-1 14 -11 76q-4 17 -7.5 48.5 t-4.5 35.5q-1 7 -3 21.5t-3 21.5q-1 3 -3 10t-3 10q-16 46 -39 82q-24 37 -64 55q-27 10 -47 13q-45 6 -82 -21q-19 -13 -36 -41q-41 -78 -52 -145q-16 -83 -18 -119q0 -15 -4 -35q-1 -7 -3 -21.5t-3 -21.5q-5 -142 -4 -170v-92zM170 1575q27 84 109 92q18 0 36 -6 q5 -3 16 -7.5t19.5 -9t14.5 -8.5q21 -14 38 -14q26 0 37 20q1 3 3 8.5t3 8.5q20 26 50 16q12 -6 18.5 -20t3.5 -29q-18 -59 -76 -80q-13 -4 -39 -8q-40 3 -81 29q-3 2 -10.5 6t-10.5 6q-36 15 -53 -18q0 -1 -2 -7t-4 -8q-15 -31 -47 -20q-15 6 -22 20t-3 29z" />
<glyph unicode="&#xd6;" d="M61 586v276q0 10 5 78q1 12 3 35t3 35q3 42 8 71q2 8 4 24.5t4 24.5q13 87 39 150q21 51 55 90q31 35 68 51q43 18 74 21h22q51 0 115 -31q30 -15 55 -43q41 -58 51 -76q34 -64 43 -135q1 -10 4 -30.5t4 -30.5q1 -6 3.5 -24t3.5 -28q4 -50 8 -75q6 -25 6 -72 q1 -34 2 -101t2 -100q-2 -61 -2 -174q-4 -103 -14 -141q-3 -34 -29 -131q-5 -19 -33 -86q-11 -33 -49 -76q-42 -37 -55 -45q-24 -19 -64 -29q-21 -6 -63 -2q-78 16 -131 66q-33 33 -45 61q-25 53 -33 72q-25 56 -39 143q-12 78 -12 84q-2 13 -4 39t-4 39q-5 58 -5 70z M154 680q0 -164 14 -246q1 -6 2 -18t2 -17q0 -14 2 -22q25 -104 47 -148q11 -24 29 -57q10 -20 26 -31q30 -23 64 -32q32 -10 61 8q51 31 74 82q31 69 37 92q16 54 29 125q1 7 2 21t2 20q8 29 8 84v149v64v71q0 58 -8 105q-4 28 -4 43q-1 14 -11 76q-4 17 -7.5 48.5 t-4.5 35.5q-1 7 -3 21.5t-3 21.5q-1 3 -3 10t-3 10q-16 46 -39 82q-24 37 -64 55q-27 10 -47 13q-45 6 -82 -21q-19 -13 -36 -41q-41 -78 -52 -145q-16 -83 -18 -119q0 -15 -4 -35q-1 -7 -3 -21.5t-3 -21.5q-5 -142 -4 -170v-92zM227 1591q-3 21 17 41q23 23 47 15 q37 -13 43 -48q3 -28 -21.5 -48t-50.5 -11q-35 9 -35 51zM393 1604q6 29 33 41q35 14 63 -25q17 -24 5 -45q-1 -2 -4 -5t-4.5 -5.5t-2.5 -5.5q-15 -21 -37 -21q-29 0 -44 17.5t-9 48.5z" />
<glyph unicode="&#xd7;" horiz-adv-x="421" d="M66 641q0 15 12 18l33 33q16 14 47 45h-2l-35 33l-49 49q-12 21 2 45q13 13 16 13q14 14 39 -7q16 -12 25 -18q41 -36 59 -57q7 11 43 47l43 43h18q15 -2 28 -20.5t7 -33.5h-2q-5 -13 -10 -20q-2 -3 -12 -13t-13 -14q-10 -8 -36 -39q-1 -1 -3.5 -5t-3.5 -5l11 -12 q15 -12 26 -23q15 -15 33 -30q8 -4 12 -15q9 -27 -2 -43q-23 -29 -55 -6q-9 3 -27 21l-47 47q-3 3 -28 -15q-38 -33 -66 -61q-20 -20 -49 -4q-21 18 -14 47z" />
<glyph unicode="&#xd8;" horiz-adv-x="743" d="M63 -29q-6 24 7 43q27 47 53 125q8 19 10 31q1 5 4 11.5t4 8.5q7 23 15 35q-18 49 -23 84q-1 4 -2.5 11.5t-2.5 13.5t-1 10q-20 112 -23 199v178v145q0 115 29 285q11 62 37 127q16 39 49 80q59 68 137 74q95 10 168 -43q2 -2 10 -8t11 -11q1 -2 4 -5t4 -5l33 92q0 2 2 4 v6q13 29 43 29l12 2q10 -1 18.5 -10t10.5 -19q0 -20 -2 -32q-6 -29 -19 -62q-14 -45 -37 -102q22 -46 31 -97q7 -46 17 -130.5t12 -102.5q3 -26 8 -227q0 -113 -2 -170q0 -144 -37 -277q-10 -42 -41 -117q-30 -64 -104 -118q-44 -29 -92 -29q-113 3 -189 94q-2 4 -6 8 q-1 1 -2 3.5t-2 3.5q-4 -15 -17 -46q-5 -16 -34 -77q-6 -9 -13 -23q-13 -22 -41 -22h-8q-13 2 -22 10t-9 20zM186 649q0 -112 21 -266q0 -6 2 -10q2 6 6 19.5t6 19.5q2 7 49 139q3 8 9 25t8 22q4 12 15 41.5t17 46.5q5 15 15.5 44t15.5 44q2 5 7.5 18t7.5 21q4 13 15 44.5 t17 49.5q25 70 25 72q8 24 36.5 111.5t45.5 134.5q9 27 14 37l-12 18q-37 54 -123 68q-10 2 -23 -2q-64 -15 -92 -76q-18 -35 -35 -84q-18 -64 -28 -156q-19 -156 -19 -244q3 -70 0 -137zM252 223q14 -32 27 -55q17 -39 55 -57q12 -7 45 -21q27 -11 57 6q63 36 90 105 q34 78 43 125q15 70 17 88q10 82 10 100v168q6 150 -10 276q-2 17 -23 162q-13 -42 -47 -139q-4 -14 -13.5 -42.5t-13.5 -43.5q-20 -65 -49 -137q-27 -80 -34 -103q-2 -5 -6.5 -15t-6.5 -15q-15 -49 -43 -117q-37 -104 -53 -156q-4 -16 -8 -26q-6 -20 -19.5 -56t-17.5 -47z " />
<glyph unicode="&#xd9;" horiz-adv-x="882" d="M66 1409q6 18 24 25q8 2 21 2q66 2 192 2q13 0 24.5 -11t14.5 -26q0 -4 -2 -6q-7 -39 -43 -39q-14 -2 -43 -2q-21 0 -21 -23v-28q3 -73 3 -150q2 -104 10 -297q0 -71 2 -106q0 -57 4 -84q3 -32 5 -68t4 -78.5t3 -66.5q1 -28 7.5 -79t7.5 -69q11 -73 26 -110 q18 -56 70 -86q15 -9 33 -15q6 -4 20 -4q19 -3 33 8q58 46 82 113q37 113 51 184q4 22 8 64q5 70 8 84q2 15 3 31.5t1.5 37t1.5 31.5q1 52 2.5 155.5t2.5 155.5h-3q1 61 2.5 182t2.5 181q0 2 -1 6.5t-1 7.5q0 5 -4.5 12.5t-10.5 8.5q-12 4 -18 8q-17 9 -23 26q-3 9 0 21 q9 24 37 31q49 8 78 10q52 6 104 0q20 -1 29.5 -18t3.5 -35q-9 -24 -37 -27h-22.5t-26.5 -4q-6 0 -10 -8t-4 -15v-49q0 -18 -1 -53t-1 -53q0 -12 -1 -36t-1 -36v-248q0 -24 -11 -305q0 -57 -10 -98q-4 -14 -4 -49q-2 -43 -22 -125q-4 -17 -9.5 -36t-13.5 -42.5t-12 -36.5 q-29 -84 -101 -143q-12 -12 -22 -17q-58 -37 -123 -16q-28 11 -51 22q-82 48 -115 130q-15 38 -26 104q-2 13 -6 37.5t-5 32.5q-4 14 -4 41q-1 15 -2 43t-2 43q0 23 -4 77q-4 35 -8 113q0 61 -2 92q0 44 -4 64q-6 58 -6 114v211q-1 31 -2.5 93t-2.5 92q0 20 -2 28 q0 11 -12 17q-15 0 -35 4q-18 3 -27 19t-3 34zM330 1663q-1 20 16.5 32.5t36.5 4.5q9 -3 16 -10q19 -12 58 -35.5t59 -34.5q15 -10 21 -16q23 -23 6 -50q-9 -13 -23 -17t-28 3q-25 12 -27 14q-19 12 -56.5 35.5t-56.5 36.5q-22 13 -22 37z" />
<glyph unicode="&#xda;" horiz-adv-x="882" d="M66 1409q-6 -18 3 -34t27 -19q20 -4 35 -4q12 -6 12 -17q2 -8 2 -28q1 -30 2.5 -92t2.5 -93v-211q0 -55 6 -114q4 -20 4 -64q2 -31 2 -92q4 -78 8 -113q4 -54 4 -77q1 -15 2 -43t2 -43q0 -27 4 -41q1 -8 5 -32.5t6 -37.5q11 -66 26 -104q33 -82 115 -130q23 -11 51 -22 q65 -21 123 16q10 5 22 17q72 59 101 143q4 13 12 36.5t13.5 42.5t9.5 36q20 82 22 125q0 35 4 49q10 41 10 98q11 281 11 305v248q0 12 1 36t1 36q0 18 1 53t1 53v49q0 7 4 15t10 8q8 4 26.5 4h22.5q28 3 37 27q6 18 -3.5 35t-29.5 18q-52 6 -104 0q-29 -2 -78 -10 q-28 -7 -37 -31q-3 -12 0 -21q6 -17 23 -26q6 -4 18 -8q6 -1 10.5 -8.5t4.5 -12.5q0 -3 1 -7.5t1 -6.5q-1 -60 -2.5 -181t-2.5 -182h3q-1 -52 -2.5 -155.5t-2.5 -155.5q-1 -11 -1.5 -31.5t-1.5 -37t-3 -31.5q-3 -14 -8 -84q-4 -42 -8 -64q-14 -71 -51 -184q-24 -67 -82 -113 q-14 -11 -33 -8q-14 0 -20 4q-18 6 -33 15q-52 30 -70 86q-15 37 -26 110q-1 18 -7.5 69t-7.5 79q-1 24 -3 66.5t-4 78.5t-5 68q-4 27 -4 84q-2 35 -2 106q-8 193 -10 297q0 77 -3 150v28q0 23 21 23q29 0 43 2q36 0 43 39q2 2 2 6q-3 15 -14.5 26t-24.5 11q-126 0 -192 -2 q-13 0 -21 -2q-18 -7 -24 -25zM348 1554q-17 27 6 50q6 6 21 16q19 11 58 34.5t59 35.5q7 7 16 10q19 8 36.5 -4.5t16.5 -32.5q0 -24 -22 -37q-19 -13 -56.5 -36.5t-56.5 -35.5q-2 -2 -27 -14q-14 -7 -28 -3t-23 17z" />
<glyph unicode="&#xdb;" horiz-adv-x="882" d="M66 1409q6 18 24 25q8 2 21 2q66 2 192 2q13 0 24.5 -11t14.5 -26q0 -4 -2 -6q-7 -39 -43 -39q-14 -2 -43 -2q-21 0 -21 -23v-28q3 -73 3 -150q2 -104 10 -297q0 -71 2 -106q0 -57 4 -84q3 -32 5 -68t4 -78.5t3 -66.5q1 -28 7.5 -79t7.5 -69q11 -73 26 -110 q18 -56 70 -86q15 -9 33 -15q6 -4 20 -4q19 -3 33 8q58 46 82 113q37 113 51 184q4 22 8 64q5 70 8 84q2 15 3 31.5t1.5 37t1.5 31.5q1 52 2.5 155.5t2.5 155.5h-3q1 61 2.5 182t2.5 181q0 2 -1 6.5t-1 7.5q0 5 -4.5 12.5t-10.5 8.5q-12 4 -18 8q-17 9 -23 26q-3 9 0 21 q9 24 37 31q49 8 78 10q52 6 104 0q20 -1 29.5 -18t3.5 -35q-9 -24 -37 -27h-22.5t-26.5 -4q-6 0 -10 -8t-4 -15v-49q0 -18 -1 -53t-1 -53q0 -12 -1 -36t-1 -36v-248q0 -24 -11 -305q0 -57 -10 -98q-4 -14 -4 -49q-2 -43 -22 -125q-4 -17 -9.5 -36t-13.5 -42.5t-12 -36.5 q-29 -84 -101 -143q-12 -12 -22 -17q-58 -37 -123 -16q-28 11 -51 22q-82 48 -115 130q-15 38 -26 104q-2 13 -6 37.5t-5 32.5q-4 14 -4 41q-1 15 -2 43t-2 43q0 23 -4 77q-4 35 -8 113q0 61 -2 92q0 44 -4 64q-6 58 -6 114v211q-1 31 -2.5 93t-2.5 92q0 20 -2 28 q0 11 -12 17q-15 0 -35 4q-18 3 -27 19t-3 34zM303 1559q-10 35 16 55q49 40 99 78q23 20 47 2q17 -14 49 -40.5t49 -39.5q15 -12 19 -30.5t-4 -33.5q-19 -29 -43 -8q-6 4 -76 60q-3 2 -8.5 6t-8.5 6l-75 -60q-2 -2 -17 -12q-15 -12 -29.5 -5.5t-17.5 22.5z" />
<glyph unicode="&#xdc;" horiz-adv-x="882" d="M66 1409q6 18 24 25q8 2 21 2q66 2 192 2q13 0 24.5 -11t14.5 -26q0 -4 -2 -6q-7 -39 -43 -39q-14 -2 -43 -2q-21 0 -21 -23v-28q3 -73 3 -150q2 -104 10 -297q0 -71 2 -106q0 -57 4 -84q3 -32 5 -68t4 -78.5t3 -66.5q1 -28 7.5 -79t7.5 -69q11 -73 26 -110 q18 -56 70 -86q15 -9 33 -15q6 -4 20 -4q19 -3 33 8q58 46 82 113q37 113 51 184q4 22 8 64q5 70 8 84q2 15 3 31.5t1.5 37t1.5 31.5q1 52 2.5 155.5t2.5 155.5h-3q1 61 2.5 182t2.5 181q0 2 -1 6.5t-1 7.5q0 5 -4.5 12.5t-10.5 8.5q-12 4 -18 8q-17 9 -23 26q-3 9 0 21 q9 24 37 31q49 8 78 10q52 6 104 0q20 -1 29.5 -18t3.5 -35q-9 -24 -37 -27h-22.5t-26.5 -4q-6 0 -10 -8t-4 -15v-49q0 -18 -1 -53t-1 -53q0 -12 -1 -36t-1 -36v-248q0 -24 -11 -305q0 -57 -10 -98q-4 -14 -4 -49q-2 -43 -22 -125q-4 -17 -9.5 -36t-13.5 -42.5t-12 -36.5 q-29 -84 -101 -143q-12 -12 -22 -17q-58 -37 -123 -16q-28 11 -51 22q-82 48 -115 130q-15 38 -26 104q-2 13 -6 37.5t-5 32.5q-4 14 -4 41q-1 15 -2 43t-2 43q0 23 -4 77q-4 35 -8 113q0 61 -2 92q0 44 -4 64q-6 58 -6 114v211q-1 31 -2.5 93t-2.5 92q0 20 -2 28 q0 11 -12 17q-15 0 -35 4q-18 3 -27 19t-3 34zM301 1591q-3 22 16 41q23 23 48 15q37 -13 43 -48q3 -28 -21.5 -48t-50.5 -11q-35 9 -35 51zM467 1604q6 29 33 41q35 14 63 -25q17 -23 4 -45q-9 -14 -10 -16q-15 -21 -37 -21q-29 0 -44 17.5t-9 48.5z" />
<glyph unicode="&#xdd;" horiz-adv-x="856" d="M66 1382q6 -22 28 -28q6 -1 18 -1t17 -1q13 -3 16 -13q12 -24 33 -86q62 -160 88 -239q83 -241 88 -254q32 -97 37 -115q8 -16 8 -27q11 -96 11 -104v-135q0 -46 1 -138.5t1 -138.5q0 -19 -6.5 -25t-28.5 -9q-2 0 -17.5 -3t-23.5 -4l-12 -6q-17 -14 -17 -30q0 -21 21 -35 q18 -11 34 -8q13 3 28 4t34 1t29 1q15 1 46 2t46 2q8 0 28 4q14 3 22 15.5t7 27.5q0 14 -11 24.5t-26 10.5q-6 1 -24.5 0.5t-24.5 1.5q-3 0 -8.5 5.5t-5.5 8.5q0 6 -1 20t-1 21v418v29.5t1.5 19.5t2 13.5t6 19t8.5 28.5q1 5 4 12t4 9q62 154 117 356q65 252 74 287q2 8 6 20 q9 13 14 15q6 2 17.5 6t17.5 6q15 8 19.5 28t-7.5 34q-18 18 -36 16q-39 -10 -93 -10q-17 0 -63 -4q-13 -1 -24 -13t-11 -26q0 -15 8.5 -26.5t22.5 -14.5q26 -5 28 -6q3 0 5.5 -3.5t1.5 -7.5q-5 -28 -20 -81t-21 -80q-9 -42 -25 -99q-41 -135 -84 -270q-5 -14 -10 -19 q-8 -4 -12 0q-5 5 -9 13q-48 124 -84 239q-25 89 -49 142q-23 51 -59 157q-4 13 10 17q5 2 16.5 5t16.5 5q18 5 26 31q3 17 -8 31t-26 14q-151 -5 -179 -8h-6q-15 -3 -24 -15q-20 -20 -10 -37zM342 1554q-17 27 6 50q6 6 21 16q20 11 58 34.5t58 35.5q7 6 17 10 q19 8 36.5 -4.5t16.5 -32.5q0 -24 -23 -37q-19 -12 -56.5 -36t-55.5 -36q-2 -2 -27 -14q-14 -7 -28 -3t-23 17z" />
<glyph unicode="&#xde;" horiz-adv-x="653" d="M63 2q-3 35 29 43q8 2 23 2q6 2 20 2q8 4 15 4q3 2 7.5 8t4.5 9v77q-1 18 -2 53.5t-2 53.5q-2 45 -2 135q4 131 0 199v63q-1 73 -3 209t-3 247.5t0 209.5q0 5 -1.5 14.5t-1.5 14.5q0 3 -4.5 8.5t-7.5 5.5q-21 0 -29 2q-20 3 -26 22q-13 44 26 56q12 4 15 4q49 6 147 14 q17 1 29.5 -9t17.5 -26v-8q-7 -28 -30 -37q-27 -6 -35 -8q-7 0 -12 -14q-3 -34 0 -64q0 -6 5 -12.5t11 -7.5q9 -1 28.5 -4t28.5 -4q8 0 24.5 -1t24.5 -1q58 -3 107 -37q56 -36 84 -103q21 -56 27 -86q12 -59 12 -149v-113q0 -32 -12 -90q-25 -104 -125 -166q-20 -12 -54 -20 q-10 -2 -43.5 -9t-52.5 -10q-40 -10 -47 -12q-1 -2 -3.5 -6.5t-2.5 -7.5q-2 -4 -2 -13v-207q0 -47 4 -149q0 -4 4 -12q15 -3 27 -6q11 -2 24 -15q15 -15 9.5 -37t-25.5 -26q-70 -17 -98 -17q-20 0 -56 -4q-7 0 -21.5 1t-21.5 1q-12 1 -20.5 11t-10.5 22zM238 1157 q-3 -70 4 -156q4 -41 4 -127v-225q0 -10 1 -31.5t1 -31.5q0 -9 10 -19h21q37 9 102 27q44 12 68 47q26 34 38 76q17 77 15 110q0 66 -6 99q-2 7 -7 49q-6 65 -32 115q-14 29 -28.5 42t-47.5 27q-2 1 -7 2t-7 2q-59 16 -111 13q-6 0 -12 -6.5t-6 -12.5z" />
<glyph unicode="&#xdf;" horiz-adv-x="700" d="M63 1391q3 24 29 34q10 5 14 5q6 1 17.5 2t17.5 2q53 14 142 6q48 -6 49 -6q24 -2 67 -17q84 -31 127 -106q33 -56 49 -125q17 -62 19 -90q0 -8 1 -17.5t2.5 -21.5t2.5 -19q8 -65 -12 -147q-7 -29 -21 -51q-4 -6 -11 -18.5t-11 -18.5q-10 -20 -10 -41q-3 -16 0 -35 q0 -11 6 -20q18 -27 28 -41q34 -50 45 -88q15 -64 17 -74q15 -89 0 -178q-9 -53 -31 -109q-39 -85 -113 -133q-55 -30 -90 -43q-2 0 -6 -1t-6 -1q-12 -2 -24 6.5t-13 20.5q-6 31 14 51q13 13 23 18q15 10 37 21q77 45 100 123q3 10 9.5 30.5t9.5 30.5q8 40 8 63 q5 78 -39 179q-7 19 -31 47q-37 37 -57 53l-14 14q-13 16 -13 33q-3 30 15 62q3 4 9 11t9 11q6 8 19.5 24.5t19.5 24.5q17 20 27 49q14 41 12 70v27q3 55 -16 128t-48 126q-19 39 -59 57q-22 12 -57 24q-9 3 -37 3q-6 0 -12.5 -7t-6.5 -12v-14q4 -25 9 -99q6 -117 6 -120 q4 -37 4 -113q0 -18 1 -54t1 -53q4 -74 4 -219v-184v-35q-3 0 -1 -114l1 -113v-291q0 -33 2 -49q0 -7 14 -14q8 -1 23 0.5t20 1.5q3 -1 9.5 -3.5t9.5 -3.5q10 -4 16 -16.5t4 -26.5q-3 -20 -26 -30q-2 -1 -7 -2t-8 -2q-17 0 -49 -4q-39 0 -90 -7q-42 -7 -72 -2q-11 0 -22 15 q-9 10 -8.5 25.5t10.5 25.5q13 13 31 16h19.5t23.5 4q3 2 8 11q4 4 4 12v43q0 30 -1 89t-1 87q0 130 2 193v135v473q0 63 -8 115q-1 13 -2 38.5t-2 38.5q0 55 -9 113q0 1 -6 92q0 9 -1 27.5t-1 27.5q0 4 -5.5 8.5t-8.5 4.5q-9 -1 -31 -4.5t-33 -3.5q-15 2 -26.5 15t-10.5 30 z" />
<glyph unicode="&#xe0;" horiz-adv-x="540" d="M61 213q2 -16 2 -49q6 -51 33 -101q20 -28 37 -40q13 -13 31 -19q5 -2 14 -5.5t12 -4.5q33 -7 62 2q36 11 57 29q15 10 17 12q4 3 9 0.5t7 -8.5q0 -11 4 -27q4 -15 22 -22.5t31 0.5q1 0 66 40q3 3 8 13q8 13 3.5 29.5t-17.5 25.5q-2 1 -7.5 2t-7.5 2q-16 8 -16 29 q-8 136 -8 205v204q0 14 -1 40t-1 38q0 39 -21 90q-29 74 -100 93q-40 10 -76 4q-67 -12 -115 -66q-16 -15 -22 -35q-3 -11 0 -20q7 -18 14 -25q9 -6 24.5 -6.5t24.5 4.5q26 22 39 31q39 26 86 20q3 -1 8 -2t7 -2q19 -13 28 -30q2 -5 6.5 -15t7 -18t3.5 -15q9 -68 4 -127 q0 -7 -6.5 -14.5t-14.5 -9.5q-8 -4 -14 -4q-4 0 -14 -1t-15 -1q-33 0 -88 -19q-80 -28 -104 -108q-19 -55 -17 -90v-29h-2zM147 172q-4 34 3 92q3 25 22 51q12 17 31 27q23 13 47 16q8 2 24.5 5.5t24.5 5.5h12q9 1 17 -5t10 -14q0 -10 1 -26t1 -17v-41q0 -37 -18 -67 q-5 -9 -15.5 -28t-15.5 -28q-15 -24 -37 -43q-15 -12 -36 -11t-36 15q-29 26 -35 68zM164 1022l6 18q9 17 25.5 20.5t33.5 -7.5q38 -22 127 -78q6 -4 19 -17q19 -22 -2 -49q-9 -11 -24 -13.5t-30 5.5q-11 7 -33 20.5t-34 20.5q-11 7 -33.5 21.5t-34.5 21.5q-20 13 -20 37z " />
<glyph unicode="&#xe1;" horiz-adv-x="540" d="M61 213h2v29q-2 35 17 90q24 80 104 108q55 19 88 19q5 0 15 1t14 1q6 0 14 4q8 2 14.5 9.5t6.5 14.5q5 59 -4 127q-1 7 -3.5 15t-7 18t-6.5 15q-9 17 -28 30q-2 1 -7 2t-8 2q-47 6 -86 -20q-13 -9 -39 -31q-9 -5 -24.5 -4.5t-24.5 6.5q-7 7 -14 25q-3 9 0 20q6 20 22 35 q48 54 115 66q36 6 76 -4q71 -19 100 -93q21 -51 21 -90q0 -12 1 -38t1 -40v-204q0 -69 8 -205q0 -21 16 -29q2 -1 7.5 -2t7.5 -2q13 -9 17.5 -25.5t-3.5 -29.5q-5 -10 -8 -13q-65 -40 -66 -40q-13 -8 -31 -0.5t-22 22.5q-4 16 -4 27q-2 6 -7 8.5t-9 -0.5q-2 -2 -17 -12 q-21 -18 -57 -29q-29 -9 -62 -2q-3 1 -12 4.5t-14 5.5q-18 6 -31 19q-17 12 -37 40q-27 50 -33 101q0 33 -2 49zM147 172q6 -42 35 -68q15 -14 36 -15t36 11q22 19 37 43q5 9 15.5 28t15.5 28q18 30 18 67v41q0 1 -1 17t-1 26q-2 8 -10 14t-17 5h-12q-8 -2 -24.5 -5.5 t-24.5 -5.5q-24 -3 -47 -16q-19 -10 -31 -27q-19 -26 -22 -51q-7 -58 -3 -92zM174 958q13 13 19 17q102 64 126 78q17 11 34 7.5t26 -20.5l6 -18q0 -24 -20 -37q-11 -7 -34 -21.5t-34 -21.5t-33.5 -20.5t-34.5 -20.5q-30 -18 -53 8q-21 27 -2 49z" />
<glyph unicode="&#xe2;" horiz-adv-x="540" d="M61 213h2v29q-2 35 17 90q24 80 104 108q55 19 88 19q5 0 15 1t14 1q6 0 14 4q8 2 14.5 9.5t6.5 14.5q5 59 -4 127q-1 7 -3.5 15t-7 18t-6.5 15q-9 17 -28 30q-2 1 -7 2t-8 2q-47 6 -86 -20q-13 -9 -39 -31q-9 -5 -24.5 -4.5t-24.5 6.5q-7 7 -14 25q-3 9 0 20q6 20 22 35 q48 54 115 66q36 6 76 -4q71 -19 100 -93q21 -51 21 -90q0 -12 1 -38t1 -40v-204q0 -69 8 -205q0 -21 16 -29q2 -1 7.5 -2t7.5 -2q13 -9 17.5 -25.5t-3.5 -29.5q-5 -10 -8 -13q-65 -40 -66 -40q-13 -8 -31 -0.5t-22 22.5q-4 16 -4 27q-2 6 -7 8.5t-9 -0.5q-2 -2 -17 -12 q-21 -18 -57 -29q-29 -9 -62 -2q-3 1 -12 4.5t-14 5.5q-18 6 -31 19q-17 12 -37 40q-27 50 -33 101q0 33 -2 49zM133 907q-10 35 17 56q46 37 98 77q23 20 47 2q17 -14 49 -39.5t49 -39.5q15 -12 19 -30.5t-4 -33.5q-19 -29 -43 -8q-13 9 -76 59q-3 2 -8.5 6.5t-8.5 6.5 q-12 -9 -24.5 -19l-27.5 -22t-23 -19q-2 -2 -17 -12q-15 -12 -29.5 -6t-17.5 22zM147 172q6 -42 35 -68q15 -14 36 -15t36 11q22 19 37 43q5 9 15.5 28t15.5 28q18 30 18 67v41q0 1 -1 17t-1 26q-2 8 -10 14t-17 5h-12q-8 -2 -24.5 -5.5t-24.5 -5.5q-24 -3 -47 -16 q-19 -10 -31 -27q-19 -26 -22 -51q-7 -58 -3 -92z" />
<glyph unicode="&#xe3;" horiz-adv-x="540" d="M61 213h2v29q-2 35 17 90q24 80 104 108q55 19 88 19q5 0 15 1t14 1q6 0 14 4q8 2 14.5 9.5t6.5 14.5q5 59 -4 127q-1 7 -3.5 15t-7 18t-6.5 15q-9 17 -28 30q-2 1 -7 2t-8 2q-47 6 -86 -20q-13 -9 -39 -31q-9 -5 -24.5 -4.5t-24.5 6.5q-7 7 -14 25q-3 9 0 20q6 20 22 35 q48 54 115 66q36 6 76 -4q71 -19 100 -93q21 -51 21 -90q0 -12 1 -38t1 -40v-204q0 -69 8 -205q0 -21 16 -29q2 -1 7.5 -2t7.5 -2q13 -9 17.5 -25.5t-3.5 -29.5q-5 -10 -8 -13q-65 -40 -66 -40q-13 -8 -31 -0.5t-22 22.5q-4 16 -4 27q-2 6 -7 8.5t-9 -0.5q-2 -2 -17 -12 q-21 -18 -57 -29q-29 -9 -62 -2q-3 1 -12 4.5t-14 5.5q-18 6 -31 19q-17 12 -37 40q-27 50 -33 101q0 33 -2 49zM84 926q27 84 109 92q18 0 36 -6l50 -25q21 -14 38 -14q26 0 37 20q1 3 3 8.5t3 8.5q20 26 50 16q12 -6 18.5 -20t3.5 -29q-18 -59 -76 -80q-13 -4 -39 -8 q-40 3 -81 29q-3 2 -10.5 6t-10.5 6q-35 15 -53 -19q0 -1 -2 -6.5t-4 -7.5q-15 -31 -47 -20q-15 6 -22 20t-3 29zM147 172q6 -42 35 -68q15 -14 36 -15t36 11q22 19 37 43q5 9 15.5 28t15.5 28q18 30 18 67v41q0 1 -1 17t-1 26q-2 8 -10 14t-17 5h-12q-8 -2 -24.5 -5.5 t-24.5 -5.5q-24 -3 -47 -16q-19 -10 -31 -27q-19 -26 -22 -51q-7 -58 -3 -92z" />
<glyph unicode="&#xe4;" horiz-adv-x="540" d="M61 213h2v29q-2 35 17 90q24 80 104 108q55 19 88 19q5 0 15 1t14 1q6 0 14 4q8 2 14.5 9.5t6.5 14.5q5 59 -4 127q-1 7 -3.5 15t-7 18t-6.5 15q-9 17 -28 30q-2 1 -7 2t-8 2q-47 6 -86 -20q-13 -9 -39 -31q-9 -5 -24.5 -4.5t-24.5 6.5q-7 7 -14 25q-3 9 0 20q6 20 22 35 q48 54 115 66q36 6 76 -4q71 -19 100 -93q21 -51 21 -90q0 -12 1 -38t1 -40v-204q0 -69 8 -205q0 -21 16 -29q2 -1 7.5 -2t7.5 -2q13 -9 17.5 -25.5t-3.5 -29.5q-5 -10 -8 -13q-65 -40 -66 -40q-13 -8 -31 -0.5t-22 22.5q-4 16 -4 27q-2 6 -7 8.5t-9 -0.5q-2 -2 -17 -12 q-21 -18 -57 -29q-29 -9 -62 -2q-3 1 -12 4.5t-14 5.5q-18 6 -31 19q-17 12 -37 40q-27 50 -33 101q0 33 -2 49zM123 942q-3 22 16 41q22 22 47 14q38 -13 43 -47q3 -28 -21 -48t-50 -11q-35 9 -35 51zM147 172q6 -42 35 -68q15 -14 36 -15t36 11q22 19 37 43q5 9 15.5 28 t15.5 28q18 30 18 67v41q0 1 -1 17t-1 26q-2 8 -10 14t-17 5h-12q-8 -2 -24.5 -5.5t-24.5 -5.5q-24 -3 -47 -16q-19 -10 -31 -27q-19 -26 -22 -51q-7 -58 -3 -92zM289 954q6 29 33 41q35 14 63 -24q17 -23 4 -45q-9 -13 -10 -17q-14 -20 -37 -20q-29 0 -44 17t-9 48z" />
<glyph unicode="&#xe5;" horiz-adv-x="540" d="M61 213h2v29q-2 35 17 90q24 80 104 108q55 19 88 19q5 0 15 1t14 1q6 0 14 4q8 2 14.5 9.5t6.5 14.5q5 59 -4 127q-1 7 -3.5 15t-7 18t-6.5 15q-9 17 -28 30q-2 1 -7 2t-8 2q-47 6 -86 -20q-13 -9 -39 -31q-9 -5 -24.5 -4.5t-24.5 6.5q-7 7 -14 25q-3 9 0 20q6 20 22 35 q48 54 115 66q36 6 76 -4q71 -19 100 -93q21 -51 21 -90q0 -12 1 -38t1 -40v-204q0 -69 8 -205q0 -21 16 -29q2 -1 7.5 -2t7.5 -2q13 -9 17.5 -25.5t-3.5 -29.5q-5 -10 -8 -13q-65 -40 -66 -40q-13 -8 -31 -0.5t-22 22.5q-4 16 -4 27q-2 6 -7 8.5t-9 -0.5q-2 -2 -17 -12 q-21 -18 -57 -29q-29 -9 -62 -2q-3 1 -12 4.5t-14 5.5q-18 6 -31 19q-17 12 -37 40q-27 50 -33 101q0 33 -2 49zM145 971q-3 34 12.5 68t41.5 51q50 26 75 24q24 0 56 -18q38 -23 41 -76v-16q0 -30 -19 -70q-19 -32 -53 -43t-63 4q-40 13 -58 27q-26 19 -33 49zM147 172 q6 -42 35 -68q15 -14 36 -15t36 11q22 19 37 43q5 9 15.5 28t15.5 28q18 30 18 67v41q0 1 -1 17t-1 26q-2 8 -10 14t-17 5h-12q-8 -2 -24.5 -5.5t-24.5 -5.5q-24 -3 -47 -16q-19 -10 -31 -27q-19 -26 -22 -51q-7 -58 -3 -92zM219 985q29 -29 60 -27l6 3q23 30 12 71 q-18 11 -26.5 12t-22.5 -6q-31 -21 -29 -53z" />
<glyph unicode="&#xe6;" horiz-adv-x="856" d="M63 152q-6 77 11 145q27 115 141 145q51 11 86 13q24 3 51 6q0 2 1 7t1 7q0 61 -2 92q0 44 -16 90q-16 48 -60 56h-18q-59 -7 -88 -41l-14 -21q-10 -21 -22.5 -26t-31.5 0q-9 0 -15.5 9.5t-8.5 22.5q-5 41 26 76q60 72 148 72q51 0 76 -10q27 -12 49 -37q33 -39 45 -94 q6 8 14 20q38 65 103 98q48 25 108 2q45 -21 88 -82q37 -61 43 -131q1 -11 4 -30t4 -27q1 -9 4 -43t3 -53q3 -10 -5 -25q-6 -15 -24 -18q-30 -6 -35 -6q-11 0 -31.5 -0.5t-37.5 -0.5t-33 1q-47 4 -144 4q-4 0 -12.5 -1t-13.5 -1q-3 -32 0 -60q6 -65 20 -118q17 -55 47 -93 q11 -13 47 -22q64 -13 107 33q6 6 18 17.5t17 16.5h37q23 -17 25 -39.5t-17 -44.5q-5 -5 -16.5 -16t-16.5 -16q-37 -40 -107 -47q-45 -3 -83 8q-64 19 -111 82q-8 12 -14 18q0 2 -2 2q-9 -2 -21 -18q-30 -36 -33 -39q-38 -46 -108 -62q-43 -10 -83.5 10t-64.5 60 q-29 47 -35 109zM143 174q3 -42 27 -80q19 -28 48 -30.5t54 20.5q2 2 5.5 6t5.5 6q24 27 49 76q17 33 19.5 44.5t2.5 49.5v101q-6 -1 -20.5 -2.5t-22.5 -2.5q-44 -3 -84 -14q-60 -20 -75 -82q-9 -35 -9 -92zM456.5 473l2.5 -10h252v12q-10 58 -11 68q-6 62 -43 114 q-15 21 -41 37q-22 12 -43 0q-54 -26 -84 -92q-16 -34 -28 -110q0 -2 -2.5 -9.5t-2 -9.5z" />
<glyph unicode="&#xe7;" horiz-adv-x="491" d="M62 377q0 19 1 35q7 147 54 258q26 60 84 94q56 28 125 2q47 -15 94 -66q10 -13 10 -26v-21q0 -24 -22 -30q-27 -8 -41 6q-13 13 -15 16q-21 26 -80 45q-12 0 -18 -2q-47 -15 -64 -57q-27 -60 -40 -142q-14 -84 -11 -180q3 -101 43 -176q2 -3 6.5 -10t6.5 -10 q27 -34 71 -23q35 7 66 47q18 27 26 35q13 12 33.5 9.5t26.5 -19.5q15 -33 -2 -56q-10 -14 -31.5 -37t-30.5 -34q-19 -17 -47 -27q-5 -1 -11.5 -4t-8.5 -4q-9 -24 -6 -51q5 -2 12.5 -9t9.5 -8q53 -33 43 -104q-3 -26 -16 -45q-20 -28 -58 -35q-2 -1 -6 -2t-6 -2h-47l-8 4 q-40 12 -55 53q-6 18 2.5 29t29.5 10q17 0 25 -14q12 -17 33 -19t36 11q10 8 9.5 30.5t-9.5 30.5q-9 6 -20 6q-29 7 -38 19t-7 41q0 9 1 26.5t1 26.5q-59 15 -98 84q-32 65 -43 129q-9 44 -9 88q0 12 -0.5 35.5t-0.5 42.5z" />
<glyph unicode="&#xe8;" horiz-adv-x="530" d="M63 461q-4 -132 9 -205q2 -4 2 -14q0 -21 18 -82q14 -54 58 -105q19 -23 36 -30q35 -18 68 -21h35q29 0 76 19q6 2 18 10q31 24 55 55q4 7 8 21q3 20 -6 38q-1 1 -4.5 5.5t-5.5 5.5q-27 21 -51 0q-3 -3 -9.5 -10t-12 -12t-9.5 -9q-29 -25 -57 -25q-21 -3 -43 0 q-13 3 -31 17q-2 3 -6 8t-6 8q-21 24 -29 49q-16 36 -16 62q-13 43 -13 104v6q0 4 5 9.5t10 7.5q41 4 127 0h63q44 0 64 2q10 0 26 8q24 12 27 39v14q-9 93 -14 133q-10 84 -56 144q-1 2 -4 5t-4 5q-31 38 -74 55q-12 4 -20 4q-18 5 -41 2q-18 -4 -20 -6q-69 -28 -109 -88 q-24 -48 -25 -51q-36 -82 -39 -178zM152 485q2 10 5 31t5 31q13 51 37 84q18 27 45 45q8 6 24 10q22 0 35 -8q37 -27 53 -72q17 -49 17 -69q1 -9 3 -28t3 -28q-2 -1 -5.5 -4.5t-4.5 -3.5q-8 -2 -23 -2q-19 0 -56 -0.5t-68 -0.5t-58 1q-5 2 -9 6.5t-3 7.5zM152 1022l6 18 q9 17 25.5 20.5t33.5 -7.5q38 -22 127 -78q3 -2 18 -17q19 -22 -2 -49q-23 -26 -53 -8q-11 7 -33 20.5t-34 20.5q-11 7 -33.5 21.5t-34.5 21.5q-20 13 -20 37z" />
<glyph unicode="&#xe9;" horiz-adv-x="530" d="M63 461q3 96 39 178q1 3 25 51q40 60 109 88q2 2 20 6q23 3 41 -2q8 0 20 -4q43 -17 74 -55q1 -2 4 -5t4 -5q46 -60 56 -144q5 -40 14 -133v-14q-3 -27 -27 -39q-16 -8 -26 -8q-20 -2 -64 -2h-63q-86 4 -127 0q-5 -2 -10 -7.5t-5 -9.5v-6q0 -61 13 -104q0 -26 16 -62 q8 -25 29 -49q2 -3 6 -8t6 -8q18 -14 31 -17q21 -3 43 0q28 0 57 25q4 4 9.5 9t12 12t9.5 10q24 21 51 0q2 -1 5.5 -5.5t4.5 -5.5q9 -18 6 -38q-4 -14 -8 -21q-24 -31 -55 -55q-12 -8 -18 -10q-47 -19 -76 -19h-35q-33 3 -68 21q-17 7 -36 30q-44 51 -58 105q-18 61 -18 82 q0 10 -2 14q-13 73 -9 205zM152 485q-1 -3 3 -7.5t9 -6.5q27 -1 58 -1t68 0.5t56 0.5q15 0 23 2q1 0 4.5 3.5t5.5 4.5q-1 9 -3 28t-3 28q0 20 -17 69q-16 45 -53 72q-13 8 -35 8q-16 -4 -24 -10q-27 -18 -45 -45q-24 -33 -37 -84q-2 -10 -5 -31t-5 -31zM162 958q15 15 18 17 q90 56 127 78q17 11 34 7.5t26 -20.5l6 -18q0 -23 -21 -37q-11 -7 -33.5 -21.5t-33.5 -21.5t-34 -20.5t-34 -20.5q-30 -18 -53 8q-21 27 -2 49z" />
<glyph unicode="&#xea;" horiz-adv-x="530" d="M63 461q3 96 39 178q1 3 25 51q40 60 109 88q2 2 20 6q23 3 41 -2q8 0 20 -4q43 -17 74 -55q1 -2 4 -5t4 -5q46 -60 56 -144q5 -40 14 -133v-14q-3 -27 -27 -39q-16 -8 -26 -8q-20 -2 -64 -2h-63q-86 4 -127 0q-5 -2 -10 -7.5t-5 -9.5v-6q0 -61 13 -104q0 -26 16 -62 q8 -25 29 -49q2 -3 6 -8t6 -8q18 -14 31 -17q21 -3 43 0q28 0 57 25q4 4 9.5 9t12 12t9.5 10q24 21 51 0q2 -1 5.5 -5.5t4.5 -5.5q9 -18 6 -38q-4 -14 -8 -21q-24 -31 -55 -55q-12 -8 -18 -10q-47 -19 -76 -19h-35q-33 3 -68 21q-17 7 -36 30q-44 51 -58 105q-18 61 -18 82 q0 10 -2 14q-13 73 -9 205zM127 907q-11 35 16 56q33 27 99 77q23 20 47 2q17 -14 49.5 -39.5t48.5 -39.5q15 -12 18.5 -30.5t-4.5 -33.5q-19 -29 -43 -8q-8 5 -75 59q-3 2 -8.5 6.5t-8.5 6.5q-14 -10 -76 -60q-4 -4 -16 -12q-15 -12 -29.5 -6t-17.5 22zM152 485 q-1 -3 3 -7.5t9 -6.5q27 -1 58 -1t68 0.5t56 0.5q15 0 23 2q1 0 4.5 3.5t5.5 4.5q-1 9 -3 28t-3 28q0 20 -17 69q-16 45 -53 72q-13 8 -35 8q-16 -4 -24 -10q-27 -18 -45 -45q-24 -33 -37 -84q-2 -10 -5 -31t-5 -31z" />
<glyph unicode="&#xeb;" horiz-adv-x="530" d="M63 461q3 96 39 178q1 3 25 51q40 60 109 88q2 2 20 6q23 3 41 -2q8 0 20 -4q43 -17 74 -55q1 -2 4 -5t4 -5q46 -60 56 -144q5 -40 14 -133v-14q-3 -27 -27 -39q-16 -8 -26 -8q-20 -2 -64 -2h-63q-86 4 -127 0q-5 -2 -10 -7.5t-5 -9.5v-6q0 -61 13 -104q0 -26 16 -62 q8 -25 29 -49q2 -3 6 -8t6 -8q18 -14 31 -17q21 -3 43 0q28 0 57 25q4 4 9.5 9t12 12t9.5 10q24 21 51 0q2 -1 5.5 -5.5t4.5 -5.5q9 -18 6 -38q-4 -14 -8 -21q-24 -31 -55 -55q-12 -8 -18 -10q-47 -19 -76 -19h-35q-33 3 -68 21q-17 7 -36 30q-44 51 -58 105q-18 61 -18 82 q0 10 -2 14q-13 73 -9 205zM131 942q-3 22 16 41q23 23 48 14q38 -13 43 -47q3 -28 -21.5 -48t-50.5 -11q-35 9 -35 51zM152 485q-1 -3 3 -7.5t9 -6.5q27 -1 58 -1t68 0.5t56 0.5q15 0 23 2q1 0 4.5 3.5t5.5 4.5q-1 9 -3 28t-3 28q0 20 -17 69q-16 45 -53 72q-13 8 -35 8 q-16 -4 -24 -10q-27 -18 -45 -45q-24 -33 -37 -84q-2 -10 -5 -31t-5 -31zM297 954q6 29 33 41q35 14 63 -24q17 -23 4 -45q-9 -13 -10 -17q-14 -20 -37 -20q-29 0 -44 17t-9 48z" />
<glyph unicode="&#xec;" horiz-adv-x="344" d="M61 1022q5 15 7 18q9 17 25.5 20.5t33.5 -7.5q37 -22 127 -78q3 -2 18 -17q19 -22 -2 -49q-23 -26 -53 -8q-11 7 -33.5 20.5t-33.5 20.5q-12 7 -34.5 21.5t-33.5 21.5q-21 14 -21 37zM72 713q7 -26 28 -31q4 -1 13.5 -2t13.5 -2q7 -3 10 -10q0 -6 1 -18t1 -17v-193 q2 -99 -2 -297q0 -8 -1 -25t-1 -26q0 -27 -29 -33q-6 0 -14 -4q-14 -6 -19.5 -23t1.5 -32q5 -9 18 -16.5t23 -6.5q65 11 112 13q18 0 33 22q14 21 -2 41q-9 9 -29 21q-10 3 -10 16q0 32 4 98q2 75 -2 220v235q1 13 1 27t-0.5 31t-0.5 26q0 13 -4 29q-6 22 -31 26 q-18 0 -28 -2q-44 -13 -60 -22q-2 -1 -6 -4t-6 -4q-18 -14 -14 -37z" />
<glyph unicode="&#xed;" horiz-adv-x="344" d="M66 715q-4 23 14 37q2 1 6 4t6 4q16 9 60 22q10 2 28 2q25 -4 31 -26q4 -16 4 -29v-84q-1 -35 -1 -73.5t0.5 -86.5t0.5 -75q4 -145 2 -220q-4 -66 -4 -98q0 -13 10 -16q20 -12 29 -21q16 -20 2 -41q-15 -22 -33 -22q-56 -3 -112 -12q-10 -1 -23 6t-18 16q-7 15 -1.5 32 t19.5 23q8 4 14 4q29 6 29 33q0 9 1 26t1 25q4 197 2 297q-1 28 -1 60t0.5 71.5t0.5 61.5q0 5 -1 17t-1 18q-3 7 -10 10q-4 1 -13.5 2t-13.5 2q-21 5 -28 31zM72 958q15 15 18 17q89 56 127 78q17 11 33.5 7.5t25.5 -20.5q2 -3 7 -18q0 -23 -21 -37q-12 -7 -33.5 -21.5 t-33.5 -21.5t-34 -20.5t-34 -20.5q-30 -18 -53 8q-21 27 -2 49z" />
<glyph unicode="&#xee;" horiz-adv-x="407" d="M66 907q-11 35 16 56q46 37 98 77q23 20 47 2q17 -13 49.5 -39t49.5 -40q15 -12 18.5 -30.5t-4.5 -33.5q-19 -29 -43 -8q-14 9 -76 59q-3 2 -8 6.5t-8 6.5q-14 -10 -76 -60q-4 -4 -16 -12q-15 -12 -29.5 -6t-17.5 22zM98 715q-4 22 15 37q2 1 6 4t6 4q17 9 59 22 q10 2 29 2q25 -4 31 -26q4 -16 4 -29v-84q-1 -35 -1 -73.5t0.5 -86.5t0.5 -75q4 -145 2 -220q-4 -66 -4 -98q0 -13 10 -16q20 -12 29 -21q16 -20 2 -41q-15 -22 -33 -22q-57 -3 -113 -12q-10 -1 -23 6t-18 16q-7 15 -1 32t20 23q8 4 14 4q29 6 29 33q0 9 1 26t1 25 q4 197 2 297q-1 28 -1 60t0.5 71.5t0.5 61.5q0 5 -1 17t-1 18q-3 7 -10 10q-4 1 -13.5 2t-13.5 2q-22 5 -29 31z" />
<glyph unicode="&#xef;" horiz-adv-x="397" d="M63 942q-3 21 17 41q22 22 47 14q38 -13 43 -47q3 -28 -21.5 -48t-50.5 -11q-35 9 -35 51zM98 715q-4 22 15 37q2 1 6 4t6 4q17 9 59 22q10 2 29 2q25 -4 31 -26q4 -16 4 -29v-84q-1 -35 -1 -73.5t0.5 -86.5t0.5 -75q4 -145 2 -220q-4 -66 -4 -98q0 -13 10 -16 q20 -12 29 -21q16 -20 2 -41q-15 -22 -33 -22q-57 -3 -113 -12q-10 -1 -23 6t-18 16q-7 15 -1 32t20 23q8 4 14 4q29 6 29 33q0 9 1 26t1 25q4 197 2 297q-1 28 -1 60t0.5 71.5t0.5 61.5q0 5 -1 17t-1 18q-3 7 -10 10q-4 1 -13.5 2t-13.5 2q-22 5 -29 31zM229 954 q6 29 33 41q36 15 64 -24q17 -23 4 -45q-11 -16 -11 -17q-14 -20 -36 -20q-29 0 -44.5 17t-9.5 48z" />
<glyph unicode="&#xf0;" horiz-adv-x="567" d="M63 442q3 111 54 222q21 48 51 71q22 16 47 25q27 10 84 14q8 1 35 -4q3 -1 9 -2t9 -2q-10 24 -42 65t-48 52q-9 -11 -27.5 -34.5t-27.5 -35.5q-2 -2 -5 -6t-5 -6q-14 -12 -31 -13t-29 11q-25 25 -2 55q22 26 31 39q4 6 16 18q1 1 7 8.5t8 12.5q-2 1 -6.5 4t-6.5 4 q-22 10 -53 27q-25 14 -25 37q0 22 21 36q19 9 37 0q10 -5 30.5 -15t30.5 -15q4 -1 8 -3t9 -5.5t8 -4.5q4 3 11.5 12.5t10.5 12.5q8 8 17 20q17 20 45 13q23 -6 26 -33q2 -2 2 -4q-2 -18 -21.5 -41t-23.5 -31q13 -13 15 -16q4 -6 25 -29.5t30 -38.5q43 -54 72 -127 q30 -81 37 -135q4 -32 8 -84q2 -23 2 -65q0 -9 -1 -27t-1 -27v-28q-1 -20 -4 -60.5t-4 -60.5q-2 -45 -25 -123q-23 -69 -88 -125q-27 -21 -61 -27q-2 -1 -6.5 -2t-6.5 -2q-76 -15 -139 33q-27 19 -49 64q-24 43 -33 94q-7 37 -20 131q-8 70 -5 151zM143 391q0 -17 3.5 -49 t3.5 -39q7 -72 20 -129q14 -53 39 -82q32 -37 76 -31q47 3 77 45q10 14 17 27q25 45 35 105q9 78 12 163q-1 6 -2 25.5t-2 28.5q-5 70 -6 75q-6 65 -41 111q-43 49 -113 39q-50 -9 -69 -57q-23 -50 -33 -93q-17 -55 -17 -139z" />
<glyph unicode="&#xf1;" horiz-adv-x="665" d="M63 709q4 20 17 28q60 35 96 45q6 2 21 2q18 0 28 -16q3 -4 5 -10t4.5 -13t3.5 -10q1 -4 7.5 -5.5t10.5 1.5q7 7 27 23q12 8 16 12q41 23 90 14q67 -19 96 -75q33 -58 39 -113q6 -56 6 -107q1 -54 3.5 -162.5t3.5 -162.5q0 -9 1 -29t1 -29l6 -12q17 -3 35 -10 q14 -6 22 -25q3 -11 0 -20q-9 -28 -35 -31q-42 -4 -114 -8q-15 -3 -33 8q-9 6 -13.5 20.5t-0.5 24.5q8 20 22 25l12 6q12 5 15 22v7q-1 54 -2 162.5t-2 162.5v43q0 33 -13 113q-2 8 -22 59q-10 18 -37 33q-21 9 -41 -4q-54 -41 -78 -90q-20 -50 -20 -74q-2 -14 -2 -43v-360 q0 -20 20 -27l12 -6q15 -11 17 -23q3 -10 0 -20q-11 -28 -37 -31q-74 -4 -111 -10q-30 -6 -47 24q-8 16 2 35q11 18 27 21q2 1 6 2t6 2q7 0 13 6t6 12q0 4 1 13.5t1 13.5v518q0 15 -2 21q0 6 -4 10t-9 2q-3 -1 -11.5 -4t-14.5 -4q-19 -6 -36.5 8.5t-13.5 34.5zM145 926 q27 84 109 92q19 0 37 -6q47 -23 49 -25q21 -14 39 -14q26 0 37 20q1 3 3 8.5t3 8.5q19 26 49 16q12 -6 19 -20t4 -29q-18 -59 -76 -80q-13 -4 -39 -8q-41 3 -82 29q-3 2 -10.5 6t-10.5 6q-35 15 -53 -19q0 -1 -2 -6.5t-4 -7.5q-15 -31 -47 -20q-15 6 -22 20t-3 29z" />
<glyph unicode="&#xf2;" horiz-adv-x="548" d="M61 487l13 -239q2 -2 2 -6q0 -26 16 -84q11 -43 41 -88q24 -35 67 -52.5t83 -11.5q12 2 41 10q30 9 55 31q62 55 82 129q12 50 14 76q1 8 3 24.5t3 24.5q4 28 4 43q4 160 -10 240q-2 33 -20 73q-29 69 -86 101q-51 29 -101 24q-20 -3 -69 -16q-2 -1 -6.5 -3t-6.5 -3 q-38 -18 -65 -64q-22 -41 -41 -105t-19 -104zM143 377q-4 41 4 127q0 5 5 20q21 75 34 101q3 9 9 18q26 40 69 43h15q41 0 73 -35q29 -37 37 -76q18 -69 14 -169q0 -4 -0.5 -12t-0.5 -15.5t1 -13.5q0 -45 -16 -127q-9 -38 -27 -72q-22 -43 -61 -57q-41 -16 -76 6 q-32 20 -45 59q-16 40 -16 62q0 6 -2 8q-8 39 -10 61q-2 13 -3.5 36t-3.5 36zM174 1022l6 18q9 17 26 20.5t34 -7.5q37 -22 127 -78q3 -2 18 -17q19 -22 -2 -49q-23 -26 -53 -8q-12 7 -34 20.5t-34 20.5t-33.5 21.5t-33.5 21.5q-21 14 -21 37z" />
<glyph unicode="&#xf3;" horiz-adv-x="548" d="M61 487q0 40 19 104t41 105q27 46 65 64q2 1 6.5 3t6.5 3q49 13 69 16q50 5 101 -24q57 -32 86 -101q18 -40 20 -73q14 -80 10 -240q0 -15 -4 -43q-1 -8 -3 -24.5t-3 -24.5q-2 -26 -14 -76q-20 -74 -82 -129q-25 -22 -55 -31q-29 -8 -41 -10q-40 -6 -83 11.5t-67 52.5 q-30 45 -41 88q-16 58 -16 84q0 4 -2 6zM143 377q2 -13 3.5 -36t3.5 -36q2 -22 10 -61q2 -2 2 -8q0 -22 16 -62q13 -39 45 -59q35 -22 76 -6q39 14 61 57q18 34 27 72q16 82 16 127q-1 6 -1 13.5t0.5 15.5t0.5 12q4 100 -14 169q-8 39 -37 76q-32 35 -73 35h-15 q-43 -3 -69 -43q-6 -9 -9 -18q-13 -26 -34 -101q-5 -15 -5 -20q-8 -86 -4 -127zM186 958q13 13 19 17q90 56 127 78q17 11 33.5 7.5t25.5 -20.5l6 -18q0 -24 -20 -37q-12 -7 -34 -21.5t-34 -21.5q-11 -7 -33.5 -20.5t-33.5 -20.5q-15 -8 -30 -5.5t-24 13.5q-21 27 -2 49z " />
<glyph unicode="&#xf4;" horiz-adv-x="548" d="M61 487q0 40 19 104t41 105q27 46 65 64q2 1 6.5 3t6.5 3q49 13 69 16q50 5 101 -24q57 -32 86 -101q18 -40 20 -73q14 -80 10 -240q0 -15 -4 -43q-1 -8 -3 -24.5t-3 -24.5q-2 -26 -14 -76q-20 -74 -82 -129q-25 -22 -55 -31q-29 -8 -41 -10q-40 -6 -83 11.5t-67 52.5 q-30 45 -41 88q-16 58 -16 84q0 4 -2 6zM143 377q2 -13 3.5 -36t3.5 -36q2 -22 10 -61q2 -2 2 -8q0 -22 16 -62q13 -39 45 -59q35 -22 76 -6q39 14 61 57q18 34 27 72q16 82 16 127q-1 6 -1 13.5t0.5 15.5t0.5 12q4 100 -14 169q-8 39 -37 76q-32 35 -73 35h-15 q-43 -3 -69 -43q-6 -9 -9 -18q-13 -26 -34 -101q-5 -15 -5 -20q-8 -86 -4 -127zM150 907q-11 35 16 56q45 37 98 77q23 20 47 2q17 -13 50 -39t49 -40q15 -12 18.5 -30.5t-4.5 -33.5q-19 -29 -43 -8q-14 9 -76 59q-3 2 -8 6.5t-8 6.5q-14 -10 -76 -60q-4 -4 -16 -12 q-15 -12 -29.5 -6t-17.5 22z" />
<glyph unicode="&#xf5;" horiz-adv-x="548" d="M61 487q0 40 19 104t41 105q27 46 65 64q2 1 6.5 3t6.5 3q49 13 69 16q50 5 101 -24q57 -32 86 -101q18 -40 20 -73q14 -80 10 -240q0 -15 -4 -43q-1 -8 -3 -24.5t-3 -24.5q-2 -26 -14 -76q-20 -74 -82 -129q-25 -22 -55 -31q-29 -8 -41 -10q-40 -6 -83 11.5t-67 52.5 q-30 45 -41 88q-16 58 -16 84q0 4 -2 6zM109 926q27 84 108 92q19 0 37 -6q47 -23 49 -25q21 -14 39 -14q26 0 37 20q1 3 3 8.5t3 8.5q19 26 49 16q12 -6 19 -20t4 -29q-18 -59 -76 -80q-13 -4 -39 -8q-41 3 -82 29q-3 2 -10 6t-10 6q-36 16 -54 -19q0 -1 -2 -6.5t-4 -7.5 q-15 -31 -47 -20q-15 6 -22 20t-2 29zM143 377q2 -13 3.5 -36t3.5 -36q2 -22 10 -61q2 -2 2 -8q0 -22 16 -62q13 -39 45 -59q35 -22 76 -6q39 14 61 57q18 34 27 72q16 82 16 127q-1 6 -1 13.5t0.5 15.5t0.5 12q4 100 -14 169q-8 39 -37 76q-32 35 -73 35h-15 q-43 -3 -69 -43q-6 -9 -9 -18q-13 -26 -34 -101q-5 -15 -5 -20q-8 -86 -4 -127z" />
<glyph unicode="&#xf6;" horiz-adv-x="548" d="M61 487q0 40 19 104t41 105q27 46 65 64q2 1 6.5 3t6.5 3q49 13 69 16q50 5 101 -24q57 -32 86 -101q18 -40 20 -73q14 -80 10 -240q0 -15 -4 -43q-1 -8 -3 -24.5t-3 -24.5q-2 -26 -14 -76q-20 -74 -82 -129q-25 -22 -55 -31q-29 -8 -41 -10q-40 -6 -83 11.5t-67 52.5 q-30 45 -41 88q-16 58 -16 84q0 4 -2 6zM143 377q2 -13 3.5 -36t3.5 -36q2 -22 10 -61q2 -2 2 -8q0 -22 16 -62q13 -39 45 -59q35 -22 76 -6q39 14 61 57q18 34 27 72q16 82 16 127q-1 6 -1 13.5t0.5 15.5t0.5 12q4 100 -14 169q-8 39 -37 76q-32 35 -73 35h-15 q-43 -3 -69 -43q-6 -9 -9 -18q-13 -26 -34 -101q-5 -15 -5 -20q-8 -86 -4 -127zM160 942q-3 22 16 41q22 22 47 14q38 -13 43 -47q3 -28 -21 -48t-50 -11q-35 9 -35 51zM326 954q6 29 32 41q36 15 64 -24q17 -23 4 -45q-9 -13 -10 -17q-14 -20 -37 -20q-29 0 -44 17t-9 48z " />
<glyph unicode="&#xf7;" horiz-adv-x="495" d="M61 743q0 39 35 45q9 3 19 3h73q28 4 56 4h157q19 -3 26.5 -12.5t4.5 -30.5q-1 -18 -9 -24.5t-26 -6.5h-57q-18 3 -45 -2h2q-10 -2 -35 -2q-27 0 -67 -4h-97q-19 0 -26.5 7.5t-10.5 22.5zM180 535q-13 38 0 65q15 27 45 27q43 0 54 -25q3 -6 6 -18.5t4 -16.5 q1 -32 -24.5 -48.5t-55.5 -10.5q-22 6 -29 27zM180 907q-14 39 0 66q14 26 45 26q44 0 54 -24q3 -6 6 -18.5t4 -16.5q1 -32 -24.5 -48.5t-55.5 -10.5q-22 6 -29 26z" />
<glyph unicode="&#xf8;" horiz-adv-x="546" d="M61 463q3 105 52 213q21 48 49 67q13 11 37 23q50 16 92 16q36 0 61 -14l21 55q0 4 2 8q9 25 45 25q12 0 20.5 -8.5t10.5 -20.5q0 -14 -2 -22q-1 -8 -11 -37q-9 -27 -18 -51q24 -31 33 -55q23 -56 26 -119l6 -111h-2v-67q0 -2 -6 -89q-3 -43 -16 -94q-21 -81 -84 -135 q-29 -26 -70 -35q-45 -8 -69 -4q-40 12 -60 23q0 -1 -1 -3t-1 -3q-3 -9 -10.5 -25t-9.5 -20q-1 -2 -3 -6.5t-3 -6.5l-3 -2q-10 -20 -34 -20q-5 0 -7 2q-12 0 -21 8.5t-11 19.5q-3 20 6 35q11 19 31 68q4 12 6 16v6q-23 47 -31 93q-7 38 -20 124q-5 61 -5 146zM137 416 q0 -13 1 -27t2.5 -31.5t2.5 -27.5q5 -46 19 -111q0 2 4 14q4 15 14 41.5t13 36.5l2 2q1 4 4 12.5t4 12.5q3 8 9 25.5t9 25.5t9.5 24.5t9.5 24.5q4 14 8 23q3 8 18 53l13 39v2q7 22 21.5 65t21.5 64q-29 14 -68 8q-48 -9 -70 -57q-19 -45 -30 -86q-17 -61 -17 -133zM211 119 q26 -23 56 -23t57 21q36 24 53 76q22 52 29 137q1 16 2 47t2 47q2 38 -11 129q-3 35 -14 61q-4 -12 -12.5 -33.5t-12.5 -33.5q-2 -8 -7 -24.5t-7 -24.5q-17 -53 -29 -78q-12 -40 -20 -58l-6 -18q-7 -26 -25 -68q-21 -62 -28 -86l-7 -14q-11 -37 -20 -57z" />
<glyph unicode="&#xf9;" horiz-adv-x="638" d="M65 736q-6 -15 1 -29q10 -23 32 -23h29q8 0 14 -12q0 -40 2 -58q0 -100 2 -120q7 -112 5 -185q0 -43 4 -133q0 -18 14 -76q10 -29 35 -61q17 -23 47 -33q46 -14 82 -6q45 17 47 18q12 10 35 25q10 6 18 -2q10 -19 14 -25t19 -10q19 -3 35 2q30 9 57 27q13 6 18 20 t-0.5 27.5t-17.5 19.5q-25 10 -27 11q-8 4 -8 10q-2 6 -2 35v440v78q2 6 2 20q1 1 2 4.5t2 5.5t2 3q2 3 7.5 8t7.5 8q12 13 5 34.5t-30 24.5q-8 2 -26 2q-28 0 -78 -4q-28 -3 -39 -26q-3 -12 0 -21q7 -25 26 -30q9 -5 27 -9l6 -12q1 -7 2 -21.5t2 -21.5v-197q0 -33 -1 -97 t-1 -95q0 -25 -14 -53q-2 -2 -12.5 -18t-16.5 -23q-31 -46 -82 -64q-15 -3 -28 2q-22 15 -29 31q-13 26 -16 53q0 25 -2 35q-9 51 -9 135q-2 106 -2 318q0 42 -2 65q0 15 -2 21q-4 12 -12 16q-19 13 -39 10q-1 0 -4 -1t-4 -1q-9 -2 -28 -5t-28 -5l-24 -12q-11 -5 -17 -20z M203 1022l6 18q9 17 25.5 20.5t33.5 -7.5q37 -22 127 -78q6 -4 19 -17q19 -22 -2 -49q-9 -11 -24 -13.5t-30 5.5q-12 7 -34 20.5t-33 20.5q-12 7 -34 21.5t-34 21.5q-20 13 -20 37z" />
<glyph unicode="&#xfa;" horiz-adv-x="638" d="M65 736q6 15 17 20l24 12q9 2 28 5t28 5q1 0 4 1t4 1q20 3 39 -10q8 -4 12 -16q2 -6 2 -21q2 -23 2 -65q0 -212 2 -318q0 -84 9 -135q2 -10 2 -35q3 -27 16 -53q7 -16 29 -31q13 -5 28 -2q51 18 82 64q6 7 16.5 23t12.5 18q14 28 14 53q0 31 1 95t1 97v197q-1 7 -2 21.5 t-2 21.5l-6 12q-18 4 -27 9q-19 5 -26 30q-3 9 0 21q11 23 39 26q50 4 78 4q18 0 26 -2q23 -3 30 -24.5t-5 -34.5q-2 -3 -7.5 -8t-7.5 -8q-1 -1 -2 -3t-2 -5.5t-2 -4.5q0 -14 -2 -20v-78v-440q0 -29 2 -35q0 -6 8 -10q2 -1 27 -11q12 -6 17.5 -19.5t0.5 -27.5t-18 -20 q-27 -18 -57 -27q-16 -5 -35 -2q-15 4 -19 10t-14 25q-8 8 -18 2q-23 -15 -35 -25q-2 -1 -47 -18q-36 -8 -82 6q-30 10 -47 33q-25 32 -35 61q-14 58 -14 76q-4 90 -4 133q2 73 -5 185q-2 20 -2 120q-2 18 -2 58q-6 12 -14 12h-29q-22 0 -32 23q-7 14 -1 29zM213 958 q15 15 18 17q89 56 127 78q17 11 34 7.5t26 -20.5l6 -18q0 -23 -21 -37q-12 -7 -33.5 -21.5t-33.5 -21.5t-34 -20.5t-34 -20.5q-30 -18 -53 8q-21 27 -2 49z" />
<glyph unicode="&#xfb;" horiz-adv-x="638" d="M65 736q6 15 17 20l24 12q9 2 28 5t28 5q1 0 4 1t4 1q20 3 39 -10q8 -4 12 -16q2 -6 2 -21q2 -23 2 -65q0 -212 2 -318q0 -84 9 -135q2 -10 2 -35q3 -27 16 -53q7 -16 29 -31q13 -5 28 -2q51 18 82 64q6 7 16.5 23t12.5 18q14 28 14 53q0 31 1 95t1 97v197q-1 7 -2 21.5 t-2 21.5l-6 12q-18 4 -27 9q-19 5 -26 30q-3 9 0 21q11 23 39 26q50 4 78 4q18 0 26 -2q23 -3 30 -24.5t-5 -34.5q-2 -3 -7.5 -8t-7.5 -8q-1 -1 -2 -3t-2 -5.5t-2 -4.5q0 -14 -2 -20v-78v-440q0 -29 2 -35q0 -6 8 -10q2 -1 27 -11q12 -6 17.5 -19.5t0.5 -27.5t-18 -20 q-27 -18 -57 -27q-16 -5 -35 -2q-15 4 -19 10t-14 25q-8 8 -18 2q-23 -15 -35 -25q-2 -1 -47 -18q-36 -8 -82 6q-30 10 -47 33q-25 32 -35 61q-14 58 -14 76q-4 90 -4 133q2 73 -5 185q-2 20 -2 120q-2 18 -2 58q-6 12 -14 12h-29q-22 0 -32 23q-7 14 -1 29zM186 909 q-10 35 17 56q46 37 98 77q23 20 47 2q16 -13 49 -39.5t49 -39.5q15 -12 19 -30.5t-4 -33.5q-19 -29 -43 -8q-13 9 -76 59q-3 2 -8 6.5t-8 6.5q-14 -10 -76 -60q-2 -2 -17 -12q-15 -12 -29.5 -6t-17.5 22z" />
<glyph unicode="&#xfc;" horiz-adv-x="638" d="M65 736q6 15 17 20l24 12q9 2 28 5t28 5q1 0 4 1t4 1q20 3 39 -10q8 -4 12 -16q2 -6 2 -21q2 -23 2 -65q0 -212 2 -318q0 -84 9 -135q2 -10 2 -35q3 -27 16 -53q7 -16 29 -31q13 -5 28 -2q51 18 82 64q6 7 16.5 23t12.5 18q14 28 14 53q0 31 1 95t1 97v197q-1 7 -2 21.5 t-2 21.5l-6 12q-18 4 -27 9q-19 5 -26 30q-3 9 0 21q11 23 39 26q50 4 78 4q18 0 26 -2q23 -3 30 -24.5t-5 -34.5q-2 -3 -7.5 -8t-7.5 -8q-1 -1 -2 -3t-2 -5.5t-2 -4.5q0 -14 -2 -20v-78v-440q0 -29 2 -35q0 -6 8 -10q2 -1 27 -11q12 -6 17.5 -19.5t0.5 -27.5t-18 -20 q-27 -18 -57 -27q-16 -5 -35 -2q-15 4 -19 10t-14 25q-8 8 -18 2q-23 -15 -35 -25q-2 -1 -47 -18q-36 -8 -82 6q-30 10 -47 33q-25 32 -35 61q-14 58 -14 76q-4 90 -4 133q2 73 -5 185q-2 20 -2 120q-2 18 -2 58q-6 12 -14 12h-29q-22 0 -32 23q-7 14 -1 29zM184 942 q-3 21 17 41q22 22 47 14q38 -13 43 -47q3 -28 -21.5 -48t-50.5 -11q-35 9 -35 51zM350 954q6 29 33 41q35 14 63 -24q17 -24 5 -45q-11 -16 -11 -17q-14 -20 -37 -20q-29 0 -44 17t-9 48z" />
<glyph unicode="&#xfd;" horiz-adv-x="677" d="M63 750q-3 15 8.5 29t26.5 16q47 4 142 4q26 0 39 -27q4 -11 0 -24t-13 -19q-8 -6 -24 -14q-9 -6 -9 -19q29 -137 39 -172q12 -41 45 -178q22 -98 31 -131l4 -4q1 1 3 2t3 2q10 16 13 33q5 31 16.5 87.5t15.5 80.5q33 161 52 235q1 6 6 41q0 13 -15 23q-15 11 -20 18 q-13 19 -2 41q13 20 35 23q72 4 112 8q13 2 33 -10q3 -3 8 -13q8 -15 1 -33t-27 -22q-2 -1 -7.5 -2t-7.5 -2q-11 -4 -14 -12q-9 -22 -10 -27q-5 -30 -17 -86.5t-14 -67.5q-21 -88 -39 -180q-6 -34 -35 -172q-54 -247 -90 -364q-3 -8 -7 -23.5t-8 -27.5t-9 -23q-3 -8 -17 -31 q-14 -19 -45 -16h-6q-61 21 -88 28q-25 11 -25 39q-1 18 15.5 31t32.5 8q38 -9 49 -8q6 0 12 6q4 8 4 13q25 83 51 184q-7 29 -21.5 89t-21.5 89q-33 140 -39 174q-4 21 -13.5 59t-10.5 44q-40 144 -60 247q-3 11 -14 15q-6 1 -17.5 2t-17.5 2q-12 1 -21.5 12t-11.5 23z M260 958q13 13 19 17q89 56 127 78q17 11 33.5 7.5t25.5 -20.5l6 -18q0 -24 -20 -37q-11 -7 -34 -21.5t-34 -21.5t-34 -20.5t-34 -20.5q-30 -18 -53 8q-21 27 -2 49z" />
<glyph unicode="&#xfe;" horiz-adv-x="550" d="M61 123q0 17 5 100v295q0 22 1 64t1 63v264q-2 12 2 37q1 13 13 22t26 9t25.5 -9t12.5 -22q5 -30 5 -37v-184v-20q34 24 61 40q21 11 61 15h25q41 3 78 -23q41 -25 65 -69q24 -49 37 -113q2 -8 4 -25.5t2 -19.5q7 -100 0 -164q-3 -38 -6 -65q-2 -11 -5 -33t-5 -33 q-26 -110 -82 -188q-39 -49 -82 -64q-91 -24 -151 25q-3 0 -9 6v-94v-54q0 -3 -1 -9t-1 -9v-115q0 -18 -3.5 -26t-20.5 -19h-19q-31 0 -34 31v20v234v125q-5 40 -5 45zM143 143q0 -15 7 -24q31 -43 69 -64q23 -13 51 -4q35 12 54 41q47 63 67 156q17 90 17 164q0 95 -17 157 q-14 48 -41 72q-32 32 -61 27q-57 -3 -94 -56q-5 -6 -25 -41q-20 -33 -20 -71q-1 -24 -3.5 -74.5t-3.5 -75.5v-92v-115z" />
<glyph unicode="&#xff;" horiz-adv-x="677" d="M63 750q-3 15 8.5 29t26.5 16q47 4 142 4q26 0 39 -27q4 -11 0 -24t-13 -19q-8 -6 -24 -14q-9 -6 -9 -19q29 -137 39 -172q12 -41 45 -178q22 -98 31 -131l4 -4q1 1 3 2t3 2q10 16 13 33q5 31 16.5 87.5t15.5 80.5q33 161 52 235q1 6 6 41q0 13 -15 23q-15 11 -20 18 q-13 19 -2 41q13 20 35 23q72 4 112 8q13 2 33 -10q3 -3 8 -13q8 -15 1 -33t-27 -22q-2 -1 -7.5 -2t-7.5 -2q-11 -4 -14 -12q-9 -22 -10 -27q-5 -30 -17 -86.5t-14 -67.5q-21 -88 -39 -180q-6 -34 -35 -172q-54 -247 -90 -364q-3 -8 -7 -23.5t-8 -27.5t-9 -23q-3 -8 -17 -31 q-14 -19 -45 -16h-6q-61 21 -88 28q-25 11 -25 39q-1 18 15.5 31t32.5 8q38 -9 49 -8q6 0 12 6q4 8 4 13q25 83 51 184q-7 29 -21.5 89t-21.5 89q-33 140 -39 174q-4 21 -13.5 59t-10.5 44q-40 144 -60 247q-3 11 -14 15q-6 1 -17.5 2t-17.5 2q-12 1 -21.5 12t-11.5 23z M215 942q-3 22 16 41q23 23 48 14q38 -13 43 -47q3 -28 -21.5 -48t-50.5 -11q-35 9 -35 51zM381 954q6 29 33 41q35 14 63 -24q17 -23 4 -45q-9 -13 -10 -17q-14 -20 -37 -20q-29 0 -44 17t-9 48z" />
<glyph unicode="&#x2000;" horiz-adv-x="881" />
<glyph unicode="&#x2001;" horiz-adv-x="1763" />
<glyph unicode="&#x2002;" horiz-adv-x="881" />
<glyph unicode="&#x2003;" horiz-adv-x="1763" />
<glyph unicode="&#x2004;" horiz-adv-x="587" />
<glyph unicode="&#x2005;" horiz-adv-x="440" />
<glyph unicode="&#x2006;" horiz-adv-x="293" />
<glyph unicode="&#x2007;" horiz-adv-x="293" />
<glyph unicode="&#x2008;" horiz-adv-x="220" />
<glyph unicode="&#x2009;" horiz-adv-x="352" />
<glyph unicode="&#x200a;" horiz-adv-x="97" />
<glyph unicode="&#x2010;" horiz-adv-x="454" d="M41 641q0 39 35 45q6 2 18 2h74q28 4 55 4h158q19 -3 26.5 -12.5t4.5 -30.5q-1 -18 -9 -24.5t-26 -6.5h-58q-18 3 -45 -2h2q-10 -2 -34 -2q-28 0 -68 -4h-96q-19 0 -26.5 7.5t-10.5 23.5z" />
<glyph unicode="&#x2011;" horiz-adv-x="454" d="M41 641q0 39 35 45q6 2 18 2h74q28 4 55 4h158q19 -3 26.5 -12.5t4.5 -30.5q-1 -18 -9 -24.5t-26 -6.5h-58q-18 3 -45 -2h2q-10 -2 -34 -2q-28 0 -68 -4h-96q-19 0 -26.5 7.5t-10.5 23.5z" />
<glyph unicode="&#x2012;" horiz-adv-x="454" d="M41 641q0 39 35 45q6 2 18 2h74q28 4 55 4h158q19 -3 26.5 -12.5t4.5 -30.5q-1 -18 -9 -24.5t-26 -6.5h-58q-18 3 -45 -2h2q-10 -2 -34 -2q-28 0 -68 -4h-96q-19 0 -26.5 7.5t-10.5 23.5z" />
<glyph unicode="&#x2013;" horiz-adv-x="1105" d="M41 641q0 39 96 45q17 2 50 2h204q77 4 151 4h435q53 -3 73.5 -12.5t12.5 -30.5q-3 -18 -25 -24.5t-72 -6.5h-159q-50 3 -124 -2h5q-27 -2 -93 -2q-78 0 -188 -4h-264q-52 0 -73 7.5t-29 23.5z" />
<glyph unicode="&#x2014;" horiz-adv-x="2129" d="M41 641q0 39 193 45q33 2 99 2h407q155 4 303 4h871q104 -3 145.5 -12.5t24.5 -30.5q-5 -18 -49 -24.5t-143 -6.5h-320q-99 3 -248 -2h11q-55 -2 -187 -2q-154 0 -375 -4h-528q-105 0 -146 7.5t-58 23.5z" />
<glyph unicode="&#x2018;" horiz-adv-x="346" d="M41 1272l37 119q7 23 22 36q18 12 39 5q23 -10 23 -33q-12 -61 -39 -139q-5 -14 -8 -17q-15 -27 -47 -20q-27 7 -27 49zM184 1272l37 119q6 22 23 36q18 12 39 5q22 -9 22 -33q-12 -61 -39 -139q-4 -14 -8 -17q-15 -27 -47 -20q-27 7 -27 49z" />
<glyph unicode="&#x2019;" horiz-adv-x="346" d="M41 1382q0 43 27 50q31 7 47 -21q4 -4 8 -16q26 -77 39 -140q0 -22 -23 -32q-22 -7 -39 4q-15 13 -22 37zM184 1382q0 43 27 50q31 7 47 -21q4 -4 8 -16q26 -77 39 -140q0 -23 -22 -32q-22 -7 -39 4q-16 14 -23 37z" />
<glyph unicode="&#x201c;" horiz-adv-x="202" d="M41 1382q0 43 27 50q31 7 47 -21q4 -4 8 -16q26 -77 39 -140q0 -22 -23 -32q-22 -7 -39 4q-15 13 -22 37z" />
<glyph unicode="&#x201d;" horiz-adv-x="202" d="M41 1272l37 119q7 23 22 36q18 12 39 5q23 -10 23 -33q-12 -61 -39 -139q-5 -14 -8 -17q-15 -27 -47 -20q-27 7 -27 49z" />
<glyph unicode="&#x202f;" horiz-adv-x="352" />
<glyph unicode="&#x205f;" horiz-adv-x="440" />
<glyph unicode="&#x25fc;" horiz-adv-x="798" d="M0 0v799h799v-799h-799z" />
</font>
</defs>
</svg>
